<?xml version="1.0" encoding="UTF-8" standalone="no"?>
<!DOCTYPE svg PUBLIC "-//W3C//DTD SVG 1.1//EN" "http://www.w3.org/Graphics/SVG/1.1/DTD/svg11.dtd">
<svg width="100%" height="100%" viewBox="0 510 1024 2" version="1.1" xmlns="http://www.w3.org/2000/svg" xmlns:xlink="http://www.w3.org/1999/xlink" xml:space="preserve" xmlns:serif="http://www.serif.com/" style="fill-rule:evenodd;clip-rule:evenodd;stroke-linejoin:round;stroke-miterlimit:2;">
    <g>
        <path d="M972.332,426.389C975.64,422.482 976.555,423.311 1011.489,423.845C1023.06,424.022 1022.242,429.515 1022.333,438.503C1022.377,442.903 1022.803,485.074 1022.601,493.504C1021.884,523.477 1003.946,516.501 955.497,497.508C947.26,494.278 948.625,491.862 951.564,483.524C970.201,430.655 969.979,430.645 972.332,426.389Z" style="fill:rgb(43,86,173);"/>
        <path d="M75.752,572.395C77.469,576.432 91.003,597.859 65.459,600.135C61.827,600.459 10.462,602.549 5.705,599.191C2.188,596.707 -0.506,594.805 1.752,545.513C2.89,520.686 12.827,526.402 37.47,523.238C49.966,521.634 53.42,520.16 57.155,528.651C66.74,550.443 65.955,550.659 75.752,572.395Z" style="fill:rgb(20,149,86);"/>
        <path d="M837.514,518.958C840.346,519.37 840.332,519.184 841.407,519.724C845.193,521.625 845.14,521.82 877.323,558.649C883.851,566.119 882.191,567.645 874.178,589.383C870.102,600.441 866.554,601.197 842.499,601.023C803.319,600.74 802.758,600.023 800.691,597.377C798.369,594.404 805.054,557.89 810.316,544.427C818.964,522.3 820.955,521.8 837.514,518.958Z" style="fill:rgb(21,150,87);"/>
        <path d="M989.454,528.455C991.246,526.556 995.624,520.199 1002.481,520.083C1009.864,519.958 1015.807,520.253 1019.191,523.796C1022.715,527.487 1023.1,528.117 1022.615,587.501C1022.526,598.407 1020.877,600.336 1007.514,600.829C966.138,602.353 960.844,597.687 957.257,585.585C951.294,565.47 962.987,559.006 989.454,528.455Z" style="fill:rgb(23,151,87);"/>
        <path d="M49.462,514.464C45.564,516.802 44.434,515.74 17.482,518.323C-2.139,520.204 1.831,509.752 1.883,460.502C1.918,428.048 0.589,423.454 11.525,422.912C37.886,421.605 39.858,423.889 41.118,432.545C41.646,436.178 46.29,473.875 46.733,477.47C50.855,510.927 51.287,511.129 49.462,514.464Z" style="fill:rgb(249,208,40);"/>
        <path d="M309.458,599.905C308.313,599.701 302.111,599.769 301.91,593.459C301.188,570.797 302.347,570.918 302.922,569.689C306.062,562.971 323.619,543.696 325.564,541.561C331.129,535.451 333.064,537.231 358.499,546.503C372.617,551.65 374.526,551.767 377.269,566.543C381.53,589.495 383.48,594.223 377.392,598.328C371.738,602.142 328.448,601.078 309.458,599.905Z" style="fill:rgb(250,209,37);"/>
        <path d="M393.572,548.635C406.428,541.713 425.964,530.57 428.766,528.972C435.513,525.124 437.285,526.586 439.389,533.536C451.53,573.656 457.233,586.897 449.409,595.417C446.911,598.136 442.492,602.949 403.515,600.326C389.49,599.383 388.694,593.467 383.883,563.444C382.263,553.334 384.971,553.454 393.572,548.635Z" style="fill:rgb(45,87,172);"/>
        <path d="M542.892,444.52C543.632,433.778 543.284,427.471 546.755,424.857C549.307,422.934 558.859,422.813 568.501,422.758C595.345,422.605 598.197,422.835 600.26,426.619C602.39,430.526 605.113,469.746 605.375,473.51C605.885,480.86 598.458,481.548 590.391,484.175C571.712,490.258 569.87,493.431 549.756,480.091C539.103,473.026 541.032,470.63 542.892,444.52Z" style="fill:rgb(46,71,155);"/>
        <path d="M107.907,432.54C106.778,438.388 106.72,438.69 77.8,500.638C76.094,504.293 74.425,511.789 63.477,513.376C58.636,514.079 58.533,511.442 53.43,471.51C47.667,426.406 48.152,426.054 49.533,424.529C51.305,422.574 54.715,422.417 82.487,422.969C105.125,423.42 107.482,428.131 107.907,432.54Z" style="fill:rgb(21,150,86);"/>
        <path d="M693.527,556.058C699.627,557.169 699.269,559.397 700.432,584.502C700.886,594.303 702.327,599.178 693.449,600.09C684.997,600.959 621.701,602.595 616.602,598.375C611.724,594.337 610.218,566.851 625.553,563.769C626.285,563.622 687.103,556.296 693.527,556.058Z" style="fill:rgb(22,150,85);"/>
        <path d="M736.88,444.594C739.845,432.464 740.538,425.849 746.583,423.726C748.692,422.986 752.5,421.649 774.519,423.274C810.603,425.938 792.617,447.852 785.004,459.137C764.154,490.045 762.475,494.409 759.52,494.701C756.872,494.964 741.505,485.591 736.865,482.039C727.822,475.118 730.023,472.832 736.88,444.594Z" style="fill:rgb(21,150,88);"/>
        <path d="M532.547,560.319C529.364,558.955 529.265,559.126 513.224,547.904C493.179,533.881 484.339,529.433 489.994,523.941C496.309,517.81 530.308,490.767 533.861,487.941C540.318,482.805 541.965,482.451 556.189,491.966C561.281,495.372 559.751,497.721 553.422,522.48C547.422,545.95 545.97,562.096 532.547,560.319Z" style="fill:rgb(250,207,32);"/>
        <path d="M901.272,453.654C899.519,451.01 896.005,447.167 897.253,442.445C901.446,426.572 907.515,423.381 922.519,422.946C961.517,421.816 962.476,423.554 963.117,426.554C963.719,429.372 941.666,489.865 940.351,492.42C935.873,501.121 932.134,494.101 901.272,453.654Z" style="fill:rgb(123,64,141);"/>
        <path d="M708.073,589.531C706.943,574.146 705.31,561.79 706.535,558.514C707.425,556.135 707.887,554.9 735.515,545.548C742.855,543.063 746.25,549.339 749.951,554.116C779.064,591.698 784.097,595.97 781.574,598.572C780.374,599.809 764.488,601.45 736.5,600.988C713.366,600.606 709.089,601.678 708.073,589.531Z" style="fill:rgb(46,79,166);"/>
        <path d="M228.71,524.803C229.538,524.375 236.543,520.753 240.356,524.633C244.473,528.822 243.093,541.11 242.931,542.549C239.251,575.32 238.958,595.321 236.263,598.315C232.428,602.575 205.331,600.46 204.524,600.345C186.866,597.833 187.932,579.432 188.889,574.575C190.528,566.254 224.468,528.358 228.71,524.803Z" style="fill:rgb(125,64,140);"/>
        <path d="M466.718,572.625C482.496,546.174 483.252,545.045 484.807,542.721C488.509,537.188 493.005,542.949 507.834,553.029C526.9,565.989 529.447,566.443 527.528,576.504C525.194,588.745 524.408,594.42 517.385,598.273C509.64,602.521 476.642,600.938 467.541,600.091C451.866,598.633 459.251,585.492 466.718,572.625Z" style="fill:rgb(20,150,86);"/>
        <path d="M95.56,600.118C82.081,596.39 87.075,586.821 92.702,580.681C114.145,557.286 114.903,556.674 120.472,557.639C124.157,558.277 171.835,577.426 176.518,579.459C187.838,584.375 181.8,595.007 178.243,597.08C168.189,602.939 106.523,600.782 95.56,600.118Z" style="fill:rgb(214,32,37);"/>
        <path d="M307.602,423.874C309.171,423.591 315.456,422.458 327.496,422.657C368.206,423.33 379.636,421.793 372.289,434.372C370.303,437.773 336.86,477.658 335.32,479.328C329.494,485.648 327.282,479.926 314.032,462.871C306.933,453.735 285.783,432.115 307.602,423.874Z" style="fill:rgb(21,149,87);"/>
        <path d="M417.506,465.495C415.04,462.525 389.389,431.636 386.768,428.301C384.106,424.914 387.497,423.099 416.502,422.72C454.343,422.226 463.804,423.401 462.876,438.547C462.651,442.219 462.451,445.479 435.44,475.446C429.04,482.546 427.393,477.346 417.506,465.495Z" style="fill:rgb(124,65,140);"/>
        <path d="M208.537,510.452C218.054,518.308 221.679,519.45 216.026,527.17C214.517,529.232 191.718,557.509 188.32,559.037C184.222,560.879 179.693,553.379 171.377,543.598C145.321,512.955 144.868,512.944 144.668,509.484C144.242,502.118 155.467,502.614 176.496,501.413C193.899,500.418 195.047,499.286 208.537,510.452Z" style="fill:rgb(21,150,87);"/>
        <path d="M561.091,522.398C564.963,506.673 567.618,489.759 576.193,497.829C578.694,500.183 610.497,547.76 612.265,550.641C619.117,561.805 608.155,571.032 605.491,570.9C600.855,570.669 557.208,555.285 556.755,555.065C552.787,553.137 554.316,549.693 561.091,522.398Z" style="fill:rgb(47,70,154);"/>
        <path d="M475.408,425.338C478.625,424.169 478.494,423.431 491.516,422.98C531.966,421.58 533.032,422.958 535.173,425.726C537.655,428.936 534.39,464.172 533.79,465.635C532.659,468.396 531.661,469.26 496.517,464.367C486.881,463.026 471.051,446.278 470.95,446.152C468.521,443.142 465.905,432.115 475.408,425.338Z" style="fill:rgb(21,150,86);"/>
        <path d="M225.422,443.578C220.394,438.526 220.419,438.637 215.676,433.353C205.712,422.253 234.961,422.905 242.508,422.792C278.309,422.254 294.736,422.237 291.664,439.529C290.306,447.171 262.27,472.179 260.383,473.287C256.496,475.568 255.909,473.549 225.422,443.578Z" style="fill:rgb(45,85,173);"/>
        <path d="M89.24,493.389C93.876,482.886 93.889,482.987 105.846,456.655C109.704,448.157 112.26,441.629 115.496,442.513C118.895,443.443 130.022,461.924 131.109,463.729C131.265,463.989 150.623,502.506 133.433,510.343C130.31,511.767 127.815,512.904 90.536,510.129C79.239,509.287 84.651,503.764 89.24,493.389Z" style="fill:rgb(46,68,151);"/>
        <path d="M208.084,446.412C208.116,446.296 208.629,440.698 211.564,441.226C212.756,441.44 218.153,446.781 218.686,447.308C248.009,476.323 254.862,479.19 253.149,489.43C251.824,497.347 247.844,522.6 228.487,516.532C223.711,515.035 206.456,499.251 204.752,497.302C202.406,494.618 201.1,494.065 208.084,446.412Z" style="fill:rgb(21,150,86);"/>
        <path d="M407.577,532.628C386.819,544.211 374.135,553.797 375.385,540.491C375.748,536.624 379.331,498.49 382.414,492.452C383.918,489.507 384.582,488.523 423.504,487.884C429.982,487.778 430.342,493.383 435,508.345C437.747,517.171 434.346,517.42 415.755,527.922C411.568,530.288 411.701,530.311 407.577,532.628Z" style="fill:rgb(21,150,86);"/>
        <path d="M198.636,440.796C195.816,442.007 147.796,459.984 145.55,460.665C138.488,462.804 137.731,460.786 122.074,438.822C121.94,438.634 113.275,430.573 121.772,424.926C125.997,422.118 191.055,420.347 201.262,425.921C213.747,432.74 199.702,440.227 198.636,440.796Z" style="fill:rgb(214,34,38);"/>
        <path d="M538.419,599.815C531.42,597.099 529.192,595.137 534.293,576.44C534.754,574.75 538.237,561.983 550.506,561.716C556.822,561.578 595.714,575.884 599.58,577.306C612.787,582.164 604.503,597.095 604.298,597.316C598.506,603.523 544.061,600.666 538.419,599.815Z" style="fill:rgb(215,33,37);"/>
        <path d="M465.411,517.911C448.066,513.669 444.955,514.417 441.881,506.35C435.512,489.633 435.948,488.059 436.387,486.468C437.191,483.562 437.221,483.453 460.654,457.639C466.31,451.408 468.39,453.716 482.119,464.942C487.424,469.28 486.084,470.761 479.198,513.445C477.754,522.399 474.243,519.809 465.411,517.911Z" style="fill:rgb(216,33,35);"/>
        <path d="M809.355,457.566C806.27,450.586 800.971,440.868 804.417,440.147C806.696,439.671 861.912,461.563 864.214,464.693C866.997,468.475 850.736,507.953 839.361,512.105C833.994,514.064 834.143,510.626 809.355,457.566Z" style="fill:rgb(122,65,140);"/>
        <path d="M673.5,437.5C665.323,427.69 663.965,425.917 665.475,424.472C667.965,422.089 718.015,422.725 725.521,423.204C736.253,423.89 733.245,430.706 729.673,444.547C724.339,465.214 724.047,470.556 718.449,471.106C699.752,472.942 697.878,465.914 673.5,437.5Z" style="fill:rgb(123,66,140);"/>
        <path d="M245.976,589.509C246.3,585.824 249.331,551.317 250.323,543.475C251.197,536.558 256.75,541.386 264.355,547.685C283.219,563.311 293.454,567.976 294.319,576.522C296.364,596.719 292.928,598.28 291.273,599.032C286.285,601.298 260.31,600.959 256.483,600.807C247.035,600.433 245.464,598.976 245.976,589.509Z" style="fill:rgb(47,71,156);"/>
        <path d="M257.493,510.294C261.074,510.517 278.985,513.401 297.589,519.21C317.366,525.385 327.253,526.567 322.325,533.38C320.76,535.544 312.06,547.572 301.174,559.208C293.99,566.887 292.817,559.509 258.847,534.039C237.681,518.169 253.132,511.186 257.493,510.294Z" style="fill:rgb(44,85,173);"/>
        <path d="M702.553,477.872C703.447,477.815 739.459,473.988 726.066,492.185C725.128,493.46 699.509,526.568 699.051,527.097C693.121,533.949 690.979,529.454 667.112,507.94C659.79,501.34 651.948,496.69 661.621,492.784C694.072,479.681 699.145,478.599 702.553,477.872Z" style="fill:rgb(42,87,175);"/>
        <path d="M122.118,523.406C113.672,545.899 114.834,546.882 98.246,564.244C90.351,572.508 86.704,578.753 81.967,568.271C81.096,566.343 63.749,526.897 63.17,523.581C62.434,519.36 64.05,513.917 116.494,518.57C121.06,518.976 122.532,518.839 122.118,523.406Z" style="fill:rgb(122,65,142);"/>
        <path d="M859.428,503.146C861.937,502.951 861.951,502.6 869.491,503.574C914.559,509.394 914.659,508.593 918.466,509.641C925.227,511.503 918.385,517.244 910.9,525.841C886.232,554.172 885.329,553.72 883.507,553.452C880.042,552.942 851.549,518.312 850.91,517.263C847.97,512.435 852.965,505.154 859.428,503.146Z" style="fill:rgb(216,33,36);"/>
        <path d="M641.328,517.414C646.045,508.544 648.238,502.541 652.479,504.539C653.86,505.189 686.765,535.23 690.253,538.742C701.011,549.575 685.315,549.449 677.479,550.347C624.815,556.382 623.41,557.127 622.688,554.43C621.83,551.227 622.773,551.135 641.328,517.414Z" style="fill:rgb(121,66,139);"/>
        <path d="M805.308,430.861C801.247,428.047 801.657,425.736 806.465,424.376C813.58,422.362 853.413,422.658 857.498,422.688C886.936,422.907 899.391,422.081 891.078,441.292C888.072,448.237 874.627,456.854 870.497,457.001C866.188,457.155 811.582,434.266 805.308,430.861Z" style="fill:rgb(249,207,36);"/>
        <path d="M611.444,485.119C626.03,483.715 635.428,487.059 637.447,488.572C646.61,495.439 642.058,500.336 637.276,509.379C620.672,540.78 620.527,541.491 617.504,541.626C613.377,541.811 585.422,496.846 585.335,496.557C584.679,494.373 584.078,491.046 611.444,485.119Z" style="fill:rgb(250,206,32);"/>
        <path d="M290.377,506.308C284.452,509.307 284.113,508.334 266.511,504.452C263.912,503.879 254.22,504.294 260.832,486.633C262.947,480.983 263.955,480.953 289.743,454.753C296.04,448.355 298.481,454.279 306.903,465.172C315.276,476.002 317.59,477.397 312.054,484.158C310.484,486.077 301.168,497.456 290.377,506.308Z" style="fill:rgb(124,65,140);"/>
        <path d="M175.43,457.302C192.048,451.205 200.154,446.296 199.149,456.462C195.697,491.38 194.129,491.985 191.336,493.064C189.127,493.917 152.582,495.957 151.456,495.798C149.655,495.544 145.803,494.999 143.526,474.498C142.898,468.843 144.967,468.569 175.43,457.302Z" style="fill:rgb(214,32,36);"/>
        <path d="M789.445,465.467C792.646,460.565 792.317,460.431 795.941,455.931C799.812,451.125 802.821,461.338 814.845,487.336C826.133,511.741 827.812,514.892 821.532,516.639C813.396,518.902 770.601,500.736 769.703,499.389C767.962,496.777 768.876,496.1 789.445,465.467Z" style="fill:rgb(46,76,164);"/>
        <path d="M666.62,440.399C689.727,469.408 695.162,470.995 689.361,474.248C688.239,474.878 653.562,489.245 648.509,488.44C637.811,486.736 642.764,470.721 647.601,439.518C648.568,433.277 649.201,421.02 656.434,428.563C659.641,431.908 665.826,439.433 666.62,440.399Z" style="fill:rgb(21,149,86);"/>
        <path d="M900.497,548.498C906.549,541.936 912.971,534.793 915.244,532.286C923.448,523.233 925.675,518.199 929.934,525.23C956.761,569.525 950.579,573.583 946.553,574.683C943.616,575.485 894.72,565.017 893.457,564.622C885.772,562.223 893.594,556.341 900.497,548.498Z" style="fill:rgb(47,71,155);"/>
        <path d="M869.085,477.341C872.432,469.252 872.983,464.131 882.695,457.809C891.643,451.985 893.206,454.926 900.954,465.144C925.101,496.99 929.377,501.832 924.532,502.705C918.748,503.747 874.8,497.167 870.497,496.523C859.788,494.919 864.358,488.984 869.085,477.341Z" style="fill:rgb(44,89,175);"/>
        <path d="M714.395,546.155C713.074,546.568 698.482,553.789 699.959,541.572C700.626,536.054 712.352,522.661 730.937,497.811C738.588,487.581 741.191,492.62 752.238,498.961C759.125,502.914 756.483,505.619 748.363,526.44C744.43,536.523 740.229,536.631 714.395,546.155Z" style="fill:rgb(215,35,35);"/>
        <path d="M882.096,587.392C884.409,580.512 886.062,572.752 890.558,571.989C894.175,571.376 935.638,580.474 939.534,581.329C958.509,585.492 952.049,597.451 948.381,599.237C941.283,602.694 892.367,600.714 887.499,600.517C875.469,600.03 880.741,592.473 882.096,587.392Z" style="fill:rgb(214,34,38);"/>
        <path d="M966.444,543.448C959.117,551.643 956.353,558.457 951.004,548.781C931.428,513.368 931.447,513.003 931.628,509.505C932.473,493.238 958.977,506.585 971.602,511.231C981.448,514.853 989.623,516.201 984.118,523.212C979.588,528.981 975.162,533.702 966.444,543.448Z" style="fill:rgb(217,34,37);"/>
        <path d="M610.816,451.467C608.638,429.123 607.455,425.055 611.541,423.609C614.312,422.629 635.316,422.29 639.566,424.381C642.958,426.05 642.547,427.439 635.172,471.438C633.654,480.491 630.689,479.018 621.521,478.263C611.242,477.416 613.119,473.235 610.816,451.467Z" style="fill:rgb(213,32,35);"/>
        <path d="M147.553,526.45C164.926,548.053 188.256,572.679 180.494,572.395C177.354,572.28 124.984,552.222 122.653,549.377C121.301,547.726 120.127,546.293 129.99,523.73C136.178,509.574 141.644,519.671 147.553,526.45Z" style="fill:rgb(123,65,141);"/>
        <path d="M350.563,497.952C357.229,497.022 369.142,494.795 371.224,496.81C374.868,500.338 367.348,538.856 367.081,539.213C365.571,541.229 364.523,542.164 336.63,531.195C330.41,528.749 328.982,526.982 334.435,506.48C336.502,498.709 342.998,499.222 350.563,497.952Z" style="fill:rgb(22,150,86);"/>
        <path d="M774.433,536.703C764.188,533.189 764.256,533.203 763.368,532.908C762.428,532.595 762.469,532.661 761.546,532.343C754.376,529.877 755.213,527.827 757.564,521.524C762.967,507.039 764.419,505.421 770.375,507.803C800.358,519.796 804.796,519.873 808.415,522.615C809.578,523.497 812.119,525.422 804.284,540.394C800.852,546.951 798.552,544.568 774.433,536.703Z" style="fill:rgb(215,35,36);"/>
        <path d="M795.097,578.423C794.612,580.961 793.033,595.359 789.68,592.275C789.089,591.731 749.536,543.226 749.882,539.505C750.191,536.176 752.567,535.798 790.392,549.794C801.153,553.776 798.647,557.261 795.097,578.423Z" style="fill:rgb(214,34,38);"/>
        <path d="M493.126,477.418C493.247,477.018 493.424,474.389 495.745,472.912C498.074,471.429 533.179,474.797 533.241,477.511C533.313,480.62 489.643,514.435 489.498,514.495C485.771,516.028 486.505,511.034 493.126,477.418Z" style="fill:rgb(47,77,162);"/>
        <path d="M445.089,524.555C445.211,519.484 447.43,520.657 452.431,521.809C479.774,528.108 480.346,528.581 481.054,531.589C481.824,534.866 461.86,567.895 459.507,567.926C455.631,567.977 445.167,524.945 445.089,524.555Z" style="fill:rgb(122,64,139);"/>
        <path d="M390.537,444.467C416.733,477.242 420.162,478.418 416.553,480.567C414.827,481.595 414.573,481.746 391.492,482.224C381.696,482.427 384.489,477.441 379.765,447.458C379.369,444.942 377.041,434.141 380.509,434.416C381.955,434.531 389.794,443.607 390.537,444.467Z" style="fill:rgb(23,148,88);"/>
        <path d="M352.793,469.726C369.379,450.106 369.043,448.728 371.552,449.359C374.009,449.977 377.732,481.96 375.61,485.581C373.766,488.727 340.077,492.243 339.508,492.252C334.518,492.33 337.199,488.66 352.793,469.726Z" style="fill:rgb(125,65,139);"/>
        <path d="M311.582,516.217C310.799,515.973 300.216,513.155 299.491,511.505C297.784,507.627 319.521,486.357 322.487,486.725C333.825,488.133 326.084,511.748 325.613,513.531C323.47,521.64 318.3,518.116 311.582,516.217Z" style="fill:rgb(214,34,34);"/>
    </g>
</svg>
