<?xml version="1.0" encoding="UTF-8" standalone="no"?>
<!DOCTYPE svg PUBLIC "-//W3C//DTD SVG 1.1//EN" "http://www.w3.org/Graphics/SVG/1.1/DTD/svg11.dtd">
<svg width="100%" height="100%" viewBox="0 0 1792 2368" version="1.1" xmlns="http://www.w3.org/2000/svg" xmlns:xlink="http://www.w3.org/1999/xlink" xml:space="preserve" xmlns:serif="http://www.serif.com/" style="fill-rule:evenodd;clip-rule:evenodd;stroke-linejoin:round;stroke-miterlimit:2;">
    <g id="Background" transform="matrix(2.3125,0,0,2.3125,0,0)">
        <path d="M322.457,569.78C320.399,569.347 319.123,570.019 311.709,565.19C301.259,558.383 294.858,512.723 327.526,509.862C376.596,505.564 374.11,559.112 349.353,569.103C334.705,575.014 324.668,570.233 322.457,569.78Z" style="fill:rgb(246,171,23);"/>
        <path d="M359.456,376.887C375.532,379.376 375.614,379.088 386.721,384.014C390.924,385.877 397.653,384.088 394.05,390.231C390.703,395.937 364.12,434.977 362.626,435.712C358.777,437.606 359.336,434.33 350.175,404.59C350.077,404.272 345.536,384.346 345.135,382.585C342.942,372.962 357.451,376.66 359.456,376.887Z" style="fill:rgb(64,146,87);"/>
        <path d="M444.466,435.444C433.862,441.214 432.371,443.982 415.312,452.095C406.178,456.439 399.072,461.044 398.782,455.471C398.367,447.509 405.694,417.324 405.745,403.543C405.772,396.059 409.716,399.487 416.358,402.793C427.761,408.468 428.843,407.092 437.133,416.823C449.321,431.13 448.884,432.324 447.504,433.504C447.285,433.691 447.279,433.648 444.466,435.444Z" style="fill:rgb(65,147,88);"/>
        <path d="M428.305,320.647C423.142,313.387 427.561,311.283 430.361,308.375C439.751,298.625 443.698,305.137 458.547,317.441C473.529,329.855 498.502,335.607 486.1,347.158C470.778,361.427 453.002,347.024 451.638,346.208C436.32,337.038 438.859,332.473 428.305,320.647Z" style="fill:rgb(89,76,101);"/>
        <path d="M531.939,597.501C531.577,623.742 516.948,598.484 508.461,588.532C498.224,576.527 499.671,574.626 485.401,567.705C477.226,563.74 466.452,560.228 470.565,556.566C472.833,554.546 483.095,545.407 508.358,552.949C515.729,555.149 521.489,562.47 523.196,565.661C531.187,580.592 531.603,587.904 531.939,597.501Z" style="fill:rgb(63,147,89);"/>
        <path d="M486.504,287.816C492.951,287.912 508.627,290.052 512.794,300.377C527.062,335.734 471.665,343.291 469.43,310.503C468.1,291.002 484.265,288.204 486.504,287.816Z" style="fill:rgb(245,174,30);"/>
        <path d="M346.094,408.654C353.996,432.182 356.456,434.867 351.581,435.881C332.48,439.855 332.021,440.526 313.618,434.164C308.978,432.56 310.495,430.51 317.996,409.687C324.503,391.619 329.939,372.355 335.36,376.66C337.166,378.094 338.62,388.756 346.094,408.654Z" style="fill:rgb(90,77,101);"/>
        <path d="M223.487,666.512C215.328,657.497 217.142,644.006 220.932,639.871C235.598,623.87 246.67,629.149 252.318,631.884C261.235,636.204 262.137,653.129 259.474,662.493C256.743,672.098 234.533,677.945 223.487,666.512Z" style="fill:rgb(239,116,34);"/>
        <path d="M475.71,614.242C474.085,612.74 469.436,609.261 466.727,603.401C465.702,601.185 465.395,596.078 466.187,593.445C475.714,561.776 520.253,589.246 509.318,608.437C495.291,633.052 475.972,614.43 475.71,614.242Z" style="fill:rgb(237,117,36);"/>
        <path d="M467.122,752.56C470.7,775.058 473.702,787.99 460.496,782.51C433.939,771.49 433.788,771.009 433.05,768.663C432.897,768.176 431.177,745.998 433.743,743.828C433.753,743.82 457.729,732.591 461.458,735.556C465.15,738.493 467.041,752.147 467.122,752.56Z" style="fill:rgb(25,121,112);"/>
        <path d="M491.557,408.854C502.571,407.43 509.944,403.837 506.561,414.508C505.911,416.561 505.828,416.821 496.285,439.388C495.149,442.076 492.272,449.571 468.491,450.22C467.415,450.249 466.848,450.603 458.961,440.068C452.567,431.527 458.398,430.895 471.255,422.149C483.714,413.675 482.467,411.612 491.557,408.854Z" style="fill:rgb(20,119,112);"/>
        <path d="M300.579,383.87C302.149,383.499 315.779,380.281 320.582,381.276C322.43,381.659 323.946,382.846 316.527,404.509C304.779,438.815 302.398,439.477 299.775,438.027C297.878,436.977 285.392,400.042 284.914,398.368C281.284,385.636 287.784,387.222 300.579,383.87Z" style="fill:rgb(66,148,89);"/>
        <path d="M453.174,704.616C460.486,720.719 461.952,724.965 458.225,727.01C435.441,739.515 430.724,745.097 426.5,733.5C418.982,712.865 414.624,705.227 421.57,702.686C446.806,693.456 447.563,694.228 449.156,695.851C450.824,697.551 450.41,697.767 453.174,704.616Z" style="fill:rgb(22,119,111);"/>
        <path d="M353.475,922.139C340.695,920.484 334.16,904.953 336.603,902.615C336.859,902.371 376.362,879.958 381.438,880.967C387.096,882.092 386.147,909.985 373.296,917.136C366.171,921.1 359.046,921.422 353.475,922.139Z" style="fill:rgb(235,128,44);"/>
        <path d="M300.906,314.54C301.558,304.961 301.461,305.054 301.902,295.53C302.211,288.852 314.781,287.492 317.044,290.766C319.311,294.046 331.928,336.578 333.119,340.593C336.462,351.862 311.7,343.667 310.844,343.033C299.662,334.752 300.758,316.95 300.906,314.54Z" style="fill:rgb(88,76,100);"/>
        <path d="M267.917,654.518C267.928,653.899 267.996,654.001 268.006,653.48L268.026,648.469C268.051,646.907 267.435,645.366 282.659,639.974C292.75,636.4 293.017,648.882 309.151,661.893C310.145,662.695 319.671,670.378 304.329,677.12C285.282,685.491 283.88,679.79 278.987,674.141C271.263,665.221 267.917,666.377 267.917,654.518Z" style="fill:rgb(39,138,186);"/>
        <path d="M281.534,491.343C270.335,483.139 248.661,480.56 260.568,469.581C265.17,465.337 286.891,448.11 289.535,447.955C292.707,447.768 309.16,467.623 301.05,478.141C296.934,483.48 289.334,488.295 288.197,489.016C284.176,491.563 284.184,491.872 281.534,491.343Z" style="fill:rgb(41,72,150);"/>
        <path d="M251.573,979.089C228.637,974.499 226.067,974.837 225.21,972.634C222.526,965.729 235.463,953.217 236.83,951.895C243.332,945.607 264.947,946.942 272.342,961.54C272.896,962.633 272.449,977.429 271.888,978.702C270.494,981.867 253.181,979.325 251.573,979.089Z" style="fill:rgb(205,46,43);"/>
        <path d="M377.923,842.653C384.509,823.436 383.428,822.927 384.692,821.7C386.012,820.418 387.808,820.104 400.135,838.757C408.284,851.087 413.037,854.645 400.741,862.897C388.278,871.261 380.221,877.601 376.944,874.015C365.111,861.068 371.299,858.874 377.923,842.653Z" style="fill:rgb(30,127,103);"/>
        <path d="M350.562,293.908C351.102,293.801 358.071,292.268 359.347,292.882C361.496,293.917 360.547,294.599 361.228,299.525C363.03,312.569 366.528,313.952 358.038,324.125C342.184,343.122 339.058,339.761 337.708,338.308C335.616,336.06 327.713,306.243 327.314,303.524C326.767,299.798 330.046,298.528 350.562,293.908Z" style="fill:rgb(88,76,101);"/>
        <path d="M299.877,450.436C299.933,448.378 299.128,448.139 300.654,446.683C301.032,446.321 340.11,440.648 342.17,441.989C343.903,443.117 342.871,468.335 342.731,468.635C341.95,470.297 341.378,469.386 320.419,474.041C305.258,477.409 306.412,470.73 299.877,450.436Z" style="fill:rgb(41,73,147);"/>
        <path d="M418.482,697.078C412.213,695.88 414.752,693.017 408.684,681.422C406.6,677.439 398.281,670.391 403.78,666.948C424.119,654.211 427.507,652.218 430.015,656.764C445.531,684.881 446.985,684.717 446.143,687.352C445.725,688.663 445.08,687.719 430.291,694.02C422.681,697.263 418.761,697.047 418.482,697.078Z" style="fill:rgb(20,117,108);"/>
        <path d="M417.491,320.965C424.169,322.304 425.242,328.556 429.681,332.32C437.557,338.999 437.31,339.107 445.605,345.373C447.576,346.862 457.085,351.035 442.607,358.695C441.447,359.308 436.091,362.141 426.574,362.174C412.198,362.222 402.606,328 403.718,326.72C407.179,322.738 416.314,321.168 417.491,320.965Z" style="fill:rgb(88,76,101);"/>
        <path d="M332.504,677.495C323.163,671.227 323.133,671.243 322.503,670.497C321.219,668.979 320.838,667.668 338.367,651.363C343.918,646.199 345.061,642.22 350.084,647.942C364.794,664.698 368.256,662.697 368.15,667.516C368.051,672.028 352.822,686.75 351.285,688.235C348.635,690.797 333.288,678.2 332.504,677.495Z" style="fill:rgb(39,71,149);"/>
        <path d="M393.472,460.951C402.643,464.172 412.08,479.942 407.02,494.32C405.308,499.185 400.896,514.082 394.895,507.151C385.009,495.731 366.698,480.163 370.784,476.776C391.611,459.512 392.652,461.119 393.472,460.951Z" style="fill:rgb(40,72,149);"/>
        <path d="M410.25,703.611C418.761,726.274 421.62,729.191 417.196,732.039C415.635,733.043 405.288,739.701 396.513,742.559C392.136,743.984 390.178,733.313 382.803,720.365C377.816,711.61 381.577,707.243 403.703,697.966C408.206,696.079 409.538,702.216 410.25,703.611Z" style="fill:rgb(42,74,148);"/>
        <path d="M250.471,749.108C242.782,750.205 242.291,749.572 242.397,748.5C242.622,746.219 243.372,746.405 248.34,720.463C251.071,706.204 254.378,707.626 265.359,704.071C268.565,703.033 269.773,711.809 275.609,721.437C277.474,724.515 283.227,731.677 278.454,735.441C267.299,744.236 266.488,742.757 253.51,748.546C253.284,748.647 253.285,748.588 250.471,749.108Z" style="fill:rgb(37,138,187);"/>
        <path d="M531.171,223.509C530.455,231.794 531.314,232.478 525.309,238.324C524.997,238.628 515.889,243.911 508.791,242.028C489.238,236.841 485.889,210.814 506.434,206.244C516.135,204.086 529.325,212.431 531.171,223.509Z" style="fill:rgb(41,72,149);"/>
        <path d="M319.417,620.233C324.803,620.678 324.149,622.121 328.052,625.916C336.388,634.02 337.475,635.563 339.105,637.767C343.331,643.483 339.849,644.272 321.26,662.253C321.006,662.498 318.63,664.796 316.916,663.035C300.138,645.792 299.948,646.075 298.884,644.287C297.47,641.91 307.38,626.606 319.417,620.233Z" style="fill:rgb(40,72,151);"/>
        <path d="M377.084,585.574C377.87,596.323 370.769,591.476 356.865,601.981C352.021,605.642 350.776,608.101 346.94,603.174C333.239,585.582 333.982,582.362 336.725,580.889C344.31,576.817 345.765,578.965 362.826,565.938C363.318,565.563 369.055,559.828 370.09,562.672C374.923,575.947 376.664,583.704 377.084,585.574Z" style="fill:rgb(18,117,110);"/>
        <path d="M351.509,928.774C361.962,928.553 365.956,925.108 367.774,935.447C370.675,951.937 371.407,956.936 367.299,959.129C351.388,967.622 349.605,963.25 337.611,955.334C329.774,950.161 333.532,945.68 336.807,937.618C340.914,927.512 344.101,929.259 351.509,928.774Z" style="fill:rgb(239,144,41);"/>
        <path d="M390.867,895.524C392.486,889.612 394.056,890.515 402.506,889.579C414.778,888.218 419.784,885.124 420.782,897.479C422.235,915.445 423.228,916.269 418.017,922.048C410.581,930.295 408.36,927.155 393.254,917.956C382.909,911.656 389.8,908.682 390.867,895.524Z" style="fill:rgb(240,147,44);"/>
        <path d="M179.829,928.405C179.317,926.45 174.213,906.964 175.534,903.51C180.212,891.282 185.078,902.591 205.368,911.782C212.461,914.996 212.68,916.806 209.182,923.326C200.255,939.96 200.612,943.595 194.7,941.06C182.459,935.811 182.246,935.127 179.829,928.405Z" style="fill:rgb(206,46,44);"/>
        <path d="M325.916,270.58C327.852,262.076 327.846,262.132 328.007,261.396C328.436,259.427 328.333,259.501 328.776,257.553C329.537,254.208 338.957,247.825 341.276,253.636C346.732,267.315 358.435,283.699 355.075,288.21C352.283,291.958 326.699,296.683 326.511,296.701C319.702,297.359 322.863,291.765 325.916,270.58Z" style="fill:rgb(66,92,150);"/>
        <path d="M455.145,590.437C450.329,608.017 448.26,607.075 440.581,623.569C439.027,626.907 437.138,621.311 433.144,615.756C424.395,603.584 420.401,599.682 427.589,592.595C429.766,590.449 453.046,567.495 455.492,566.483C460.172,564.545 457.06,580.058 455.145,590.437Z" style="fill:rgb(61,146,88);"/>
        <path d="M569.753,327.538C572.365,319.185 579.273,315.081 580.438,314.389C592.484,307.232 611.506,318.504 603.64,338.57C598.972,350.475 567.541,352.37 569.753,327.538Z" style="fill:rgb(41,74,151);"/>
        <path d="M243.725,710.79C235.604,716.56 235.927,682.215 249.735,673.898C254.451,671.057 254.968,672.178 262.517,667.526C266.964,664.786 280.382,680.121 280.452,680.504C281.658,687.125 269.825,684.771 243.725,710.79Z" style="fill:rgb(36,136,185);"/>
        <path d="M350.461,441.911C353.43,442.714 386.529,451.666 386.802,454.46C387.095,457.459 371.374,479.921 359.716,475.012C348.976,470.49 342.205,468.978 346.601,445.521C347.182,442.417 347.4,442.056 350.461,441.911Z" style="fill:rgb(41,72,147);"/>
        <path d="M553.6,249.178C540.173,244.561 536.478,245.734 535.347,231.506C533.513,208.429 534.026,207.945 535.728,206.966C537.138,206.154 552.831,207.809 557.429,208.838C565.778,210.706 562.453,213.971 561.106,222.444C557.691,243.925 557.723,249.404 553.6,249.178Z" style="fill:rgb(21,119,113);"/>
        <path d="M574.943,264.448C574.921,264.133 574.663,260.515 574.663,260.515C575.091,256.934 602.56,251.85 608.496,251.394C613.59,251.002 611.174,259.434 613.676,277.475C614.803,285.603 609.715,281.105 600.534,280.215C590.953,279.287 591.04,280.04 581.506,279.456C576.487,279.148 575.577,269.182 574.943,264.448Z" style="fill:rgb(23,121,119);"/>
        <path d="M178.127,938.504C176.649,950.685 174.327,955.461 163.747,949.103C160.932,947.411 143.138,935.679 141.248,931.64C139.688,928.306 144.013,921.838 149.581,919.714C169.195,912.234 169.885,912.68 171.406,913.665C173.134,914.784 175.396,916.248 178.127,938.504Z" style="fill:rgb(31,125,115);"/>
        <path d="M408.787,469.439C407.356,462.559 407.283,462.598 407.239,461.519C406.99,455.388 448.812,442.492 449.468,442.797C456.16,445.906 424.136,484.704 416.222,487.005C412.428,488.108 412.84,485.303 408.787,469.439Z" style="fill:rgb(39,137,184);"/>
        <path d="M583.311,245.406C577.365,256.221 576.423,260.342 565.297,254.955C562.4,253.552 557.241,254.294 559.972,244.637C568.386,214.894 568.872,214.216 571.48,214.094C574.264,213.965 593.764,221.375 593.301,225.495C592.795,230.006 591.83,229.632 583.311,245.406Z" style="fill:rgb(36,139,179);"/>
        <path d="M376.854,344.575C379.69,335.609 385.03,332.146 393.257,327.103C401.579,322.001 400.863,328.228 403.658,336.459C411.137,358.491 412.687,358.936 411.095,360.122C404.746,364.852 402.153,365.83 379.391,358.792C375.599,357.62 376.743,345.725 376.854,344.575Z" style="fill:rgb(88,76,101);"/>
        <path d="M429.829,785.596C432.264,778.077 432.176,778.097 432.459,777.476C435,771.881 460.141,785.776 460.495,789.5C461.042,795.235 430.048,816.929 426.243,819.06C416.409,824.567 421.937,810.636 429.829,785.596Z" style="fill:rgb(28,121,109);"/>
        <path d="M399.565,613.89C392.986,612.713 385.977,590.929 386.333,588.477C386.539,587.059 386.733,585.724 400.574,577.626C409.952,572.139 411.005,576.191 416.009,585.785C417.589,588.815 423.418,602.888 421.222,604.114C409.373,610.729 401.374,613.307 399.565,613.89Z" style="fill:rgb(37,139,186);"/>
        <path d="M198.636,966.156C189.481,962.332 189.548,962.476 180.574,958.336C176.891,956.636 177.843,954.757 181.345,944.428C183.967,936.694 195.955,945.852 199.573,944.851C208.491,942.384 208.862,943.902 220.857,953.024C226.947,957.654 225.265,959.58 218.214,970.288C215.691,974.119 207.659,969.486 198.636,966.156Z" style="fill:rgb(44,143,185);"/>
        <path d="M314.087,616.483C312.036,623.691 294.15,635.137 293.538,635.075C291.443,634.861 272.023,614.541 274.653,610.602C277.541,606.276 293.463,593.418 300.326,599.688C304.496,603.497 304.033,603.883 312.28,612.703C314.174,614.729 313.906,615.745 314.087,616.483Z" style="fill:rgb(40,73,151);"/>
        <path d="M381.565,595.884C386.293,595.843 387.087,600.896 389.865,606.29C394.903,616.069 400.156,618.799 390.209,625.016C374.665,634.732 371.954,635.484 368.908,630.266C363.985,621.833 364.239,621.727 357.858,614.235C353.489,609.104 378.77,596.836 381.565,595.884Z" style="fill:rgb(20,117,109);"/>
        <path d="M609.792,312.548C607.86,319.732 604.329,313.037 596.401,310.861C577.911,305.786 571.945,302.231 577.209,289.376C579.917,282.765 580.634,281.787 587.602,283.111C613.186,287.973 613.713,288.523 613.913,290.458C614.014,291.442 612.475,297.128 609.792,312.548Z" style="fill:rgb(20,118,111);"/>
        <path d="M326.381,608.394C319.999,614.981 319.024,610.223 315.137,606.926C298.807,593.077 292.734,590.697 297.952,584.916C310.502,571.012 310.994,570.995 312.539,571.378C316.532,572.367 338.092,594.046 334.22,599.305C333.651,600.079 333.474,599.906 326.381,608.394Z" style="fill:rgb(202,33,33);"/>
        <path d="M370.863,556.488C371.508,554.434 371.605,553.58 383.565,551.949C394.511,550.456 394.658,552.697 404.525,550.578C416.015,548.11 413.844,572.173 408.573,572.816C392.312,574.803 392.893,578.125 385.493,577.911C378.208,577.7 371.232,558.092 370.863,556.488Z" style="fill:rgb(38,138,186);"/>
        <path d="M372.506,671.925C374.231,672.45 374.095,672.654 390.49,685.511C396.451,690.186 389.368,693.602 382.212,705.319C377.355,713.271 374.67,712.472 367.735,706.213C355.331,695.02 353.022,692.804 356.871,687.774C367.49,673.903 370.849,672.578 372.506,671.925Z" style="fill:rgb(40,72,149);"/>
        <path d="M274.28,403.278C276.314,401.621 277.059,401.251 278.266,403.629C285.302,417.488 285.954,417.031 293.076,430.745C296.259,436.875 290.673,437.878 281.352,444.282C277.39,447.004 259.315,431.767 258.978,431.215C256.478,427.115 273.835,403.834 274.28,403.278Z" style="fill:rgb(88,75,100);"/>
        <path d="M276.589,543.785C289.002,540.384 297.899,537.758 299.173,541.606C299.8,543.501 304.895,558.898 306.172,565.552C307.166,570.728 295.3,577.459 293.376,578.168C292.028,578.664 286.502,580.699 280.856,565.3C274.904,549.063 269.563,546.62 276.589,543.785Z" style="fill:rgb(207,33,35);"/>
        <path d="M422.543,608.199C423.948,608.798 432.148,615.176 432.403,627.501C432.845,648.803 431.253,649.242 429.494,649.323C422.164,649.661 393.21,620.843 401.643,616.748C418.399,608.61 420.745,608.377 422.543,608.199Z" style="fill:rgb(38,138,186);"/>
        <path d="M351.212,501.506C351.279,499.01 350.536,494.983 354.355,479.446C355.353,475.386 369.659,480.235 383.374,499.585C384.572,501.276 387.047,504.768 364.426,517.243C363.722,517.632 363.289,518.052 353.53,510.465C350.922,508.437 351.351,503.181 351.212,501.506Z" style="fill:rgb(205,32,34);"/>
        <path d="M332.445,608.449C332.958,607.907 337.947,602.63 339.382,602.202C342.505,601.269 357.998,619.756 363.215,627.679C365.174,630.655 364.004,631.219 353.519,641.522C349.195,645.772 339.851,631.329 326.59,621.388C321.323,617.439 326.297,615.279 332.445,608.449Z" style="fill:rgb(203,34,35);"/>
        <path d="M345.506,473.33C349.654,473.943 351.24,473.437 350.789,477.528C348.226,500.792 346.136,503.038 340.485,503.294C331.43,503.705 326.573,505.339 324.884,501.244C318.14,484.896 315.023,477.962 318.678,476.844C331.757,472.845 331.862,473.478 345.506,473.33Z" style="fill:rgb(203,32,35);"/>
        <path d="M441.842,859.433C437.004,835.937 436.479,832.537 436.623,830.521C437.04,824.648 462.438,829.801 464.084,831.83C467.047,835.483 455.814,868.271 451.564,868.879C444.619,869.872 442.12,860.481 441.842,859.433Z" style="fill:rgb(46,141,184);"/>
        <path d="M476.831,278.401C477.279,277.841 481.13,273.024 483.397,272.294C496.818,267.969 496.282,266.64 497.483,266.419C510.109,264.09 518.954,268.407 520.631,269.226C527.958,272.802 524.486,276.085 520.143,286.348C515.852,296.488 512.479,292.198 502.3,287.916C488.602,282.155 478.741,281.841 476.831,278.401Z" style="fill:rgb(203,32,35);"/>
        <path d="M241.117,935.519C241.092,934.636 240.84,925.657 241.463,924.476C243.188,921.206 275.37,925.916 279.459,927.595C280.774,928.135 284.116,929.823 273.042,944.163C267.926,950.789 264.63,948.328 245.409,944.91C240.002,943.949 241.225,937.248 241.117,935.519Z" style="fill:rgb(45,144,189);"/>
        <path d="M518.6,410.133C526.823,412.719 530.052,411.984 528.773,420.538C527.236,430.823 526.882,430.777 527.628,440.498C527.95,444.684 525.526,443.225 511.497,444.45C492.224,446.131 502.909,429.51 503.318,428.445C510.28,410.325 511.394,408.605 518.6,410.133Z" style="fill:rgb(20,119,111);"/>
        <path d="M163.43,909.224C155.076,911.676 151.541,914.351 149.821,906.433C143.863,879.006 144.355,878.613 145.548,877.546C155.394,868.741 156.857,874.371 162.624,880.38C173.06,891.255 178.351,892.071 171.113,905.284C169.331,908.536 164.403,908.954 163.43,909.224Z" style="fill:rgb(74,154,97);"/>
        <path d="M216.58,633.799C209.023,632.99 200.344,617.598 208.135,612.033C209.863,610.799 229.536,596.746 233.3,603.619C233.685,604.322 240.84,622.928 239.138,625.282C238.586,626.046 231.355,629.515 230.66,629.849C224.011,633.039 223.33,630.645 216.58,633.799Z" style="fill:rgb(38,138,187);"/>
        <path d="M288.915,496.412C289.321,489.486 299.285,486.709 305.264,480.285C311.681,473.391 316.535,487.548 316.856,488.293C322.017,500.27 325.273,503.901 319.278,507.093C312.861,510.51 313.329,511.077 307.39,515.351C302.124,519.141 290.257,499.749 288.915,496.412Z" style="fill:rgb(204,31,33);"/>
        <path d="M250.592,543.959C264.185,540.054 266.938,539.449 271.773,550.367C276.824,561.772 282.021,565.911 273.224,570.032C271.98,570.614 258.796,576.789 257.448,576.791C255.312,576.794 246.818,555.016 246.506,553.499C244.684,544.625 247.507,545.005 250.592,543.959Z" style="fill:rgb(41,72,147);"/>
        <path d="M371.714,326.221C372.182,326.63 379.094,331.091 377.032,335.297C366.192,357.405 365.568,357.732 363.497,357.517C362.978,357.463 339.567,348.844 339.229,347.622C338.514,345.038 339.718,345.067 362.516,323.517C365.47,320.725 369.94,324.98 371.714,326.221Z" style="fill:rgb(88,76,100);"/>
        <path d="M243.672,620.435C239.794,611.023 235.291,603.607 241.709,600.957C254.552,595.654 259.139,598.511 265.263,605.691C271.927,613.506 273.9,615.377 266.79,622.773C260.127,629.706 259.354,632.959 255.722,631.101C248.277,627.292 247.178,628.129 243.672,620.435Z" style="fill:rgb(39,138,187);"/>
        <path d="M314.838,230.427C314.647,227.828 314.016,227.725 315.357,225.408C316.459,223.504 341.968,218.951 343.55,219.317C344.955,219.642 344.28,225.898 344.218,226.469C343.026,237.528 342.726,237.968 334.128,245.093C325.225,252.473 326.07,258.11 323.222,260.028C321.18,261.403 320.958,259.328 314.838,230.427Z" style="fill:rgb(68,93,147);"/>
        <path d="M415.914,849.58C419.028,831.512 421.971,819.992 428.641,823.245C432.418,825.088 441.751,862.393 437.226,867.259C434.747,869.924 417.628,860.358 417.61,860.344C413.162,856.786 415.668,851.081 415.914,849.58Z" style="fill:rgb(75,155,98);"/>
        <path d="M417.07,516.892C419.832,517.683 420.722,517.591 420.164,520.452C414.658,548.722 412.857,549.24 410.506,548.785C398.9,546.539 389.475,551.451 390.962,544.547C391.88,540.288 397.262,520.081 401.542,516.552C406.62,512.363 413.918,517.108 417.07,516.892Z" style="fill:rgb(40,139,186);"/>
        <path d="M103.596,876.738C104.964,876.277 114.324,872.563 120.482,872.755C126.751,872.951 138.752,881.807 139.427,882.569C141.15,884.514 140.896,886.092 123.785,896.977C115.119,902.49 113.004,902.215 107.134,893.739C99.65,882.933 97.558,879.631 103.596,876.738Z" style="fill:rgb(202,42,41);"/>
        <path d="M268.546,601.464C268.251,601.017 259.082,587.669 258.794,580.492C258.644,576.759 278.112,569.918 281.196,572.906C292.138,583.51 292.237,588.835 292.268,590.498C292.345,594.694 274.655,607.982 268.546,601.464Z" style="fill:rgb(40,72,149);"/>
        <path d="M384.613,511.84C390.052,510.39 390.007,510.347 390.488,510.274C401.64,508.592 389.252,551.422 377.413,546.68C374.628,545.564 366.429,525.801 365.884,524.362C363.727,518.67 366.238,517.956 384.613,511.84Z" style="fill:rgb(204,33,34);"/>
        <path d="M279.896,967.501C280.043,962.756 279.907,962.761 280.055,962.378C280.669,960.783 280.925,960.729 299.528,953.586C305.332,951.357 306.694,953.327 307.036,953.821C308.742,956.289 313.7,974.288 313.689,974.513C313.58,976.583 312.975,977.215 288.524,980.667C276.952,982.301 279.638,976.508 279.896,967.501Z" style="fill:rgb(45,143,187);"/>
        <path d="M279.93,493.523C279.682,494.429 275.421,512.629 271.471,511.814C260.11,509.468 260.07,510.465 248.517,509.344C244.694,508.973 244.564,506.798 251.745,484.58C252.423,482.482 254.131,479.714 278.343,491.803C279.843,492.552 279.382,492.928 279.93,493.523Z" style="fill:rgb(41,71,146);"/>
        <path d="M393.443,447.833C382.348,443.938 382.857,443.024 372.76,437.082C370.2,435.575 370.902,433.556 396.588,408.594C407.173,398.307 402.8,413.548 401.668,419.537C396.96,444.454 399.207,447.399 393.443,447.833Z" style="fill:rgb(87,75,99);"/>
        <path d="M211.794,927.617C212.608,925.777 213.88,917.072 220.534,918.293C221.227,918.42 230.951,919.683 233.233,922.685C234.998,925.007 236.154,945.478 235.916,947.547C234.508,959.799 214.222,943.427 213.763,943.112C206.25,937.951 208.509,936.057 211.794,927.617Z" style="fill:rgb(44,77,146);"/>
        <path d="M464.495,404.742C469.455,404.52 478.29,402.731 480.145,410.587C480.935,413.937 453.151,432.735 449.632,428.373C436.26,411.802 436.294,410.866 437.668,409.749C438.429,409.13 438.489,409.25 449.505,406.525C456.86,404.706 456.853,405.19 464.495,404.742Z" style="fill:rgb(19,118,113);"/>
        <path d="M89.883,856.406C88.308,848.16 92.237,849.608 99.232,845.089C113.186,836.074 112.329,846.722 117.09,862.628C119.596,870.999 113.271,871.215 105.403,873.011C93.049,875.829 93.85,870.489 89.883,856.406Z" style="fill:rgb(47,141,186);"/>
        <path d="M420.562,741.897C425.651,741.705 424.693,743.719 426.564,748.477C426.719,748.872 430.34,755.549 429.866,762.536C429.078,774.166 410.385,771.319 408.434,770.64C405.065,769.468 400.915,750.659 401.055,749.444C401.246,747.781 401.346,746.916 420.562,741.897Z" style="fill:rgb(44,74,144);"/>
        <path d="M468.092,813.466C467.651,817.258 468.667,825.822 462.497,825.812C443.47,825.78 436.22,825.432 437.719,817.541C438.372,814.103 446.163,808.875 459.324,798.229C466.026,792.809 467.682,794.275 468.256,794.783C469.71,796.069 469.779,799.286 468.092,813.466Z" style="fill:rgb(44,143,184);"/>
        <path d="M396.778,928.07C408.636,935.873 399.857,938.942 388.206,947.068C374.675,956.504 374.222,949.042 373.831,947.402C369.933,931.063 368.838,929.446 375.215,925.112C377.993,923.223 382.407,919.435 384.44,919.839C386.967,920.342 392.387,925 396.778,928.07Z" style="fill:rgb(240,169,40);"/>
        <path d="M403.39,659.359C397.621,663.741 395.815,664.354 391.899,658.274C381.421,642.006 378.882,640.588 383.837,635.84C393.13,626.936 396.535,626.494 404.05,636.876C413.764,650.297 415.055,651.413 412.313,653.252C408.46,655.836 408.326,655.527 403.39,659.359Z" style="fill:rgb(19,115,109);"/>
        <path d="M411.567,813.115C410.104,812.804 401.086,812.985 400.631,805.493C400.436,802.292 404.666,783.861 404.724,783.534C406.525,773.377 411.197,777.325 423.295,783.914C428.616,786.812 426.341,790.937 417.004,811.287C415.63,814.28 414.85,813.301 411.567,813.115Z" style="fill:rgb(46,77,146);"/>
        <path d="M524.623,303.248C522.716,302.228 516.409,300.503 518.646,296.58C524.37,286.548 526.41,277.548 528.672,275.75C529.9,274.774 531.303,273.659 544.302,287.587C544.92,288.249 547.393,298.715 545.725,302.558C542.72,309.48 541.851,313.788 537.711,311.018C531.343,306.757 531.442,306.812 524.623,303.248Z" style="fill:rgb(203,32,35);"/>
        <path d="M549.832,255.619C548.933,257.134 547.76,259.11 534.442,271.363C531.018,274.513 530.659,271.482 518.261,264.828C516.884,264.089 517.083,263.552 521.813,245.619C524.644,234.885 549.968,251.265 550.079,254.487C550.092,254.873 549.819,255.233 549.832,255.619Z" style="fill:rgb(63,144,88);"/>
        <path d="M518.205,319.274C521.806,313.878 521.921,314.036 526.668,309.663C531.06,305.618 540.177,317.128 538.615,322.533C538.079,324.385 525.09,342.709 523.394,344.388C522.438,345.334 520.765,346.992 508.618,336.373C505.357,333.522 508.982,330.644 518.205,319.274Z" style="fill:rgb(202,34,35);"/>
        <path d="M272.355,530.618C272.476,528.784 273.58,512.101 279.647,508.831C282.841,507.109 301.667,512.973 301.097,520.472C299.859,536.759 295.916,536.978 294.491,537.057C287.478,537.445 276.083,534.328 272.355,530.618Z" style="fill:rgb(205,32,33);"/>
        <path d="M141.612,890.145C147.864,893.396 146.145,914.638 143.047,919.208C141.814,921.026 137.699,929.192 132.609,924.375C117.979,910.529 116.524,907.295 120.663,903.678C121.998,902.512 124.108,900.668 138.668,890.775C139.797,890.008 139.864,890.311 141.612,890.145Z" style="fill:rgb(207,47,42);"/>
        <path d="M514.609,608.842C516.71,608.633 517.972,608.086 523.161,613.775C523.6,614.257 527.539,618.574 527.889,620.413C528.183,621.958 528.314,622.644 516.107,636.152C512.718,639.903 507.341,650.634 501.843,637.349C498.19,628.522 494.381,626.587 502.162,621.042C509.41,615.878 506.513,612.565 514.609,608.842Z" style="fill:rgb(63,144,87);"/>
        <path d="M82.873,830.442C81.455,817.934 81.347,817.96 81.325,815.5C81.272,809.534 85.451,812.193 99.539,818.419C107.605,821.983 106.042,823.8 107.07,832.539C107.663,837.576 99.909,840.487 91.332,845.215C84.913,848.754 85.159,841.276 82.873,830.442Z" style="fill:rgb(45,76,144);"/>
        <path d="M155.137,677.424C154.503,679.268 150.133,691.978 142.219,698.098C137.743,701.56 122.929,686.525 124.716,683.623C131.13,673.206 158.134,656.744 155.137,677.424Z" style="fill:rgb(45,140,186);"/>
        <path d="M136.573,846.073C137.233,846.265 139.262,846.051 141.621,850.435C145.09,856.88 145.394,856.557 149.13,862.726C154.337,871.325 142.96,875.43 140.403,874.901C126.023,871.927 122.971,872.826 119.955,858.441C119.469,856.125 127.446,848.648 136.573,846.073Z" style="fill:rgb(75,153,96);"/>
        <path d="M557.561,256.929C557.762,256.948 560.772,256.289 564.31,260.651C564.726,261.164 570.103,270.591 569.762,272.552C569.234,275.596 549.369,289.767 543.41,283.58C543.202,283.364 536.536,275.288 536.278,274.587C535.486,272.429 547.837,260.475 557.561,256.929Z" style="fill:rgb(64,143,87);"/>
        <path d="M537.754,645.697C524.619,663.481 523.795,665.713 520.848,663.078C508.21,651.779 505.721,650.974 508.811,647.769C524.303,631.701 524.003,627.822 527.35,630.696C539.886,641.456 539.656,642.091 539.183,643.397C539.183,643.397 537.869,645.513 537.754,645.697Z" style="fill:rgb(65,144,87);"/>
        <path d="M113.614,792.883C114.052,792.763 119.929,790.093 122.316,792.65C123.798,794.238 126.975,817.611 126.984,818.506C127.022,822.397 116.556,823.632 111.672,821.148C99.852,815.136 100.978,811.59 101.338,810.457C107.625,790.651 111.707,793.43 113.614,792.883Z" style="fill:rgb(235,129,41);"/>
        <path d="M454.382,608.385C456.337,606.092 456.282,606.194 457.918,603.787C461.338,598.755 460.317,606.166 473.251,620.705C486.567,635.674 438.933,633.858 442.473,625.493C447.451,613.728 450.331,611.969 454.382,608.385Z" style="fill:rgb(63,145,88);"/>
        <path d="M107.842,745.435C107.618,743.993 107.596,744.024 104.938,727.432C103.567,718.873 112.184,724.731 117.588,727.289C125.836,731.192 129.35,730.824 126.911,739.617C122.898,754.089 123.567,758.041 118.547,759.658C110.346,762.299 110.381,756.141 107.842,745.435Z" style="fill:rgb(46,140,183);"/>
        <path d="M82.882,763.578C85.896,749.819 85.98,748.19 87.291,747.192C89.373,745.607 109.657,747.569 106.878,758.611C106.378,760.599 89.477,779.951 89.306,780.014C77.593,784.345 80.857,775.963 82.882,763.578Z" style="fill:rgb(26,122,112);"/>
        <path d="M536.826,332.666C543.437,320.801 542.875,320.507 543.609,319.584C544.336,318.672 545.847,316.773 557.172,324.929C559.416,326.546 566.256,328.045 553.076,349.255C549.232,355.441 546.226,348.482 539.339,344.846C532.49,341.23 533.381,339.346 536.826,332.666Z" style="fill:rgb(65,145,88);"/>
        <path d="M479.011,373.496C478.167,374.029 477.323,374.561 476.48,375.094C474.733,375.279 470.33,374.879 452.487,378.411C448.149,379.269 447.142,374.309 447.131,373.531C447.059,368.41 447.373,368.494 446.474,363.504C445.585,358.567 461.903,359.659 471.412,356.304C472.83,355.803 479.529,353.439 479.011,373.496Z" style="fill:rgb(200,35,35);"/>
        <path d="M445.551,633.93C450.087,634.22 449.921,634.696 454.485,634.895C463.728,635.298 468.32,631.039 468.085,639.477C467.796,649.832 468.145,649.813 467.804,650.638C467.618,651.088 457.763,652.398 438.494,651.751C434.198,651.607 433.663,650.014 435.282,638.467C436.212,631.834 438.855,634.144 445.551,633.93Z" style="fill:rgb(63,145,88);"/>
        <path d="M383.923,793.451C380.651,775.371 380.996,775.3 381.441,774.464C382.422,772.62 386.015,770.56 386.318,770.326C394.243,764.217 394.471,764.588 395.155,764.056C402.019,758.718 400.829,767.653 398.69,792.517C398.048,799.98 388.488,803.203 388.473,803.204C383.511,803.524 383.986,794.014 383.923,793.451Z" style="fill:rgb(70,150,93);"/>
        <path d="M270.312,530.307C263.622,536.127 262.034,532.737 251.285,538.103C244.424,541.529 245.833,535.995 242.959,518.466C241.995,512.585 254.862,513.51 263.462,513.142C268.53,512.925 269.909,518.044 270.312,530.307Z" style="fill:rgb(39,71,147);"/>
        <path d="M216.826,737.501C216.857,737.232 216.169,734.872 220.568,730.563C234.714,716.705 234.291,713.667 237.384,715.702C245.466,721.022 245.999,722.128 243.682,731.561C241.421,740.758 231.085,748.299 226.598,746.268C218.422,742.567 217.641,742.635 216.826,737.501Z" style="fill:rgb(35,139,186);"/>
        <path d="M447.473,383.868C450.814,384.229 451.856,384.084 452.077,388.506C452.672,400.391 454.4,404.399 442.512,405.718C432.9,406.785 424.838,400.984 424.773,398.493C424.502,388.15 422.07,383.676 432.498,383.625C438.109,383.598 437.994,383.666 447.473,383.868Z" style="fill:rgb(40,74,151);"/>
        <path d="M602.458,223.858C614.101,225.863 614.655,227.78 617.093,239.567C617.669,242.351 616.946,249.192 611.537,248.986C596.847,248.424 587.878,252.798 591.593,238.524C595.286,224.332 597.267,224.031 598.553,223.835C598.862,223.788 598.842,223.837 602.458,223.858Z" style="fill:rgb(205,35,39);"/>
        <path d="M218.497,679.497C220.565,677.295 224.663,671.816 227.407,672.805C233.318,674.936 233.494,673.761 239.523,675.44C241.415,675.967 241.858,677.123 234.308,699.435C231.275,708.398 227.705,703.711 220.904,697.041C214.779,691.036 210.818,689.562 218.497,679.497Z" style="fill:rgb(38,136,185);"/>
        <path d="M485.632,367.446C485.179,366.302 483.881,363.617 481.441,355.516C480.897,353.707 481.515,353.416 500.789,341.98C509.122,337.036 515.06,352.562 513.372,354.386C509.497,358.57 496.785,365.271 495.26,366.076C488.351,369.717 487.375,370.434 485.632,367.446Z" style="fill:rgb(200,35,36);"/>
        <path d="M441.434,889.457C428.906,910.742 425.995,909.766 424.986,908.055C423.962,906.319 420.733,876.263 428.432,874.268C431.799,873.396 451.998,870.633 446.641,880.578C445.945,881.87 445.933,881.842 441.434,889.457Z" style="fill:rgb(43,75,143);"/>
        <path d="M577.103,428.474C576.706,436.219 577.721,441.096 569.682,438.009C553.811,431.915 554.977,429.806 553.145,424.598C552.956,424.059 552.572,415.12 555.298,414.084C556.744,413.534 556.889,414.59 574.512,411.84C578.081,411.283 577.591,412.896 577.539,416.501C577.45,422.55 577.322,422.458 577.103,428.474Z" style="fill:rgb(18,117,111);"/>
        <path d="M193.649,646.195C193.095,645.911 188.468,643.74 187.636,642.428C186.913,641.287 186.725,640.991 193.961,626.759C197.406,619.984 200.005,622.293 205.097,627.936C213.846,637.631 214.345,637.011 215.092,637.853C215.889,638.753 218.951,642.206 211.351,652.405C209.388,655.04 200.133,649.387 193.649,646.195Z" style="fill:rgb(39,138,185);"/>
        <path d="M314.191,943.424C311.836,950.862 308.538,946.132 295.287,933.719C292.818,931.406 286.81,927.698 292.567,924.625C313.905,913.234 314.939,914.207 316.295,915.714C319.059,918.784 314.866,939.698 314.191,943.424Z" style="fill:rgb(44,75,144);"/>
        <path d="M82.536,785.829C84.273,785.782 101.373,785.315 104.234,786.8C106.812,788.138 104.39,793.791 104.152,794.346C97.402,810.103 97.106,812.466 91.453,810.645C82.631,807.803 79.733,808.787 79.618,799.497C79.524,791.948 78.126,787.304 82.536,785.829Z" style="fill:rgb(43,74,146);"/>
        <path d="M330.408,973.143C328.554,973.604 321.246,977.437 319.137,971.637C313.436,955.959 314.012,954.909 314.726,953.606C320.793,942.538 326.252,948.942 336.394,957.617C342.624,962.947 348.856,967.514 337.401,971.158C336.847,971.334 336.883,971.305 330.408,973.143Z" style="fill:rgb(44,77,145);"/>
        <path d="M480.561,374.954C505.133,366.661 523.752,356.738 517.075,367.238C515.446,369.8 489.491,393.349 487.535,392.44C487.065,392.222 485.98,389.687 483.157,385.752C480.089,381.476 480.033,381.582 478.889,377.433C479.446,376.607 480.004,375.78 480.561,374.954Z" style="fill:rgb(39,73,148);"/>
        <path d="M195.453,652.853C207.039,654.744 209.416,654.591 212.916,659.222C215.956,663.244 219.325,663.301 218.022,668.377C214.031,683.934 211.629,683.102 210.503,682.496C209.455,681.931 209.799,681.688 199.802,672.164C197.829,670.284 182.196,651.004 190.523,652.114C192.17,652.333 193.806,652.633 195.453,652.853Z" style="fill:rgb(39,138,187);"/>
        <path d="M441.142,665.737C439.419,663.011 439.242,663.243 438,660.317C435.847,655.247 466.728,651.143 471.49,655.512C475.278,658.988 457.124,673.81 455.23,675.063C446.398,680.907 446.582,674.789 441.142,665.737Z" style="fill:rgb(63,145,89);"/>
        <path d="M343.924,244.505C344.907,235.341 345.834,235.588 347.482,226.495C349.23,216.852 369.257,242.982 368.563,246.513C368.399,247.344 346.731,257.946 345.524,257.265C343.936,256.37 343.925,245.534 343.924,244.505Z" style="fill:rgb(90,76,101);"/>
        <path d="M276.497,960.07C273.273,959.26 267.667,955.401 272.979,948.9C283.024,936.606 282.045,930.962 289.267,934.984C290.613,935.734 309.532,946.269 301.632,949.75C289.177,955.239 289.238,955.218 276.497,960.07Z" style="fill:rgb(43,76,143);"/>
        <path d="M314.554,243.824C316.55,246.96 322.916,282.422 318.637,284.726C315.971,286.161 292.83,291.471 306.941,260.689C310.616,252.673 310.371,252.681 313.657,244.61C313.983,243.811 314.234,244.104 314.554,243.824Z" style="fill:rgb(66,91,147);"/>
        <path d="M485.913,676.438C486.033,675.613 486.683,671.148 491.677,667.75C503.748,659.537 500.208,645.14 505.291,651.809C509.835,657.773 511.181,656.471 515.569,662.456C516.68,663.972 516.364,664.658 500.433,680.422C493.865,686.921 488.034,681.982 485.913,676.438Z" style="fill:rgb(65,146,88);"/>
        <path d="M371.648,660.048C368.317,658.66 368.317,658.898 365.195,656.995C354.919,650.731 350.102,648.151 358.805,639.823C364.117,634.74 365.457,631.029 370.047,636.839C376.273,644.719 384.857,653.123 384.253,656.467C382.653,665.321 372.05,660.159 371.648,660.048Z" style="fill:rgb(203,38,36);"/>
        <path d="M511.157,691.493C511.307,677.036 511.291,675.641 511.824,674.68C517.757,663.978 520.428,667.203 521.01,667.906C528.786,677.293 526.562,678.5 526.612,680.496C526.73,685.317 532.411,689.301 530.002,694.259C526.844,700.76 525.735,700.101 518.511,700.744C517.443,700.839 511.806,698.274 511.157,691.493Z" style="fill:rgb(68,144,88);"/>
        <path d="M314.233,374.475C315.204,370.891 314.624,370.701 316.829,367.726C326.171,355.115 328.994,353.996 330.464,353.413C334.478,351.821 336.864,351.752 342.272,363.603C346.36,372.564 341.745,372.438 336.444,373.293C329.142,374.47 314.906,384.311 314.233,374.475Z" style="fill:rgb(79,162,113);"/>
        <path d="M543.517,683.915C537.373,683.102 539.87,679.836 529.656,668.365C526.956,665.333 530.615,665.348 535.89,655.706C538.334,651.24 539.792,654.361 547.198,661.818C559.537,674.24 555.842,682.314 543.517,683.915Z" style="fill:rgb(65,144,87);"/>
        <path d="M479.024,389.541C476.606,400.667 456.66,403.795 455.84,399.423C452.454,381.359 454.043,380.912 455.501,380.502C456.951,380.094 472.557,375.706 474.245,378.652C474.398,378.92 477.599,385.246 479.024,389.541Z" style="fill:rgb(39,71,148);"/>
        <path d="M300.791,743.338C303.56,749.524 300.888,751.62 295.165,757.08C294.243,757.959 286.552,760.403 282.967,755.161C277.141,746.641 273.027,743.441 277.611,739.616C280.973,736.81 280.356,736.369 283.32,733.164C283.78,732.666 284.382,732.015 291.395,735.754C296.835,738.655 297.27,738.2 300.791,743.338Z" style="fill:rgb(37,136,184);"/>
        <path d="M135.107,843.416C119.604,853.839 118.01,850.968 117.276,849.647C116.668,848.552 110.024,830.781 111.817,827.661C113.306,825.068 127.517,825.281 128.281,825.82C130.728,827.547 135.91,837.66 135.107,843.416Z" style="fill:rgb(234,170,41);"/>
        <path d="M290.533,712.067C301.355,715.868 307.411,713.489 308.12,720.552C309.553,734.819 305.859,734.247 302.434,735.184C293.877,737.524 294.416,733.954 284.235,726.892C281.723,725.15 281.585,724.328 284.988,718.735C288.554,712.875 289.886,712.594 290.533,712.067Z" style="fill:rgb(40,139,188);"/>
        <path d="M390.945,816.463C391.036,815.964 390.639,813.335 393.482,813.631C397.85,814.086 412.081,820.46 413.653,821.164C418.665,823.409 419.118,824.788 415.559,835.521C413.254,842.474 411.557,849.906 406.749,842.326C391.783,818.728 391.707,818.765 390.945,816.463Z" style="fill:rgb(55,83,152);"/>
        <path d="M473.064,647.516C473.469,641.637 473.867,641.783 476.084,636.335C478.045,631.515 476.933,618.513 484.231,623.868C493.584,630.732 494.51,636.217 496.831,644.435C497.783,647.807 494.195,647.672 480.427,650.056C475.592,650.893 473.508,652.458 473.064,647.516Z" style="fill:rgb(65,145,88);"/>
        <path d="M121.132,768.497C121.529,780.145 125.142,786.134 113.519,785.133C94.367,783.483 94.075,782.041 94.299,780.475C94.371,779.975 102.48,766.576 106.456,765.338C109.858,764.279 117.33,763.22 119.328,763.901C121.978,764.804 120.838,765.657 121.132,768.497Z" style="fill:rgb(26,120,112);"/>
        <path d="M450.98,278.396C450.273,276.825 448.63,273.18 464.716,261.821C465.736,261.101 467.088,258.526 478.482,268.523C482,271.61 479.28,272.308 472.74,279.732C468.408,284.651 467.234,287.75 462.355,284.741C461.468,284.194 453.569,279.323 450.98,278.396Z" style="fill:rgb(63,142,85);"/>
        <path d="M320.863,929.469C320.243,914.59 319.905,914.688 320.134,913.424C321.219,907.434 343.595,914.26 339.91,921.688C339.036,923.45 329.494,942.685 328.465,943.451C323.86,946.877 321.079,930.723 320.863,929.469Z" style="fill:rgb(76,153,99);"/>
        <path d="M570.359,305.812C571.421,306.638 577.432,311.307 569.592,322.61C566.702,326.777 551.343,317.984 548.422,316.657C540.577,313.091 547.45,303.583 549.516,303.638C564.661,304.036 568.758,305.313 570.359,305.812Z" style="fill:rgb(65,146,90);"/>
        <path d="M442.134,366.542C442.951,371.72 444.618,380.158 439.496,380.356C420.678,381.082 413.129,383.783 414.916,368.577C415.362,364.787 421.411,366.158 423.538,365.691C429.036,364.485 439.77,360.274 442.134,366.542Z" style="fill:rgb(198,33,35);"/>
        <path d="M123.451,690.534C124.35,692.426 128.26,700.649 118.075,716.163C115.786,719.649 97.627,719.813 101.719,712.607C102.903,710.522 114.787,689.596 119.494,688.476C121.396,688.023 123.225,690.258 123.451,690.534Z" style="fill:rgb(240,172,40);"/>
        <path d="M544.542,412.48C552.444,432.872 555.661,436.885 551.412,438.207C550.07,438.625 538.534,442.214 533.959,436.121C533.502,435.512 533.894,411.149 537.603,409.79C543.02,407.806 544.153,411.838 544.542,412.48Z" style="fill:rgb(19,116,110);"/>
        <path d="M363.958,731.496C364.455,729.644 364.413,729.64 364.494,729.496C365.278,728.116 379.389,723 379.581,722.972C383.154,722.463 389.785,740.592 386.605,742.627C374.806,750.18 373.694,748.967 372.896,748.097C366.082,740.67 364.298,732.966 363.958,731.496Z" style="fill:rgb(66,146,90);"/>
        <path d="M394.472,882.305C383.229,883.1 389.627,875.144 391.719,873.86C412.303,861.223 412.569,860.841 414.443,861.699C417.412,863.059 422.742,878.353 416.459,879.271C414.702,879.528 414.729,879.48 394.472,882.305Z" style="fill:rgb(77,152,98);"/>
        <path d="M564.559,300.967C554.873,301.47 547.553,304.799 547.908,290.63C548.049,285.009 571.637,282.139 572.876,285.316C573.119,285.939 573.444,299.615 571.445,300.368C570.252,300.817 570.275,300.631 564.559,300.967Z" style="fill:rgb(64,144,88);"/>
        <path d="M590.033,446.559C590.365,448.768 593.712,459.564 586.292,465.204C581.182,469.088 569.644,459.591 571.454,451.488C572.746,445.705 572.809,444.443 585.431,441.272C589.718,440.194 589.154,442.242 590.033,446.559Z" style="fill:rgb(19,116,110);"/>
        <path d="M255.809,446.625C257.718,442.24 257.131,439.504 261.526,441.442C262.854,442.027 274.303,451.466 274.4,451.567C276.193,453.437 273.34,454.386 255.455,471.418C248.232,478.297 255.347,448.554 255.809,446.625Z" style="fill:rgb(65,145,84);"/>
        <path d="M388.52,377.09C381.964,376.829 382.005,376.846 381.439,376.808C378.227,376.59 378.655,362.365 385.536,364.336C396.725,367.541 399.06,366.303 409.478,366.71C414.232,366.895 410.98,376.765 410.706,377.598C409.914,380 408.879,379.372 388.52,377.09Z" style="fill:rgb(198,35,36);"/>
        <path d="M493.342,248.554C496.385,259.296 497.666,265.145 485.478,269.38C479.831,271.343 472.758,253.218 473.73,251.623C474.85,249.786 491.628,244.164 492.908,247.317C493.072,247.722 493.178,248.149 493.342,248.554Z" style="fill:rgb(65,146,89);"/>
        <path d="M563.125,392.575C563.734,401.74 560.187,411.246 555.48,410.671C544.343,409.31 544.296,407.15 544.924,402.554C546.638,390.009 545.833,385.343 558.453,386.81C562.089,387.233 562.949,392.07 563.125,392.575Z" style="fill:rgb(19,118,112);"/>
        <path d="M423.111,495.626C423.647,497.048 427.98,508.546 420.451,514.442C419.097,515.503 402.495,513.927 405.407,506.466C408.669,498.107 412.892,485.923 420.638,490.306C421.586,490.842 421.317,491.041 423.111,495.626Z" style="fill:rgb(37,137,185);"/>
        <path d="M595.417,415.942C599.453,417.084 600.713,415.854 604.68,423.413C610.842,435.153 580.574,437.376 582.441,430.487C585.434,419.442 582.228,413.395 587.516,414.381C588.149,414.499 588.101,414.497 595.417,415.942Z" style="fill:rgb(18,114,109);"/>
        <path d="M449.372,280.01C451.175,281.104 467.314,290.331 468.239,291.666C470.89,295.495 444.35,312.635 444.951,296.496C445.489,282.01 448.158,280.636 449.372,280.01Z" style="fill:rgb(64,142,86);"/>
        <path d="M262.555,768.129C260.046,767.376 258.606,767.324 254.938,754.396C254.579,753.132 253.374,748.886 268.584,745.247C269.946,744.921 276.761,757.383 274.32,762.417C270.893,769.482 265.17,768.099 262.555,768.129Z" style="fill:rgb(37,139,186);"/>
        <path d="M516.139,243.997C517.325,244.321 520.802,245.27 515.083,259.326C513.155,264.063 498.095,264.862 498.086,259.506C498.083,258.165 498.059,244.908 500.869,242.983C504.088,240.777 505.418,246.044 516.139,243.997Z" style="fill:rgb(63,145,88);"/>
        <path d="M568.506,356.304C558.7,355.181 553.804,358.12 552.505,356.496C550.979,354.587 552.566,354.575 555.22,350.315C561.421,340.365 564.298,332.568 567.427,336.573C572.678,343.293 572.225,343.59 578.281,349.701C584.69,356.166 568.9,356.275 568.506,356.304Z" style="fill:rgb(38,139,182);"/>
        <path d="M360.411,723.856C357.863,722.865 357.803,723.015 355.877,721.104C350.305,715.578 350.419,710.934 353.303,700.345C354.466,696.077 365.46,709.588 371.164,713.995C378.582,719.726 371.719,720.27 369.592,720.843C364.82,722.128 365.323,723.9 360.411,723.856Z" style="fill:rgb(66,147,92);"/>
        <path d="M134.089,717.32C130.884,724.867 130.401,732.38 120.593,724.392C117.247,721.666 118.768,720.63 126.309,705.402C131.218,695.491 140.107,700.474 137.234,709.409C135.928,713.471 135.79,713.308 134.089,717.32Z" style="fill:rgb(45,139,182);"/>
        <path d="M396.353,666.715C402.325,672.461 400.464,677.245 400.315,677.387C392.111,685.185 389.767,682.039 380.994,672.087C376.733,667.254 379.979,666.6 385.732,660.796C388.58,657.922 388.755,660.87 396.353,666.715Z" style="fill:rgb(202,41,37);"/>
        <path d="M460.802,587.454C459.843,578.022 460.102,578.108 460.861,568.552C461.323,562.722 465.126,564.009 471.543,565.176C480.381,566.782 476.328,571.322 465.034,590.109C462.17,594.873 460.875,587.847 460.802,587.454Z" style="fill:rgb(65,147,89);"/>
        <path d="M357.491,211.489C361.098,208.969 361.437,208.764 365.382,210.754C377.342,216.788 370.575,224.153 368.02,228.166C363.995,234.487 361.352,229.404 355.727,223.3C349.107,216.116 353.626,214.679 357.491,211.489Z" style="fill:rgb(92,79,104);"/>
        <path d="M294.879,238.433C294.719,237.586 292.629,232.831 296.59,229.619C298.584,228.002 309.917,225.41 310.493,227.503C317.425,252.706 296.886,248.727 294.879,238.433Z" style="fill:rgb(91,78,103);"/>
        <path d="M473.92,237.631C477.699,228.084 479.539,221.04 483.559,225.443C495.55,238.576 497.924,242.007 492.536,242.659C477.553,244.47 472.549,246.509 473.92,237.631Z" style="fill:rgb(41,139,182);"/>
        <path d="M561.385,441.815C567.022,444.344 566.828,445.746 565.013,458.443C563.739,467.357 553.544,466.07 552.82,456.472C551.936,444.762 550.374,437.7 561.385,441.815Z" style="fill:rgb(20,117,110);"/>
        <path d="M376.947,762.38C376.401,760.118 374.404,755.547 376.628,753.662C380.653,750.252 389.202,750.738 390.497,750.484C404.879,747.66 387.35,769.288 382.517,769.386C378.378,769.469 377.094,762.788 376.947,762.38Z" style="fill:rgb(69,152,95);"/>
        <path d="M351.585,365.396C347.341,361.84 347.063,360.951 346.9,360.429C346.72,359.853 346.95,358.668 354.435,359.892C366.648,361.89 366.828,360.388 371.417,361.813C376.976,363.54 375.275,375.524 369.464,374.821C358.961,373.552 352.586,366.233 351.585,365.396Z" style="fill:rgb(193,36,39);"/>
        <path d="M288.432,709.518C287.877,710.234 282.332,717.392 280.514,717.619C274.672,718.347 270.873,705.179 270.567,704.473C268.572,699.868 269.24,699.432 272.837,695.887C273.144,695.584 276.535,691.134 288.432,709.518Z" style="fill:rgb(37,136,186);"/>
        <path d="M275.499,618.498C284.142,631.154 286.258,632.028 283.575,633.6C269.984,641.566 256.096,643.835 264.908,631.817C265.685,630.758 270.415,625.696 275.499,618.498Z" style="fill:rgb(37,132,180);"/>
        <path d="M551.297,628.344C542.834,638.956 541.522,638.022 540.834,637.17C533.212,627.727 534.874,626.312 535.644,625.657C543.429,619.028 551.397,611.146 554.341,619.563C555.86,623.905 551.889,627.513 551.297,628.344Z" style="fill:rgb(65,145,90);"/>
        <path d="M321.879,207.449C323.93,219.347 323.865,219.626 323.037,220.234C322.076,220.939 315.174,222.548 313.663,221.288C312.025,219.924 305.988,209.714 306.952,207.698C308.149,205.192 318.951,196.804 321.879,207.449Z" style="fill:rgb(69,92,147);"/>
        <path d="M229.944,765.362C227.998,754.93 229.873,750.854 242.496,752.574C243.538,752.716 246.459,752.406 244.094,764.43C242.691,771.561 232.65,770.806 229.944,765.362Z" style="fill:rgb(37,135,182);"/>
        <path d="M538.564,350.445C544.495,358.657 538.324,359.638 524.484,361.355C524.086,361.404 518.342,362.117 519.783,359.619C529.293,343.127 530.074,342.814 531.422,343.641C532.355,344.213 538.007,349.886 538.564,350.445Z" style="fill:rgb(65,141,88);"/>
        <path d="M357.931,257.346C357.841,256.33 357.488,252.331 368.484,250.189C371.422,249.617 377.207,262.273 373.48,265.478C364.572,273.138 362.362,268.234 357.931,257.346Z" style="fill:rgb(91,77,102);"/>
        <path d="M556.644,640.116C559.496,641.741 560.819,641.677 560.011,649.448C559.469,654.652 557.323,655.649 543.576,651.208C540.124,650.093 546.064,637.044 549.438,637.849C550.026,637.989 549.972,638.017 556.644,640.116Z" style="fill:rgb(65,145,90);"/>
        <path d="M95.585,743.13C90.852,741.655 90.865,741.711 90.473,741.537C87.462,740.2 96.138,721.391 98.482,721.844C102.433,722.607 101.888,723.904 103.641,737.484C104.672,745.466 100.875,743.957 95.585,743.13Z" style="fill:rgb(75,153,101);"/>
        <path d="M419.465,396.086C404.388,397.186 398.846,385.84 400.715,384.99C401.139,384.797 419.979,383.763 421.307,384.749C422.254,385.453 422.055,392.776 422.035,393.476C421.957,396.344 419.884,395.963 419.465,396.086Z" style="fill:rgb(37,67,138);"/>
        <path d="M352.267,885.337C357.768,878.618 357.462,878.531 362.91,871.873C366.778,867.146 371.891,873.318 372.758,876.449C374.061,881.154 354.173,889.788 353.466,889.754C349.706,889.574 352.077,885.65 352.267,885.337Z" style="fill:rgb(29,127,104);"/>
        <path d="M332.871,684.528C333.387,682.478 333.604,681.612 335.397,682.731C340.587,685.969 340.1,686.461 345.186,689.901C352.433,694.801 350.687,706.748 347.812,704.092C336.101,693.271 333.051,694.476 332.871,684.528Z" style="fill:rgb(65,141,88);"/>
        <path d="M460.3,447.627C464.746,453.966 466.869,456.351 462.509,456.649C457.34,457.001 449.573,461.317 450.697,455.525C451.156,453.159 451.663,450.803 452.14,448.44C453.16,443.387 453.144,435.877 456.129,440.745C456.466,441.294 456.438,441.255 460.3,447.627Z" style="fill:rgb(21,115,109);"/>
        <path d="M345.071,206.495C344.101,214.095 340.815,211.221 330.475,212.094C327.024,212.385 326.815,200.851 336.509,201.33C342.467,201.625 344.384,200.595 345.071,206.495Z" style="fill:rgb(88,74,99);"/>
        <path d="M401.406,691.642C397.911,689.185 395.988,689.506 397.492,685.498C397.687,684.979 398.996,681.491 401.635,679.951C406.497,677.114 418.503,702.162 401.406,691.642Z" style="fill:rgb(186,35,36);"/>
        <path d="M479.011,373.496L480.561,374.954C480.004,375.78 479.446,376.607 478.889,377.433C478.675,377.184 478.953,376.708 478.739,376.458C478.523,376.206 478.011,376.402 477.793,376.153C477.349,375.646 478.021,375.474 477.531,375.079C477.056,374.696 476.955,375.477 476.48,375.094C477.323,374.561 478.167,374.029 479.011,373.496Z" style="fill:rgb(187,165,175);"/>
    </g>
</svg>
