<?xml version="1.0" encoding="UTF-8" standalone="no"?>
<!DOCTYPE svg PUBLIC "-//W3C//DTD SVG 1.1//EN" "http://www.w3.org/Graphics/SVG/1.1/DTD/svg11.dtd">
<svg width="100%" height="100%" viewBox="0 0 1024 1024" version="1.1" xmlns="http://www.w3.org/2000/svg" xmlns:xlink="http://www.w3.org/1999/xlink" xml:space="preserve" xmlns:serif="http://www.serif.com/" style="fill-rule:evenodd;clip-rule:evenodd;stroke-linejoin:round;stroke-miterlimit:2;">
    <g>
        <path d="M438.595,500.848C453.29,496.707 459.975,494.012 469.451,495.754C471.136,496.064 486.078,497.412 486.558,503.496C487.758,518.721 485.734,519.282 503.467,569.511C507.339,580.478 500.241,608.787 500.015,609.248C498.081,613.17 496.68,611.581 447.39,624.027C442.439,625.277 442.582,623.538 415.294,609.909C384.975,594.765 380.322,596.831 379.467,583.502C378.842,573.749 369.541,576.377 367.957,573.312C366.467,570.429 367.782,533.015 367.905,529.513C368.227,520.337 379.228,524.977 383.547,523.732C388.928,522.181 386.602,520.11 388.637,511.538C389.716,506.991 397.815,496.308 404.244,501.797C414.362,510.437 416.001,507.599 438.595,500.848ZM461.466,544.931C457.701,545.145 441.038,543.352 441.927,575.484C442.536,597.472 469.014,590.279 473.172,588.006C477.611,585.579 488.067,550.491 461.466,544.931Z" style="fill:rgb(20,146,92);"/>
        <path d="M658.141,608.595C657.577,602.51 658.623,598.922 661.279,582.466C669.853,529.329 664.569,524.139 672.497,524.073C702.473,523.825 739.463,519.644 755.06,541.812C766.85,558.569 764.68,620.525 764.646,620.593C762.284,625.26 707.887,621.124 696.469,619.725C661.984,615.501 659.693,611.385 658.141,608.595ZM736.962,558.414C736.664,557.243 734.338,548.126 730.119,544.949C699.896,522.189 679.943,590.553 715.515,591.203C740.241,591.654 739.46,583.043 736.962,558.414Z" style="fill:rgb(20,144,91);"/>
        <path d="M608.478,820.522C605.407,816.009 606.841,815.557 604.989,789.473C604.195,778.28 604.171,776.569 614.528,772.574C644.019,761.199 635.931,727.421 640.788,722.832C644.783,719.057 681.913,719.368 685.5,719.398C703.656,719.55 680.848,753.106 707.247,767.953C710.782,769.942 709.747,771.281 703.643,818.523C703.227,821.745 702.741,824.639 671.49,823.745C613.045,822.073 612.812,823.109 608.478,820.522Z" style="fill:rgb(21,144,92);"/>
        <path d="M268.921,533.526C270.6,515.034 271.046,500.986 274.707,498.81C277.977,496.865 293.439,497.105 300.506,496.597C320.844,495.134 320.769,495.051 322.532,494.928C332.381,494.242 332.384,503.406 334.059,515.559C334.621,519.634 341.058,566.318 341.062,566.501C341.272,576.024 312.476,616.257 312.364,616.354C306.763,621.204 265.491,610.558 264.893,608.373C264.874,608.303 268.646,538.204 268.921,533.526ZM322.945,587.574C328.532,525.649 311.659,527.83 301.564,529.814C297.223,530.668 284.927,533.085 288.329,583.513C289.856,606.14 318.181,608.537 322.945,587.574Z" style="fill:rgb(22,144,93);"/>
        <path d="M625.714,652.4C612.961,628.34 603.979,624.042 613.606,621.904C647.57,614.364 650.7,616.26 698.578,626.273C704.775,627.569 700.345,638.77 696.992,659.574C692.174,689.475 697.25,709.205 691.439,713.409C688.847,715.284 688.597,714.601 651.507,715.727C628.013,716.44 645.441,699.555 625.714,652.4Z" style="fill:rgb(52,51,132);"/>
        <path d="M467.919,800.58C467.077,805.615 467.199,819.148 459.503,819.252C400.654,820.045 370.94,821.813 369.901,816.441C368.821,810.863 368.556,769.577 368.529,765.5C368.441,751.764 371.545,751.88 396.387,739.275C403.844,735.491 400.6,757.263 453.45,769.7C453.833,769.79 469.33,772.162 471.328,775.589C472.812,778.133 468.88,795.667 467.919,800.58Z" style="fill:rgb(21,144,93);"/>
        <path d="M367.076,672.49C367.158,670.25 367.808,652.537 368.004,644.489C368.774,613.039 364.366,609.202 373.523,606.57C377.547,605.413 379.076,600.06 380.262,599.122C381.855,597.863 429.354,623.102 432.271,624.852C446.312,633.272 392.071,646.498 398.173,727.539C398.798,735.843 372.215,747.066 369.167,743.813C365.902,740.329 366.977,678.197 367.076,672.49Z" style="fill:rgb(53,52,131);"/>
        <path d="M509.063,588.448C512.064,571.694 515.82,573.457 531.458,566.407C537.4,563.728 534.157,574.403 535.548,581.491C538.84,598.275 574.075,601.378 575.051,578.474C576.349,547.995 562.049,545.725 561.748,545.334C557.417,539.718 571.422,544.831 606.431,558.663C615.656,562.308 614.009,564.473 614.218,574.513C614.647,595.126 645.5,591.244 650.252,583.333C650.477,582.958 656.894,572.276 655.65,582.509C652.375,609.447 650.892,610.615 644.497,611.472C604.994,616.765 605.284,621.339 598.396,618.858C564.173,606.532 549.351,608.256 513.504,610.599C504.111,611.213 507.638,602.175 509.063,588.448Z" style="fill:rgb(126,49,114);"/>
        <path d="M487.499,819.804C476.448,819.319 476.497,819.489 475.564,819.28C472.458,818.584 468.849,817.274 477.635,779.541C480.748,766.174 495.934,785.893 593.515,777.692C600.43,777.111 599.867,783.36 600.336,816.496C600.412,821.884 595.121,821.713 594.496,821.693C554.945,820.42 555.09,820.131 487.499,819.804Z" style="fill:rgb(123,50,113);"/>
        <path d="M704.919,642.578C706.092,637.955 706.105,626.645 716.5,626.513C764.376,625.904 765.551,628.491 765.901,632.456C766.311,637.113 770.813,724.671 770.831,725.535C770.929,730.034 753.637,730.237 749.905,727.097C747.524,725.093 748.747,724.492 748.121,711.522C745.053,647.919 706.849,673.172 702.555,678.547C695.936,686.833 700.729,667.144 704.919,642.578Z" style="fill:rgb(208,36,38);"/>
        <path d="M711.95,791.56C712.137,790.264 714.078,773.784 715.575,771.555C717.082,769.31 717.706,770.577 723.5,770.495C754.501,770.054 747.694,739.058 749.782,735.651C752.009,732.017 769.238,734.729 769.41,734.786C771.648,735.522 771.976,745.553 772.007,746.513C774.024,808.123 770.274,807.886 770.093,808.328C768.238,812.87 763.271,825.025 710.572,823.127C707.55,823.019 707.923,820.92 711.95,791.56Z" style="fill:rgb(127,49,114);"/>
        <path d="M256.939,754.519C257.888,735.287 257.827,724.992 259.539,723.555C260.818,722.482 270.894,722.8 275.421,723.807C285.9,726.14 274.918,751.302 285.692,763.337C301.04,780.483 319.203,762.358 319.342,773.504C319.421,779.758 310.788,816.379 310.68,816.598C309.606,818.763 308.967,819.101 280.494,817.607C250.874,816.053 254.931,793.91 256.939,754.519Z" style="fill:rgb(23,107,69);"/>
        <path d="M258.885,712.521C261.101,668.787 261.263,669.004 264.01,625.472C264.299,620.895 261.442,615.281 272.537,617.297C311.905,624.451 312.681,627.164 324.064,638.914C330.58,645.64 323.216,672.677 320.391,670.68C318.862,669.599 307.983,661.905 297.404,666.255C266.249,679.066 292.152,720.615 272.482,718.693C261.26,717.596 259.632,717.983 258.885,712.521Z" style="fill:rgb(124,49,112);"/>
        <path d="M474.879,693.489C475.963,686.926 479.255,690.165 483.407,687.348C490.377,682.62 483.614,675.411 483.456,674.508C482.795,670.732 494.216,665.147 494.427,665.098C497.822,664.311 503.32,678.967 509.278,664.388C511.489,658.978 526.437,665.244 525.635,669.516C523.958,678.445 526.506,680.314 535.485,678.402C538.783,677.7 541.429,688.174 541.465,688.502C541.995,693.354 529.713,694.476 539.842,703.207C541.768,704.867 536.685,715.965 532.56,715.15C531.73,714.986 521.951,713.054 522.898,719.446C523.978,726.743 521.737,726.492 514.561,728.698C508.476,730.568 509.725,719.954 503.36,722.119C500.491,723.095 499.207,732.102 486.922,721.042C484.024,718.434 492.173,706.591 482.496,706.867C472.951,707.139 475.279,702.925 474.879,693.489ZM510.422,710.102C511.657,709.635 521.037,706.088 522.098,698.436C523.273,689.96 518.078,685.62 517.193,684.88C498.175,668.991 477.579,710.506 510.422,710.102Z" style="fill:rgb(24,101,173);"/>
        <path d="M640.887,514.564C649.04,481.009 654.671,468.914 664.521,470.326C697.676,475.078 699.865,473.846 701.647,480.459C710.124,511.925 710.543,511.791 711.053,514.576C712.046,519.998 708.558,519.831 667.497,519.637C646.561,519.537 640.942,520.698 640.887,514.564Z" style="fill:rgb(23,108,70);"/>
        <path d="M303.529,491.929C279.471,492.816 272.735,495.608 273.253,484.487C273.455,480.151 275.591,434.288 277.242,430.377C279.063,426.061 281.116,429.326 327.168,460.978C335.757,466.881 333.054,469.316 329.669,485.556C328.328,491.99 309.078,491.564 303.529,491.929Z" style="fill:rgb(52,51,131);"/>
        <path d="M554.5,613.065C566.799,614.837 563.664,622.405 563.249,623.406C561.659,627.244 564.916,632.819 568.496,632.899C574.708,633.037 571.606,646.071 570.504,646.509C560.237,650.589 566.912,657.508 568.339,659.601C570.509,662.781 562.494,668.949 561.473,669.453C556.755,671.782 550.488,656.798 545.894,671.613C543.976,677.798 541.76,674.916 535.399,673.906C529.88,673.029 536.232,659.708 526.469,658.925C521.892,658.558 519.919,663.864 514.825,656.296C510.44,649.783 524.085,644.332 515.428,638.597C509.674,634.784 510.019,633.566 512.911,626.695C514.051,623.988 529.566,629.746 526.237,616.566C525.679,614.357 527.181,613.982 554.5,613.065ZM531.932,640.478C538.106,666.152 565.78,639.987 549.383,630.696C534.53,622.279 532.158,638.894 531.932,640.478Z" style="fill:rgb(209,41,41);"/>
        <path d="M653.487,421.485C668.002,409.48 668.538,406.777 680.462,405.206C698.179,402.872 690.2,414.212 698.043,461.594C699.671,471.432 693.013,469.335 664.476,465.677C655.547,464.533 654.582,459.046 644.394,436.547C640.912,428.857 651.205,423.475 653.487,421.485Z" style="fill:rgb(53,52,132);"/>
        <path d="M603.385,552.761C568.255,537.582 564.657,540.397 560.774,528.416C558.338,520.897 564.325,520.043 659.466,523.869C663.723,524.041 663.186,528.931 663.128,529.462C658.482,571.755 659.077,573.826 655.49,573.686C650.98,573.511 653.271,571.232 652.587,563.492C650.055,534.828 624.695,534.838 616.968,551.713C613.492,559.304 611.176,556.138 603.385,552.761Z" style="fill:rgb(209,37,38);"/>
        <path d="M362.91,672.505C362.572,693.128 362.74,692.988 362.77,713.497C362.777,717.945 358.029,717.516 357.503,717.468C336.499,715.57 329.644,716.709 329.222,709.536C327.398,678.539 323.869,678.169 332.383,648.463C335.156,638.789 362.631,640.481 363.38,645.524C363.634,647.228 363.551,647.226 362.91,672.505Z" style="fill:rgb(20,144,92);"/>
        <path d="M470.942,757.527C470.325,718.517 453.569,714.341 429.722,705.073C426.936,703.991 428.26,693.48 435.463,694.763C469.445,700.814 471.389,704.53 472.851,707.326C476.22,713.765 484.813,708.114 482.848,713.61C478.878,724.716 483.321,724.561 493.649,730.23C500.881,734.198 501.211,726.844 504.538,727.12C507.74,727.385 508.366,729.63 496.318,766.433C493.462,775.158 481.599,770.852 476.558,770.141C468.286,768.973 470.33,765.985 470.942,757.527Z" style="fill:rgb(55,50,128);"/>
        <path d="M321.355,627.637C314.181,618.856 321.19,615.192 331.017,599.236C343.11,579.599 340.458,572.99 356.514,574.289C366.227,575.075 363.484,586.86 363.511,589.5C363.881,625.316 366.373,635.628 356.505,636.549C337.299,638.342 335.625,640.472 321.355,627.637Z" style="fill:rgb(250,193,37);"/>
        <path d="M592.792,760.383C587.344,749.094 584.714,750.853 580.884,746.171C577.916,742.543 581.979,733.086 582.191,732.411C584.787,724.175 586.201,713.329 593.467,713.854C615.579,715.452 622.894,730.8 628.078,738.769C638.674,755.056 618.248,768.674 601.414,772.005C595.037,773.267 595.841,770.298 592.792,760.383Z" style="fill:rgb(209,38,38);"/>
        <path d="M507.349,563.571C506.118,560.454 492.855,526.875 494.75,523.619C495.719,521.953 552.208,520.595 554.616,525.429C563.314,542.887 553.309,542.768 545.72,546.9C539.217,550.439 539.532,557.291 534.503,559.506C517.068,567.186 512.366,571.499 507.349,563.571Z" style="fill:rgb(19,109,69);"/>
        <path d="M318.092,806.422C321.326,791.506 321.162,782.061 330.484,780.404C359.978,775.162 360.132,774.48 362.378,775.747C366.76,778.219 365.052,815.911 364.803,816.612C363.668,819.804 362.762,821.746 322.535,819.076C313.956,818.507 316.733,814.796 318.092,806.422Z" style="fill:rgb(206,37,37);"/>
        <path d="M328.932,750.58C330.701,724.405 326.664,719.339 334.536,720.192C361.378,723.103 361.547,722.783 362.316,723.64C364.07,725.593 364.099,763.028 364.102,766.456C364.104,769.088 363.836,771.338 332.514,775.627C316.238,777.856 327.068,757.944 328.932,750.58Z" style="fill:rgb(52,52,130);"/>
        <path d="M593.901,630.57C596.712,622.984 599.786,624.247 605.201,629.801C614.757,639.602 620.914,651.094 626.134,665.629C631.324,680.082 630.239,681.312 626.669,682.885C620.935,685.411 623.688,691.7 619.444,692.22C606.823,693.767 605.891,695.915 595.67,688.267C592.697,686.041 593.284,678.735 593.901,630.57Z" style="fill:rgb(19,141,90);"/>
        <path d="M506.451,772.944C505.879,772.85 500.167,771.905 500.082,769.508C500.02,767.729 508.587,740.933 509.376,738.463C512.003,730.245 515.196,733.639 525.249,729.011C530.949,726.386 524.621,718.091 530.501,718.468C537.915,718.942 537.245,716.121 544.576,714.886C556.13,712.939 553.614,720.841 553.495,738.5C553.442,746.471 530.303,743.905 525.29,767.452C523.151,777.499 519.371,774.208 506.451,772.944Z" style="fill:rgb(210,40,39);"/>
        <path d="M419.398,653.427C420.743,651.682 429.938,639.745 438.717,633.792C439.806,633.053 447.521,627.821 454.059,639.739C457.313,645.671 440.289,646.095 451.101,667.693C452.725,670.939 441.082,687.562 439.192,689.125C437.522,690.506 434.882,692.689 412.495,684.513C403.697,681.3 407.566,671.964 419.398,653.427Z" style="fill:rgb(209,39,40);"/>
        <path d="M477.562,636.93C502.664,634.056 504.565,634.449 506.736,637.325C508.752,639.994 517.134,642.519 513.525,646.522C509.658,650.812 508.859,650.918 510.26,656.548C510.263,656.557 504.15,665.919 503.433,666.051C499.911,666.698 494.864,651.424 478.476,673.481C476.964,675.517 448.007,669.996 451.798,653.57C455.133,639.122 476.511,637.187 477.562,636.93Z" style="fill:rgb(22,148,96);"/>
        <path d="M548.415,748.186C548.85,748.12 579.185,739.319 589.05,761.694C594.711,774.535 587.35,774.43 573.474,775.029C530.393,776.891 528.536,775.087 528.858,771.521C530.361,754.891 546.131,749.034 548.415,748.186Z" style="fill:rgb(21,146,95);"/>
        <path d="M406.494,704.871C412.238,705.814 443.674,709.311 441.034,718.368C439.665,723.066 430.024,748.698 429.037,751.325C424.872,762.396 409.237,744.609 406.244,738.624C402.527,731.191 396.599,706.575 406.494,704.871Z" style="fill:rgb(249,192,37);"/>
        <path d="M472.96,451.61C462.685,481.374 462.247,488.519 453.398,491.175C430.486,498.052 406.586,507.147 406.753,496.508C406.781,494.712 407.55,495.074 443.86,467.982C447.391,465.348 466.847,451.429 468.85,449.996C471.644,447.997 473.289,448.208 472.96,451.61Z" style="fill:rgb(20,111,73);"/>
        <path d="M665.791,390.389C662.681,381.87 657.186,370.176 659.897,366.759C663.028,362.815 679.063,349.473 682.747,346.945C690.11,341.894 695.52,396.119 686.331,399.019C668.239,404.728 668.708,397.58 665.791,390.389Z" style="fill:rgb(250,192,33);"/>
        <path d="M640.056,345.442C641.116,340.758 641.069,340.777 641.201,340.384C642.942,335.206 661.677,320.315 662.644,319.869C665.214,318.682 678.738,342.188 675.32,346.354C673.309,348.806 647.112,370.704 646.326,371.27C635.37,379.153 638.57,362.618 640.056,345.442Z" style="fill:rgb(24,143,95);"/>
        <path d="M547.172,465.625C547.048,465.126 545.393,462.355 547.564,459.549C548.028,458.949 567.508,439.879 569.731,437.79C573.75,434.013 575.499,434.395 577.508,439.497C580.029,445.895 581.695,475.091 581.611,475.511C580.65,480.296 567.003,482.913 566.393,483.082C553.932,486.54 554.322,479.296 547.172,465.625Z" style="fill:rgb(207,36,38);"/>
        <path d="M337.082,505.56C336.679,502.884 333.038,478.729 337.902,471.751C340.177,468.486 347.416,474.785 347.79,475.015C367.176,486.973 364.118,490.642 363.806,513.497C363.712,520.379 349.989,518.326 345.506,518.284C337.733,518.213 337.734,508.529 337.082,505.56Z" style="fill:rgb(211,41,39);"/>
        <path d="M534.346,472.396C534.7,472.035 538.764,467.884 538.764,467.884C542.377,465.116 546.472,470.581 552.615,486.46C555.164,493.048 550.902,516.38 550.792,516.64C550.036,518.425 539.493,518.429 538.5,518.429C528.037,518.432 521.649,521.598 524.275,511.44C533.567,475.503 533.102,475.372 534.346,472.396Z" style="fill:rgb(20,144,94);"/>
        <path d="M635.107,398.475C636.544,388.634 635.015,384.07 648.734,374.844C655.311,370.421 656.551,377.667 664.118,399.625C665.337,403.16 665.467,404.442 640.174,426.102C631.87,433.213 634.778,409.351 635.107,398.475Z" style="fill:rgb(207,39,39);"/>
        <path d="M697.911,709.522C698.327,706.246 699.172,687.74 707.798,678.806C711.162,675.322 717.594,673.284 718.372,675.557C718.665,676.413 719.348,722.425 719.409,726.501C719.51,733.31 707.695,731.787 701.494,731.633C694.828,731.468 697.505,717.284 697.911,709.522Z" style="fill:rgb(23,100,176);"/>
        <path d="M640.578,276.432C640.464,276.272 630.853,265.775 631.24,250.491C631.686,232.868 642.387,241.176 661.229,254.862C668.372,260.051 673.566,277.954 667.493,278.312C643.208,279.741 643.049,278.67 640.578,276.432Z" style="fill:rgb(122,52,112);"/>
        <path d="M530.928,315.549C539.429,280.941 564.131,275.689 565.385,288.514C568.016,315.439 559.816,318.617 558.241,320.246C551.461,327.26 531.775,320.232 530.928,315.549Z" style="fill:rgb(54,51,128);"/>
        <path d="M578.488,518.031C566.404,518.186 555.416,519.861 555.709,514.512C556.703,496.379 557.643,489.868 562.484,488.447C579.841,483.351 582.663,482.953 584.371,488.545C585.024,490.686 591.974,513.444 591.745,515.528C591.544,517.364 579.566,517.976 578.488,518.031Z" style="fill:rgb(51,51,132);"/>
        <path d="M306.142,725.504C306.549,716.898 302.879,712.769 311.498,712.44C312.122,712.417 324.79,710.94 325.093,715.542C328.531,767.682 313.018,766.18 308.498,766.602C305.219,766.909 306.333,764.648 306.142,725.504Z" style="fill:rgb(22,97,174);"/>
        <path d="M343.887,551.432C342.59,542.814 339.225,526.245 342.55,523.569C343.848,522.523 360.314,523.085 361.547,523.363C364.761,524.09 364.566,525.356 363.641,564.501C363.63,564.955 363.548,568.436 360.403,569.165C343.865,572.999 344.228,553.171 343.887,551.432Z" style="fill:rgb(52,52,130);"/>
        <path d="M289.347,678.416C290.041,677.475 297.984,666.708 301.581,670.419C302.356,671.218 302.376,671.371 301.827,724.501C301.781,728.867 290.513,729.443 286.353,727.841C284.366,727.076 281.55,695.493 289.347,678.416Z" style="fill:rgb(54,50,127);"/>
        <path d="M663.454,199.944C674.071,202.598 671.251,206.397 670.7,225.51C670.461,233.809 631.003,245.297 636.903,230.66C648.835,201.054 660.215,200.19 663.454,199.944Z" style="fill:rgb(22,142,92);"/>
        <path d="M554.562,709.91C543.25,711.437 542.858,710.351 543.098,709.465C544.615,703.847 545.026,703.251 540.857,699.153C535.925,694.304 547.605,694.598 545.063,686.628C543.995,683.283 540.385,680.74 546.519,677.532C550.707,675.342 547.48,665.202 554.904,671.019C565.011,678.938 571.172,660.619 571.296,668.556C571.592,687.491 568.66,686.956 565.834,688.997C555.463,696.488 568.03,707.508 554.562,709.91Z" style="fill:rgb(19,138,85);"/>
        <path d="M575.594,649.501C575.685,643.279 574.045,629.782 579.485,629.314C589.793,628.425 589.842,631.627 589.855,632.495C589.919,636.73 590.541,677.71 589.272,685.438C588.896,687.729 578.476,687.345 577.525,687.31C573.933,687.177 574.788,682.833 575.594,649.501Z" style="fill:rgb(52,48,127);"/>
        <path d="M628.144,467.423C632.112,449.173 631.414,449.184 633.389,437.473C634.848,428.822 640.915,441.004 641.232,441.64C652.954,465.178 653.336,466.03 649.329,474.419C643.984,485.61 641.445,484.273 629.457,481.668C623.758,480.43 627.473,470.868 628.144,467.423Z" style="fill:rgb(52,53,132);"/>
        <path d="M695.944,245.444C695.983,248.116 696.292,269.429 685.237,277.089C677.139,282.7 673.705,271.57 673.386,270.535C669.889,259.201 667.875,258.08 678.536,240.525C679.941,238.212 688.607,237.837 689.511,237.798C695.487,237.539 694.707,239.607 695.944,245.444Z" style="fill:rgb(23,141,93);"/>
        <path d="M644.732,286.643C647.482,283.816 649.456,283.058 665.502,282.578C672.899,282.356 678.595,295.38 676.286,298.341C665.18,312.576 662.499,310.561 648.53,309.116C647.736,309.034 637.601,310.123 644.732,286.643Z" style="fill:rgb(123,53,113);"/>
        <path d="M723.195,694.506C723.227,691.567 722.139,674.81 725.506,674.674C733.225,674.362 738.542,685.334 739.175,686.642C743.48,695.526 744.209,716.763 743.965,717.638C743.433,719.537 728.825,720.101 727.493,720.153C721.954,720.366 723.417,707.79 723.195,694.506Z" style="fill:rgb(53,52,134);"/>
        <path d="M724.178,736.509C724.147,734.168 723.919,731.833 723.887,729.492C723.79,722.286 744.63,721.832 744.745,728.497C745.129,750.596 744.319,761.553 729.419,765.159C722.978,766.718 725.287,758.712 724.178,736.509Z" style="fill:rgb(53,51,131);"/>
        <path d="M545.344,423.309C549.388,420.112 549.344,420.108 549.711,419.856C553.251,417.42 561.606,432.973 562.558,435.485C563.543,438.084 563.325,438.916 539.395,461.387C534.898,465.61 534.287,461.896 534.315,458.496C534.565,427.794 539.594,428.75 545.344,423.309Z" style="fill:rgb(23,140,91);"/>
        <path d="M622.449,723.545C621.762,722.8 615.8,716.339 613.331,714.75C610.234,712.759 603.11,710.381 602.782,710.128C601.399,709.063 602.025,698.537 602.095,698.336C602.695,696.638 616.258,696.462 617.5,696.445C621.977,696.387 621.825,697.391 623.438,701.528C624.786,704.988 631.651,705.253 632.389,705.725C635.811,707.916 633.725,733.447 633.693,733.549C632.17,738.46 625.286,727.384 622.449,723.545Z" style="fill:rgb(55,53,132);"/>
        <path d="M616.553,518.101C612.979,517.04 612.519,515.081 622.366,489.447C624.88,482.9 634.916,487.048 636.521,487.39C644.644,489.124 640.817,498.086 636.196,514.413C634.348,520.943 624.853,518.412 616.553,518.101Z" style="fill:rgb(201,39,46);"/>
        <path d="M476.602,492.1C468.981,489.84 468.307,490.74 466.963,488.275C465.794,486.132 481.336,442.647 481.904,441.927C484.27,438.928 486.456,442.988 486.103,489.493C486.054,496.05 478.43,492.511 476.602,492.1Z" style="fill:rgb(121,51,116);"/>
        <path d="M582.135,717.418C577.546,731.984 576.093,743.114 569.502,742.84C552.315,742.126 557.129,734.654 557.774,717.527C558.038,710.53 582.342,709.791 582.135,717.418Z" style="fill:rgb(54,50,129);"/>
        <path d="M480.588,619.866C482.423,619.515 502.89,614.2 502.168,618.486C499.944,631.705 497.015,630.662 492.467,631.135C476.652,632.778 476.755,632.747 461.413,637.097C459.718,637.578 451.686,631.615 450.907,631.037C445.783,627.232 461.529,624.362 480.588,619.866Z" style="fill:rgb(118,52,116);"/>
        <path d="M540.962,360.53C541.028,360.023 540.482,353.294 544.619,351.923C546.259,351.379 564.983,351.336 569.48,351.649C580.036,352.386 546.273,379.671 544.208,381.079C537.833,385.43 540.588,367.371 540.962,360.53Z" style="fill:rgb(31,100,173);"/>
        <path d="M313.491,707.947C308.866,707.535 306.896,709.198 306.54,704.496C305.986,697.182 306.724,675.079 306.809,672.523C306.895,669.933 310.01,668.357 315.39,672.635C323.256,678.891 324.467,701.845 324.607,704.494C324.863,709.347 315.559,707.875 313.491,707.947Z" style="fill:rgb(23,96,174);"/>
        <path d="M567.506,347.94C558.307,346.931 560.47,343.658 559.269,334.527C559.057,332.91 557.529,321.292 568.389,316.289C569.66,315.704 584.871,315.996 583.147,325.43C579.245,346.781 569.688,347.724 567.506,347.94Z" style="fill:rgb(249,190,35);"/>
        <path d="M574.504,708.895C573.151,708.803 561.965,712.333 564.872,697.578C566.947,687.045 595.776,689.939 597.601,695.46C599.033,699.792 597.732,707.69 597.287,708.36C596.525,709.504 595.698,709.182 574.504,708.895Z" style="fill:rgb(250,190,32);"/>
        <path d="M705.352,761.673C703.346,759.486 698.704,756.858 697.778,739.487C697.482,733.93 713.111,735.846 715.488,735.864C717.65,735.88 721.367,735.907 720.088,762.497C720.031,763.676 719.7,770.559 705.352,761.673Z" style="fill:rgb(24,103,180);"/>
        <path d="M435.242,747.371C436.531,745.393 438.831,741.862 464.612,750.217C469.181,751.697 466.475,763.309 466.215,764.423C465.671,766.756 464.331,770.767 436.543,760.383C428.917,757.534 432.442,754.921 435.242,747.371Z" style="fill:rgb(250,192,36);"/>
        <path d="M450.599,694.088C450.263,693.972 446.396,692.638 446.396,692.638C442.373,690.195 455.174,673.887 455.555,673.561C457.527,671.87 492.426,681.111 478.396,685.014C470.687,687.159 471.261,688.679 470.743,696.521C470.543,699.543 465.062,697.611 450.599,694.088Z" style="fill:rgb(209,39,41);"/>
        <path d="M541.235,421.16C535.681,423.152 537.359,419.404 537.503,413.5C537.94,395.662 537.563,392.256 548.756,383.904C552.62,381.021 561.984,400.512 559.419,403.433C550.955,413.069 550.676,412.618 541.235,421.16Z" style="fill:rgb(205,36,38);"/>
        <path d="M289.472,760.521C288.392,758.726 284.51,755.174 284.363,740.5C284.262,730.402 288.457,732.403 298.469,732.734C300.534,732.802 302.691,733.403 301.594,762.505C301.254,771.549 290.19,761.193 289.472,760.521Z" style="fill:rgb(52,56,132);"/>
        <path d="M564.632,429.402C563.918,428.367 556.106,417.035 555.845,416.369C554.616,413.224 573.405,392.8 575.158,399.605C580.689,421.079 573.967,441.21 564.632,429.402Z" style="fill:rgb(53,51,133);"/>
        <path d="M733.092,559.573C733.172,561.473 733.965,580.318 731.255,583.277C728.64,586.132 720.582,588.471 720.097,584.594C720.025,584.018 719.027,547.124 720.733,545.78C727.178,540.704 732.649,558.159 733.092,559.573Z" style="fill:rgb(26,98,175);"/>
        <path d="M684.895,302.411C688.94,339.395 684.331,340.474 681.401,339.81C679.973,339.486 666.821,316.865 668.899,313.713C671.018,310.499 680.856,300.439 681.675,299.773C683.887,297.976 683.957,299.667 684.895,302.411Z" style="fill:rgb(51,50,126);"/>
        <path d="M567.572,587.601C553.529,593.993 557.526,580.387 557.509,573.5C557.488,565.402 554.836,544.713 563.428,550.613C572.004,556.502 573.921,581.468 567.572,587.601Z" style="fill:rgb(28,97,175);"/>
        <path d="M623.504,583.493C611.235,574.74 619.352,546.852 629.471,545.319C632.497,544.86 632.907,546.839 631.595,583.519C631.479,586.769 624.103,583.739 623.504,583.493Z" style="fill:rgb(249,195,38);"/>
        <path d="M458.6,726.426C459.41,727.649 472.245,747.024 460.472,744.664C445.352,741.633 437.513,741.722 439.978,733.654C445.335,716.122 448.016,717.164 449.238,717.959C453.903,720.995 453.446,721.296 458.6,726.426Z" style="fill:rgb(250,193,41);"/>
        <path d="M647.861,578.613C643.889,585.829 635.926,589.336 635.936,578.505C635.968,546.76 635.953,544.779 638.498,545.509C642.098,546.542 652.326,554.081 647.861,578.613Z" style="fill:rgb(248,197,43);"/>
        <path d="M571.525,391.524C564.26,398.195 563.266,396.961 562.904,396.262C555.777,382.505 553.146,380.255 559.696,373.701C570.779,362.612 572.189,363.201 572.726,364.366C574.631,368.497 574.723,381.959 574.734,383.498C574.765,388.073 573.897,387.746 571.525,391.524Z" style="fill:rgb(24,133,88);"/>
        <path d="M531.879,328.375C531.809,327.97 531.048,323.537 532.449,323.278C533.745,323.038 547.285,326.928 548.562,327.294C557.901,329.977 557.407,347.514 554.519,347.664C537.756,348.536 538.681,343.788 531.879,328.375Z" style="fill:rgb(26,117,79);"/>
        <path d="M291.913,558.5C292.034,556.983 293.1,543.659 294.925,539.717C295.223,539.073 297.251,534.695 301.561,533.826C304.209,533.292 304.761,535.052 304.111,567.488C303.982,573.923 300.975,571.288 294.545,571.082C288.905,570.902 292.105,567.938 291.913,558.5Z" style="fill:rgb(28,94,170);"/>
        <path d="M448.451,583.543C442.782,574.772 445.706,552.003 455.535,549.644C458.177,549.01 458.838,550.814 458.304,583.49C458.18,591.069 449.075,584.025 448.451,583.543Z" style="fill:rgb(249,194,38);"/>
        <path d="M474.03,579.398C468.673,591.352 462.295,586.559 462.252,581.503C462.04,556.592 460.503,546.79 467.401,550.657C475.175,555.015 474.141,577.041 474.03,579.398Z" style="fill:rgb(249,194,39);"/>
        <path d="M319.959,567.501C319.989,573.249 322.643,593.818 310.599,596.969C308.231,597.589 306.223,596.273 307.708,566.509C307.901,562.639 319.049,559.308 319.959,567.501Z" style="fill:rgb(55,52,129);"/>
        <path d="M499.579,689.56C509.183,679.597 516.703,689.253 517.536,693.493C520.941,710.827 490.066,711.161 499.579,689.56Z" style="fill:rgb(252,196,44);"/>
        <path d="M539.959,563.596C540.395,562.174 544.624,548.361 551.545,549.05C554.63,549.357 555.087,572.169 550.578,572.908C534.76,575.5 539.742,565.439 539.959,563.596Z" style="fill:rgb(28,99,172);"/>
        <path d="M686.444,234.127C674.69,234.583 673.618,230.798 674.973,212.531C675.929,199.63 692.793,230.752 692.058,232.371C691.289,234.065 690.787,233.341 686.444,234.127Z" style="fill:rgb(163,40,76);"/>
        <path d="M307.91,537.504C308.224,534.937 307.052,533.917 309.514,533.574C317.902,532.408 319.432,549.855 319.576,551.493C320.483,561.833 315.689,559.54 310.506,559.389C306.383,559.268 307.816,547.146 307.91,537.504Z" style="fill:rgb(54,49,129);"/>
        <path d="M403.118,696.483C403.307,695.29 403.728,687.119 407.489,687.664C408.544,687.817 425.36,691.675 425.084,695.51C424.249,707.123 418.952,702.483 407.451,700.759C404.001,700.242 403.722,699.978 403.118,696.483Z" style="fill:rgb(202,41,45);"/>
        <path d="M296.528,594.468C294.129,591.75 293.905,591.906 292.956,588.384C288.258,570.947 298.637,574.47 301.47,574.69C305.149,574.974 304.122,588.503 304.069,592.503C303.958,600.766 298.313,595.506 296.528,594.468Z" style="fill:rgb(69,53,129);"/>
        <path d="M655.444,245.574C652.639,243.121 649.605,242.834 652.762,240.905C653.85,240.241 664.229,236.289 668.617,234.889C678.663,231.685 669.596,248.255 669.044,249.264C665.347,256.021 660.697,249.389 655.444,245.574Z" style="fill:rgb(37,95,169);"/>
        <path d="M709.356,547.328C711.477,545.944 711.446,545.921 711.647,545.833C717.446,543.307 715.765,561.913 715.769,562.502C715.8,567.629 704.076,566.806 702.613,565.382C697.7,560.599 708.338,548.486 709.356,547.328Z" style="fill:rgb(33,85,165);"/>
        <path d="M710.482,570.215C718.634,570.963 715.861,574.419 715.741,582.509C715.613,591.136 705.806,585.657 703.689,582.376C698.34,574.083 700.534,570.811 710.482,570.215Z" style="fill:rgb(25,95,174);"/>
        <path d="M376.03,584.535C376.026,587.263 377.937,602.911 370.488,603.376C365.779,603.67 366.269,578.821 369.527,578.66C374.634,578.408 374.681,579.483 376.03,584.535Z" style="fill:rgb(247,185,38);"/>
        <path d="M535.88,638.537C536.187,637.555 539.659,626.471 548.189,634.806C555.818,642.261 538.862,657.374 535.88,638.537Z" style="fill:rgb(246,197,46);"/>
        <path d="M581.788,311.411C582.774,317.473 569.51,314.022 569.356,304.504C569.153,291.911 570.425,291.322 571.286,291.872C573.332,293.179 581.041,309.801 581.788,311.411Z" style="fill:rgb(21,144,96);"/>
        <path d="M642.048,318.484C642.653,315.512 642.811,311.323 657.463,314.597C661.735,315.552 645.563,328.987 644.441,329.119C642.33,329.368 642.071,319.356 642.048,318.484Z" style="fill:rgb(34,88,166);"/>
        <path d="M542.373,586.633C532.701,574.284 549.361,577.225 550.52,577.277C555.436,577.499 557.025,597.29 542.373,586.633Z" style="fill:rgb(32,105,180);"/>
        <path d="M589.402,625.109C585.978,625.201 570.324,627.59 570.088,619.513C569.874,612.171 599.275,620.59 589.402,625.109Z" style="fill:rgb(248,199,43);"/>
        <path d="M505.894,620.599C511.08,608.535 521.994,616.397 522.075,616.648C523.719,621.736 521.873,622.447 516.471,621.974C507.802,621.215 509.424,627.597 507.416,629.396C502.386,633.902 505.712,621.29 505.894,620.599Z" style="fill:rgb(50,45,132);"/>
        <path d="M626.068,695.559C625.823,690.094 624.801,689.84 626.601,687.584C632.753,679.877 632.492,697.507 632.477,698.499C632.468,699.063 628.55,706.596 626.068,695.559Z" style="fill:rgb(242,184,33);"/>
        <path d="M678.466,288.526C678.355,288.331 672.328,281.397 680.518,282.344C686.87,283.079 684.553,295.237 678.466,288.526Z" style="fill:rgb(236,183,55);"/>
    </g>
</svg>
