<?xml version="1.0" encoding="UTF-8" standalone="no"?>
<!DOCTYPE svg PUBLIC "-//W3C//DTD SVG 1.1//EN" "http://www.w3.org/Graphics/SVG/1.1/DTD/svg11.dtd">
<svg width="100%" height="100%" viewBox="0 0 1024 1024" version="1.1" xmlns="http://www.w3.org/2000/svg" xmlns:xlink="http://www.w3.org/1999/xlink" xml:space="preserve" xmlns:serif="http://www.serif.com/" style="fill-rule:evenodd;clip-rule:evenodd;stroke-linejoin:round;stroke-miterlimit:2;">
    <g>
        <path d="M482.857,765.413C462.668,690.438 449.667,643.709 446.286,629.526C445.212,625.017 447.519,625.403 475.362,579.408C477.926,575.172 479.933,578.095 562.582,540.703C565.288,539.479 568.785,543.957 575.649,550.341C583.764,557.889 583.057,558.626 583.409,569.503C584.151,592.373 608.634,578.436 619.11,587.924C622.042,590.58 649.651,615.586 655.05,621.899C657.457,624.714 603.761,714.291 584.801,748.667C579.015,759.157 575.033,757.024 559.455,759.055C487.757,768.403 485.397,771.013 482.857,765.413Z" style="fill:rgb(132,47,108);"/>
        <path d="M563.905,491.549C560.749,528.119 560.187,529.227 554.576,531.684C522.75,545.62 475.16,567.608 472.747,565.249C458.234,551.053 451.337,533.718 450.114,530.644C406.48,420.984 409.94,413.969 395.496,413.67C378.706,413.324 369.008,411.805 364.72,422.582C325.241,521.801 316.803,546.347 313.051,557.261C310.099,565.849 312.446,542.142 313.815,522.524C315.048,504.862 320.038,441.369 320.394,440.455C320.801,439.409 393.312,361.2 394.802,359.899C394.963,359.758 394.868,359.819 464.558,350.871C470.055,350.165 482.005,347.659 485.358,350.659C499.138,362.989 503.511,367.404 532.101,391.965C569.052,423.71 570.332,423.34 570.266,427.512C570.172,433.492 566.979,462.19 563.905,491.549ZM508.497,518.146C533.547,518.004 558.19,520.828 560.048,509.076C564.943,478.106 541.805,483.785 528.503,483.893C485.36,484.246 469.982,480.657 468.864,496.528C466.938,523.888 484.921,518.156 508.497,518.146Z" style="fill:rgb(1,137,95);"/>
        <path d="M766.587,269.926C663.933,292.798 661.202,294.611 658.631,292.348C620.256,258.568 619.502,254.083 618.724,249.462C615.304,229.13 612.121,228.37 620.885,209.674C626.877,196.89 669.093,107.616 669.426,107.411C670.173,106.952 737.932,104.885 753.411,108.902C816.824,125.358 807.054,184.2 807.107,228.5C807.122,241.609 807.533,259.418 806.489,260.489C805.281,261.73 805.198,261.228 766.587,269.926Z" style="fill:rgb(2,137,96);"/>
        <path d="M352.49,792.206C371.105,794.071 370.992,793.946 389.541,796.088C429.795,800.737 455.966,801.857 456.65,804.443C457.797,808.779 465.816,915.461 465.819,915.55C465.888,917.598 464.572,917.359 413.5,917.367C256.122,917.389 255.946,917.424 255.259,916.737C253.793,915.272 252.421,815.33 252.399,812.499C252.364,807.995 261.606,809.578 352.49,792.206Z" style="fill:rgb(54,72,148);"/>
        <path d="M646.5,414.663C616.334,414.732 606.329,415.486 613.66,412.833C627.173,407.944 647.622,395.953 652.533,394.968C652.79,394.917 803.787,445.123 805.363,445.801C808.122,446.987 807.089,465.417 807.088,465.498C806.899,596.902 807.735,598.071 805.307,599.092C798.918,601.776 735.42,623.93 729.331,626.054C718.441,629.854 718.025,628.557 680.44,619.736C655.818,613.957 659.129,607.977 635.25,587.754C627.785,581.432 639.117,584.798 703.499,584.287C721.588,584.144 717.307,558.861 715.404,554.546C708.082,537.941 637.437,552.643 638.658,544.531C639.668,537.828 642.093,539.018 690.962,477.866C713.54,449.614 716.778,449.938 716.653,427.494C716.565,411.633 699.17,414.735 646.5,414.663Z" style="fill:rgb(23,130,194);"/>
        <path d="M243.604,796.371C243.255,796.163 233.847,790.27 232.795,789.197C230.277,786.627 231.811,640.432 231.947,627.496C232.005,621.973 235.121,623.868 300.507,598.519C304.537,596.957 372.77,637.168 373.068,637.699C374.427,640.116 349.897,766.381 347.728,777.542C346.423,784.264 337.704,783.583 327.468,785.317C253.268,797.883 252.398,801.755 243.604,796.371Z" style="fill:rgb(1,137,94);"/>
        <path d="M352.809,266.412C355.362,273.293 384.201,351 384.535,352.495C385.067,354.869 314.961,429.654 313.494,429.58C313.473,429.579 231.992,373.267 231.898,370.449C231.301,352.575 231.747,278.496 231.795,270.5C231.86,259.621 234.045,260.292 248.514,239.51C248.624,239.352 257.593,225.45 259.465,225.914C267.182,227.827 347.917,253.711 349.01,255.78C349.432,256.578 349.292,256.567 352.809,266.412Z" style="fill:rgb(143,188,64);"/>
        <path d="M298.408,225.821C264.69,214.682 264.713,214.758 262.693,214.038C260.765,213.351 261.502,212.477 253.125,151.545C248.279,116.305 246.688,107.533 247.753,106.994C248.775,106.477 430.836,106.68 431.465,106.724C435.137,106.985 434.448,108.952 436.04,152.518C436.199,156.854 435.272,156.813 400.013,193.062C354.738,239.609 356.099,242.192 350.513,242.657C348.23,242.846 302.553,227.238 298.408,225.821Z" style="fill:rgb(22,129,196);"/>
        <path d="M606.823,894.501C606.808,898.684 607.514,917.155 605.44,917.283C605.092,917.305 479.602,917.628 478.701,917.069C476.994,916.01 474.319,871.867 469.741,821.487C468.332,805.986 464.764,804.733 474.044,792.163C480.478,783.448 478.752,780.308 489.464,779.069C555.95,771.379 569.561,769.527 576.511,768.582C583.291,767.659 582.766,770.164 604.101,796.85C607.948,801.662 606.853,802.363 606.823,894.501Z" style="fill:rgb(1,137,94);"/>
        <path d="M658.145,374.483C659.572,353.739 659.693,353.987 661.001,337.458C662.503,318.479 661.301,305.191 667.575,303.85C764.688,283.087 801.238,273.623 805.51,273.423C805.96,273.402 807.248,273.715 807.216,354.501C807.186,429.854 810.524,435.385 804.532,433.394C792.939,429.54 661.81,385.956 659.638,385.19C655.306,383.663 657.995,382.038 658.145,374.483Z" style="fill:rgb(96,172,86);"/>
        <path d="M724.913,700.436C725.176,701.916 737.73,775.142 737.702,775.512C737.555,777.467 711.944,802.173 708.483,801.908C701.031,801.337 618.727,795.033 615.533,792.459C614.634,791.735 591.721,762.388 591.658,761.486C591.582,760.4 665.269,628.93 667.493,628.756C670.454,628.524 706.126,637.769 709.466,638.634C714.17,639.853 714.83,639.739 715.603,644.484C720.165,672.48 720.161,672.35 724.913,700.436Z" style="fill:rgb(207,36,49);"/>
        <path d="M458.466,165.535C448.895,155.618 448.13,155.952 447.955,153.45C447.139,141.758 446.248,124.077 446.119,121.522C445.625,111.719 440.659,106.631 450.5,106.637C654.779,106.775 655.277,106.513 655.483,107.505C655.991,109.964 610.287,205.87 606.238,214.367C604.658,217.683 595.187,214.282 512.516,189.452C475.86,178.442 474.015,181.035 458.466,165.535Z" style="fill:rgb(144,188,63);"/>
        <path d="M615.404,266.607C652.571,302.915 652.129,303.535 652.079,304.484C651.734,310.953 647.875,383.259 645.239,385.169C644.79,385.494 581.215,416.399 579.516,416.678C574.685,417.472 575.535,414.725 532.77,377.187C493.575,342.783 491.945,342.917 492.873,338.573C493.98,333.388 495.036,333.598 548.649,302.763C551.849,300.923 587.952,280.159 588.657,279.763C611.714,266.816 611.77,264.338 615.404,266.607Z" style="fill:rgb(207,35,50);"/>
        <path d="M202.912,565.499C202.931,622.341 203.559,624.704 200.576,624.048C150.602,613.059 149.071,612.809 148.966,608.499C148.959,608.225 148.965,391.662 148.978,391.588C149.399,389.278 192.784,354.97 195.413,356.692C206.42,363.899 203.074,366.289 203.061,379.501C203.057,409.834 203.053,440.167 203.048,470.5C203.047,539.992 202.946,558.664 202.912,565.499Z" style="fill:rgb(131,48,108);"/>
        <path d="M300.917,538.516C298.502,585.545 298.641,586.88 294.5,588.501C289.659,590.395 237.062,610.976 233.466,610.801C232.279,610.743 231.891,609.805 231.87,415.498C231.867,388.432 231.302,387.017 233.534,387.349C233.708,387.375 307.082,438.865 307.756,440.365C309.158,443.487 303.559,498.506 300.917,538.516Z" style="fill:rgb(132,47,109);"/>
        <path d="M370.084,719.433C372.079,708.398 383.99,640.918 385.643,639.693C387.016,638.676 434.226,633.678 434.377,633.769C437.283,635.533 469.257,758.692 472.091,769.608C472.812,772.387 474.103,773.426 460.094,790.151C457.374,793.399 359.633,781.157 359.349,780.618C357.032,776.222 359,775.898 370.084,719.433Z" style="fill:rgb(224,219,45);"/>
        <path d="M737.056,702.573C727.012,644.308 726.755,639.373 727.719,638.741C730.769,636.742 798.329,613.594 804.495,611.481C807.948,610.298 807.097,620.963 807.057,641.5C806.781,785.303 807.247,786.499 805.531,786.704C801.208,787.221 801.331,785.963 752.542,774.298C746.928,772.955 746.923,761.9 746.85,761.441C742.984,737.004 737.866,707.278 737.056,702.573Z" style="fill:rgb(224,219,46);"/>
        <path d="M481.07,255.526C480.055,247.128 480.048,247.183 479.974,246.456C474.423,191.699 474.038,191.347 474.737,190.912C476.466,189.836 591.562,224.961 601.682,228.05C604.449,228.894 608.114,254.177 606.415,255.406C598.227,261.333 506.923,313.994 498.226,319.011C486.518,325.763 486.538,314.36 481.07,255.526Z" style="fill:rgb(53,71,148);"/>
        <path d="M764.557,789.217C803.764,798.509 806.951,797.302 807.06,804.502C807.561,837.516 815.317,897.009 757.431,914.25C745.545,917.79 719.652,918.797 719.574,915.489C719.374,907.029 717.141,812.51 719.727,809.708C721.697,807.574 742.178,785.384 746.493,785.166C747.972,785.091 747.733,785.653 764.557,789.217Z" style="fill:rgb(98,172,88);"/>
        <path d="M618.428,808.498C618.621,808.03 617.762,805.009 622.504,805.441C629.224,806.052 705.696,813.011 706.461,813.569C707.928,814.64 709.102,916.159 706.431,917.215C704.851,917.84 627.379,917.445 620.505,917.41C617.748,917.395 618.141,915.465 618.428,808.498Z" style="fill:rgb(130,48,109);"/>
        <path d="M470.356,267.508C473.484,298.881 473.951,301.401 471.598,300.246C463.086,296.069 404.231,267.188 364.427,249.632C360.337,247.828 364.97,246.373 429.819,178.793C434.989,173.405 441.834,165.142 443.524,166.465C443.85,166.72 460.035,183.13 461.244,184.674C462.032,185.679 461.785,189.856 470.356,267.508Z" style="fill:rgb(53,71,148);"/>
        <path d="M176.468,773.748C174.384,773.449 152.469,770.304 150.487,769.53C149.089,768.985 149.093,764.918 149.093,764.5C149.216,636.422 148.818,636.526 149.059,625.401C149.147,621.315 202.353,636.391 202.706,637.421C203.309,639.177 202.828,775.247 202.822,775.552C202.773,777.665 201.592,777.24 176.468,773.748Z" style="fill:rgb(24,129,194);"/>
        <path d="M310.57,578.694L311.499,578.501C319.834,585.647 325.021,583.442 334.501,583.346C350.198,583.189 350.585,565.321 360.774,541.613C361.217,540.58 361.382,539.006 405.501,539.464C412.831,539.54 413.731,548.506 418.594,562.465C425.892,583.411 429.241,584.007 451.468,583.206C457.934,582.972 466.124,568.244 464.33,575.495C464.211,575.979 437.937,619.122 436.788,620.757C435.669,622.348 383.007,627.999 381.461,627.774C378.76,627.381 317.157,592.476 311.607,589.331C307.378,586.935 309.744,585.789 310.57,578.694Z" style="fill:rgb(1,137,94);"/>
        <path d="M202.835,803.498C202.843,912.533 203.45,915.147 200.526,914.374C138.932,898.102 148.83,831.003 148.802,805.498C148.79,795.255 147.413,780.848 151.51,781.372C162.141,782.732 191.969,787.993 195.48,788.612C205.148,790.317 202.7,793.696 202.835,803.498Z" style="fill:rgb(207,37,48);"/>
        <path d="M202.867,255.502C202.867,333.462 203.194,334.025 201.423,335.411C197.345,338.606 151.003,374.904 149.562,374.2C148.517,373.69 148.36,239.705 149.748,238.941C151.142,238.174 158.378,240.425 186.485,245.583C197.535,247.611 202.178,244.258 202.867,255.502Z" style="fill:rgb(146,188,64);"/>
        <path d="M202.921,114.504C202.724,236.612 203.814,239.446 200.458,238.821C194.984,237.803 151.194,229.276 149.764,228.145C149.474,227.915 146.513,172.908 151.765,155.584C162.743,119.375 202.318,105.648 202.818,110.399C202.962,111.76 202.777,113.143 202.921,114.504Z" style="fill:rgb(100,170,85);"/>
        <path d="M377.669,300.457C365.211,266.092 366.15,265.562 366.818,264.746C367.805,263.541 475.989,315.5 476.123,315.75C484.544,331.469 483.94,332.063 482.045,336.242C481.223,338.054 396.708,347.692 396.474,347.651C392.471,346.95 394.083,344.95 377.669,300.457Z" style="fill:rgb(23,130,195);"/>
        <path d="M584.397,427.266C590.066,425.631 587.162,429.753 587.578,440.495C588.218,457.005 615.594,452.121 655.515,452.391C659.211,452.416 654.877,458.157 654.576,458.555C625.024,497.695 589.213,544.004 589.128,544.106C587.796,545.703 574.064,533.197 572.868,532.109C570.248,529.723 572.682,517.118 575.058,495.452C582.08,431.427 580.173,430.162 584.397,427.266Z" style="fill:rgb(22,128,193);"/>
        <path d="M368.268,507.704C376.754,513.287 394.276,507.171 394.436,512.503C394.874,527.097 396.184,532.18 392.489,532.214C362.487,532.491 357.819,528.347 352.292,543.425C345.042,563.206 343.68,576.334 333.499,576.329C323.581,576.323 321.158,581.16 316.295,572.599C313.878,568.344 316.154,566.192 338.916,507.665C344.536,493.213 349.152,498.979 364.505,497.645C370.607,497.115 364.627,502.202 368.268,507.704Z" style="fill:rgb(150,192,65);"/>
        <path d="M850.06,470.569C853.882,490.71 853.77,491.056 852.371,492.363C824.431,518.491 823.609,518.507 820.435,517.747C809.922,515.231 814.64,511.169 814.638,500.499C814.625,438.518 813.44,434.365 818.42,435.805C839.096,441.783 840.479,442.266 842.365,442.926C846.072,444.224 846.734,453.057 850.06,470.569Z" style="fill:rgb(5,135,94);"/>
        <path d="M866.45,394.542C867.701,396.709 874.817,409.043 870.667,425.543C870.072,427.907 849.811,435.318 848.526,435.064C845.777,434.52 816.611,428.752 815.074,424.689C814.106,422.13 814.497,422.11 814.615,390.5C814.631,386.068 816.09,386.558 820.5,386.524C854.666,386.264 855.858,385.176 866.45,394.542Z" style="fill:rgb(130,50,108);"/>
        <path d="M402.16,528.51C402.006,522.072 401.284,510.79 402.591,507.547C402.872,506.852 404.871,503.776 406.464,503.344C408.318,502.841 429.074,497.213 430.051,498.871C432.744,503.439 432.243,503.663 454.258,560.586C461.54,579.417 449.034,576.462 434.516,576.262C427.153,576.16 421.178,545.375 416.097,535.748C411.958,527.908 403.642,537.319 402.16,528.51Z" style="fill:rgb(99,175,93);"/>
        <path d="M407.822,440.372C425.324,485.343 429.443,491.147 423.57,492.729C421.975,493.159 404.036,497.992 403.142,495.656C391.985,466.495 393.944,463.565 387.534,463.12C380.162,462.608 379.587,457.284 371.139,440.678C366.194,430.956 364.74,429.318 372.719,421.72C376.968,417.675 394.616,420.208 396.502,420.479C402.295,421.31 406.201,436.068 407.822,440.372Z" style="fill:rgb(220,219,47);"/>
        <path d="M590.379,571.507C590.359,557.031 590.125,557.063 590.578,554.521C590.931,552.544 632.159,499.537 632.734,498.863C633.967,497.416 634.221,498.889 647.338,517.607C650.17,521.648 630.749,539.803 629.927,543.61C627.058,556.905 623.615,554.867 601.775,570.884C597.412,574.084 594.27,580.763 590.379,571.507Z" style="fill:rgb(99,173,91);"/>
        <path d="M640.501,577.336C628.977,577.037 628.73,577.371 628.339,576.628C627.784,575.577 630.117,562.668 630.335,561.464C632.065,551.89 637.629,554.185 679.5,554.134C700.662,554.109 710.437,548.332 710.021,569.497C709.827,579.349 704.736,577.334 640.501,577.336Z" style="fill:rgb(99,174,91);"/>
        <path d="M639.803,489.716C653.009,472.058 661.63,461.916 664.73,456.627C667.28,452.279 663.601,446.539 664.101,445.287C665.12,442.732 666.747,442.139 696.104,457.894C697.522,458.655 693.422,463.711 693.072,464.143C654.14,512.163 653.232,514.4 651.751,512.259C638.53,493.133 638.658,492.628 639.803,489.716Z" style="fill:rgb(224,221,49);"/>
        <path d="M845.271,548.642C844.089,546.744 831.201,526.051 831.142,524.52C831.093,523.24 838.54,516.812 839.243,516.205C855.704,501.996 856.02,495.296 868.594,500.303C871.607,501.502 870.8,505.145 870.766,542.5C870.756,553.563 873.521,557.738 862.528,558.802C849.417,560.07 850.295,556.397 845.271,548.642Z" style="fill:rgb(206,37,51);"/>
        <path d="M665.501,421.535C668.001,421.738 669.632,421.159 668.537,423.511C667.107,426.582 659.504,439.308 656.091,444.083C655.178,445.36 644.609,445.029 615.499,445.115C603.415,445.15 592.875,450.982 594.318,428.483C594.87,419.878 599.24,421.641 665.501,421.535Z" style="fill:rgb(146,189,67);"/>
        <path d="M240.438,145.508C249.724,214.551 251.186,215.394 246.287,222.362C234.915,238.532 231.864,242.2 231.732,239.437C230.657,216.992 231.857,119.911 231.986,109.518C232.263,87.09 240.028,142.579 240.438,145.508Z" style="fill:rgb(9,136,94);"/>
        <path d="M842.51,562.495C844.098,569.239 817.757,609.704 816.497,609.738C815.349,609.77 814.285,609.185 814.588,528.504C814.646,513.209 836.524,552.669 842.51,562.495Z" style="fill:rgb(130,49,107);"/>
        <path d="M850.745,571.657C853.487,568.063 854.054,568.482 868.493,567.646C872.917,567.39 870.432,593.423 870.416,593.473C864.462,612.779 842.994,609.56 831.499,609.508C828.102,609.492 830.443,607.02 850.745,571.657Z" style="fill:rgb(4,134,95);"/>
        <path d="M242.875,885.486C243.267,900.563 244.908,917.236 241.479,917.27C240.716,917.277 232.134,917.362 232.088,915.591C231.939,909.926 232.106,809.074 232.09,807.485C232.018,800.445 240.576,808.455 240.616,809.47C240.856,815.549 240.78,815.507 242.875,885.486Z" style="fill:rgb(204,37,50);"/>
        <path d="M680.502,421.562C694.755,421.499 706.58,419.875 709.192,425.622C715.068,438.547 704.634,449.677 703.196,451.21C701.98,452.508 701.201,453.383 671.654,439.193C666.708,436.818 674.079,424.017 680.502,421.562Z" style="fill:rgb(223,220,47);"/>
        <path d="M354.67,467.561C356.365,463.304 362.647,447.156 363.337,445.38C364.238,443.064 366.788,447.89 366.96,448.215C377.521,468.2 378.646,468.193 377.755,470.577C374.535,479.198 374.482,478.968 371.537,487.515C370.301,491.103 360.144,491.354 347.5,492.506C345.252,492.711 345.658,490.834 354.67,467.561Z" style="fill:rgb(2,138,95);"/>
        <path d="M475.681,504.493C476.243,496.061 473.83,494.704 478.697,491.779C481.288,490.222 481.475,490.533 516.472,490.769C520.29,490.794 511.593,510.288 507.499,510.489C478.066,511.933 477.05,509.79 475.681,504.493Z" style="fill:rgb(156,193,68);"/>
        <path d="M525.754,493.631C527.762,490.729 527.916,490.783 531.501,490.7C532.934,490.667 546.946,490.345 549.417,490.851C554.458,491.882 553.9,504.313 553.844,505.539C553.719,508.325 553.524,512.669 519.386,510.79C517.924,510.71 518.009,509.677 525.754,493.631Z" style="fill:rgb(228,222,47);"/>
        <path d="M861.446,440.354C868.853,437.677 870.446,435.352 870.624,438.454C870.903,443.3 871.015,481.74 871.026,485.504C871.041,490.626 869.429,491.244 864.672,489.15C862.94,488.388 860.679,473.797 857.768,458.454C855.748,447.808 851.541,444.739 861.446,440.354Z" style="fill:rgb(56,68,142);"/>
        <path d="M375.331,498.446C376.032,496.305 383.315,474.055 384.944,471.979C386.434,470.081 388.533,471.389 397.062,499.608C398.646,504.849 378.007,502.678 377.482,502.663C374.487,502.574 375.359,501.35 375.331,498.446Z" style="fill:rgb(5,139,98);"/>
        <path d="M615.5,577.304C614.773,577.304 604.687,577.304 606.583,575.563C606.656,575.495 619.651,565.83 620.787,564.984C624.429,562.276 622.405,569.071 622.298,569.431C620.576,575.213 621.444,576.895 615.5,577.304Z" style="fill:rgb(40,120,188);"/>
    </g>
</svg>
