<?xml version="1.0" encoding="UTF-8" standalone="no"?>
<!DOCTYPE svg PUBLIC "-//W3C//DTD SVG 1.1//EN" "http://www.w3.org/Graphics/SVG/1.1/DTD/svg11.dtd">
<svg width="100%" height="100%" viewBox="0 0 1024 1024" version="1.1" xmlns="http://www.w3.org/2000/svg" xmlns:xlink="http://www.w3.org/1999/xlink" xml:space="preserve" xmlns:serif="http://www.serif.com/" style="fill-rule:evenodd;clip-rule:evenodd;stroke-linejoin:round;stroke-miterlimit:2;">
    <g>
        <path d="M739.546,685.096C688.767,680.077 686.724,681.087 678.857,669.277C672.256,659.366 683.731,587.295 684.57,586.594C688.271,583.499 773.708,589.384 781.444,589.917C787.411,590.328 789.469,601.974 789.627,602.456C805.384,650.427 813.05,660.211 793.259,670.043C748.348,692.357 740.331,685.148 739.546,685.096Z" style="fill:rgb(28,111,87);"/>
        <path d="M514.513,581.079C533.634,582.511 539.552,580.61 538.048,593.439C528.133,678.057 529.366,682.481 522.49,681.643C521.809,681.56 420.036,653.871 420.434,649.498C420.587,647.822 434.038,605.713 469.721,589.973C486.648,582.506 510.865,581.266 514.513,581.079Z" style="fill:rgb(32,135,187);"/>
        <path d="M478.455,762.863C461.094,758.916 442.176,754.394 425.819,725.325C409.277,695.926 415.224,668.352 416.28,663.457C418.444,653.419 422.617,657.488 427.647,659.054C519.179,687.558 522.744,685.171 523.438,692.501C523.983,698.269 521.607,697.71 491.215,757.36C486.63,766.357 484.324,763.325 478.455,762.863Z" style="fill:rgb(26,76,82);"/>
        <path d="M309.505,494.852C346.937,493.964 359.18,492.966 361.145,495.759C384.967,529.621 381.99,531.477 386.037,572.557C386.1,573.19 386.761,579.904 383.463,580.076C343.442,582.162 343.546,581.242 303.519,582.911C300.764,583.025 297.46,583.163 282.886,555.3C275.72,541.599 287.553,528.99 288.458,529.572C306.777,541.371 317.092,527.426 316.673,523.493C315.006,507.85 290.727,520.576 294.394,510.463C298.59,498.893 297.204,495.406 309.505,494.852ZM357.543,547.577C376.223,534.115 355.465,522.137 351.383,520.849C326.641,513.038 330.909,556.426 357.543,547.577ZM321.731,541.342C321.128,540.731 316.676,536.215 311.595,537.812C305.928,539.593 304.169,544.799 303.888,545.631C298.259,562.29 331.007,561.954 321.731,541.342Z" style="fill:rgb(29,112,88);"/>
        <path d="M149.067,684.559C148.389,680.233 142.387,641.951 140.96,630.433C140.25,624.702 139.764,622.46 145.466,622.918C212.111,628.275 212.196,628.171 217.629,630.208C230.984,635.217 226.133,656.46 221.692,680.53C219.401,692.943 189.136,725.227 186.602,725.881C148.833,735.636 149.601,688.127 149.067,684.559Z" style="fill:rgb(27,76,82);"/>
        <path d="M674.914,618.544C670.998,657.632 672.66,661.974 662.503,663.525C622.307,669.664 621.059,669.523 619.847,666.326C610.787,642.442 598.796,607.435 557.734,585.114C549.74,580.769 561.768,583.064 651.501,584.822C675.13,585.285 675.519,585.58 677.159,586.825C678.999,588.222 675.947,609.3 674.914,618.544Z" style="fill:rgb(32,134,188);"/>
        <path d="M293.439,652.38C289.054,653.984 282.34,656.439 236.523,639.44C216.872,632.149 224.32,618.378 232.991,598.716C237.242,589.076 240.061,591.317 277.497,589.459C338.009,586.455 340.624,585.383 342.365,591.537C347.639,610.184 353.451,614.327 337.194,625.035C315.526,639.308 315.498,638.807 293.439,652.38Z" style="fill:rgb(26,76,82);"/>
        <path d="M317.333,404.201C325.284,401.439 328.587,403.639 360.578,411.173C368.489,413.036 384.079,414.47 384.573,420.497C387.678,458.405 369.242,463.61 365.54,464.655C353.49,468.056 274.815,467.494 274.508,467.461C271.616,467.153 275.868,449.004 276.235,447.439C277.576,441.717 272.18,436.524 317.333,404.201Z" style="fill:rgb(28,111,88);"/>
        <path d="M308.63,716.397C298.341,702.607 292.788,697.335 292.17,687.51C290.525,661.408 292.962,658.541 301.787,652.967C350.293,622.33 351.152,621.626 356.331,623.886C371.761,630.619 368.322,634.71 366.521,651.502C359.667,715.418 358.887,717.61 353.48,718.016C313.525,721.017 311.241,718.861 308.63,716.397Z" style="fill:rgb(29,112,88);"/>
        <path d="M170.093,365.474C170.577,360.704 170.645,343.387 176.792,333.702C179.851,328.883 186.098,319.042 247.469,323.914C258.398,324.781 257.116,350.822 255.773,353.627C253.209,358.982 226.926,386.491 226.176,387.099C203.827,405.199 202.135,404.537 173.56,401.13C167.262,400.379 169.098,387.623 170.093,365.474Z" style="fill:rgb(30,111,88);"/>
        <path d="M783.509,470.15C776.747,469.204 775.502,470.57 774.967,467.384C774.876,466.842 774.115,455.021 773.976,449.48C773.72,439.227 773.197,430.901 834.677,402.871C844.552,398.369 851.631,405.069 858.247,408.914C866.01,413.426 863.359,422.303 862.078,435.452C858.168,475.587 843.824,470.455 783.509,470.15Z" style="fill:rgb(29,112,88);"/>
        <path d="M342.461,328.908C376.506,332.342 385.187,334.216 385.332,375.501C385.45,409.401 385.325,411.151 382.504,410.853C381.338,410.73 335.926,400.669 333.622,400.047C302.996,391.765 319.423,366.142 333.4,333.455C335.646,328.203 336.792,329.331 342.461,328.908Z" style="fill:rgb(33,135,189);"/>
        <path d="M931.78,548.585C920.185,584.675 918.759,591.986 882.517,590.037C876.467,589.711 876.664,587.208 864.256,563.627C860.141,555.807 856.055,551.761 862.766,544.738C874.449,532.512 875.807,532.347 876.253,533.67C885.301,560.504 906.436,532.417 893.597,516.431C892.053,514.508 902.741,502.699 908.507,502.668C952.022,502.436 938.101,527.387 931.78,548.585Z" style="fill:rgb(91,64,123);"/>
        <path d="M561.421,686.381C554.003,690.132 533.476,689.624 533.63,677.502C533.657,675.341 543.255,588.274 543.614,587.566C549.263,576.44 605.777,626.711 599.326,637.402C598.982,637.971 598.965,637.948 580.959,661.844C568.922,677.82 569.814,678.563 561.421,686.381Z" style="fill:rgb(215,50,54);"/>
        <path d="M792.779,329.621C797.203,322.253 798.997,325.248 807.493,325.157C809.469,325.136 830.204,324.37 831.626,326.394C834.668,330.724 837.735,382.617 838.025,387.526C838.54,396.247 832.161,400.505 806.355,411.111C801.568,413.078 798.701,412.52 776.993,386.139C771.733,379.746 774.352,374.41 792.779,329.621Z" style="fill:rgb(33,134,188);"/>
        <path d="M529.455,694.457C531.213,693.212 539.069,687.65 556.381,694.79C561.02,696.703 565.412,698.515 575.721,754.46C578.485,769.461 495.739,764.424 495.575,764.326C491.979,762.184 527.301,697.369 529.455,694.457Z" style="fill:rgb(30,112,88);"/>
        <path d="M604.085,548.436C606.415,534.684 604.911,534.285 608.502,529.501C610.668,526.616 611.092,526.353 652.57,519.923C666.144,517.819 666.662,523.877 676.162,539.703C677.724,542.306 683.041,551.163 675.982,577.657C674.897,581.729 655.796,579.551 647.504,579.338C607.83,578.321 607.94,578.574 604.501,578.467C598.14,578.27 601.686,565.357 604.085,548.436Z" style="fill:rgb(91,64,123);"/>
        <path d="M606.698,352.389C613.822,368.272 615.608,369 609.007,385.31C593.675,423.187 592.604,424.114 587.494,423.855C562.481,422.59 542.148,425.672 543.479,400.499C544.632,378.681 538.802,373.372 558.732,363.99C599.57,344.764 600.685,343.919 603.132,346.836C603.472,347.24 603.396,347.247 606.698,352.389Z" style="fill:rgb(29,112,88);"/>
        <path d="M805.089,633.628C794.832,603.621 790.21,592.704 793.609,590.719C794.838,590.002 888.348,595.42 894.537,596.331C900.247,597.171 895.906,617.175 894.305,618.237C892.462,619.46 818.291,646.494 816.369,647.084C808.491,649.504 806.765,638.094 805.089,633.628Z" style="fill:rgb(215,50,53);"/>
        <path d="M723.792,433.624C703.841,468.642 699.086,468.469 695.506,468.339C664.05,467.194 663.851,452.199 662.985,412.501C662.691,399.032 667.411,400.833 680.402,397.18C690.638,394.301 718.201,382.059 720.834,401.438C724.788,430.533 724.437,430.574 723.792,433.624Z" style="fill:rgb(26,77,82);"/>
        <path d="M779.506,326.23C787.528,327.086 787.095,329.965 784.201,337.393C768.938,376.571 769.271,378.448 758.564,381.686C730.425,390.194 712.77,398.483 711.936,374.481C710.501,333.141 709.377,330.54 714.573,329.897C735.729,327.279 774.305,326.354 779.506,326.23Z" style="fill:rgb(245,194,61);"/>
        <path d="M406.496,716.414C373.626,717.422 362.924,719.087 363.375,714.496C363.996,708.173 370.643,640.486 373.948,635.786C376.482,632.181 423.623,626.601 419.254,639.42C405.275,680.433 408.03,681.354 415.129,714.485C415.432,715.896 407.202,716.373 406.496,716.414Z" style="fill:rgb(26,76,81);"/>
        <path d="M390.107,567.545C385.192,532.412 385.309,532.453 385.316,531.491C385.35,526.515 388.105,523.898 447.514,532.399C453.176,533.209 451.315,538.754 452.347,542.544C455.505,554.142 475.298,557.975 475.308,557.978C478.49,559.058 473.615,576.915 471.528,577.558C468.288,578.557 400.657,579.576 394.492,579.669C390.285,579.732 390.189,568.122 390.107,567.545Z" style="fill:rgb(29,112,88);"/>
        <path d="M271.64,431.406C275.723,440.098 268.099,467.535 264.58,467.987C262.594,468.243 217.304,468.436 214.572,467.332C213.088,466.733 202.68,410.483 211.884,402.908C224.346,392.65 227.044,390.281 239.085,400.973C266.196,425.048 269.321,428.698 271.64,431.406Z" style="fill:rgb(215,50,54);"/>
        <path d="M808.591,538.109C845.519,549.067 851.917,550.585 855.217,556.674C868.9,581.92 873.472,589.496 867.519,589.182C845.846,587.955 824.173,586.728 802.5,585.5C768.399,583.557 762.602,585.953 765.878,580.681C768.419,576.591 796.907,538.391 802.465,537.327C802.95,537.234 802.918,537.385 808.591,538.109Z" style="fill:rgb(246,196,61);"/>
        <path d="M894.075,632.452C884.649,696.565 885.272,701.073 880.387,698.738C810.85,665.506 805.357,664.523 809.78,657.689C814.048,651.094 833.056,646.35 869.579,632.71C871.463,632.007 892.3,624.225 893.423,624.744C894.771,625.368 894.136,631.836 894.075,632.452Z" style="fill:rgb(33,134,188);"/>
        <path d="M480.251,414.42C481.024,412.585 488.396,395.092 499.468,398.609C544.122,412.794 543.047,416.052 545.448,421.522C547.241,425.606 537.059,463.158 530.457,464.07C504.798,467.614 504.84,463.302 484.857,447.051C469.658,434.69 475.911,430.82 480.251,414.42Z" style="fill:rgb(32,136,189);"/>
        <path d="M263.594,358.082C295.17,371.339 331.47,385.921 307.166,406.094C279.23,429.282 277.053,428.446 272.772,425.13C269.389,422.509 234.727,395.656 234.776,387.479C234.794,384.529 254.184,358.376 263.594,358.082Z" style="fill:rgb(28,111,88);"/>
        <path d="M805.118,721.564C803.597,714.049 803.512,714.277 802.117,706.573C800.18,695.877 800.141,696.084 797.979,685.41C792.366,657.696 814.456,672.838 844.602,687.283C872.724,700.758 882.712,703.065 881.451,709.489C876.142,736.527 849.453,729.831 821.483,727.827C811.355,727.101 807.829,731.283 805.118,721.564Z" style="fill:rgb(30,111,88);"/>
        <path d="M205.501,497.745C285.607,495.242 285.825,493.48 292.397,495.752C296.164,497.055 277.474,544.713 271.452,545.2C250.26,546.913 241.013,540.533 238.826,539.024C201.951,513.584 201.179,514.017 199.931,510.333C194.651,494.749 204.06,497.887 205.501,497.745Z" style="fill:rgb(32,134,187);"/>
        <path d="M738.496,559.502C731.619,547.095 728.17,543.69 740.261,536.103C757.504,525.284 745.834,518.179 746.897,514.582C753.127,493.498 759.368,498.032 781.487,498.789C787.332,498.989 788.498,504.302 796.16,528.601C797.622,533.234 797.298,534.208 761.273,578.314C751.746,589.979 747.02,574.64 738.496,559.502Z" style="fill:rgb(29,111,88);"/>
        <path d="M893.517,502.04C896.314,502.465 897.383,503.25 895.374,505.397C857.033,546.382 855.289,546.194 850.493,545.676C847.742,545.379 806.732,533.85 802.502,529.498C801.895,528.873 788.659,499.57 794.466,499.073C802.365,498.397 802.319,499.46 893.517,502.04ZM857.435,536.424C858.597,535.083 869.863,522.087 862.24,514.774C849.095,502.166 830.086,550.06 857.435,536.424Z" style="fill:rgb(92,65,123);"/>
        <path d="M169.872,585.425C162.491,545.836 161.852,545.878 162.341,542.465C162.783,539.379 171.817,533.539 172.766,532.926C195.605,518.162 197.569,516.712 208.182,523.964C214.015,527.95 208.524,528.556 202.826,532.887C186.801,545.066 208.414,562.631 217.569,564.07C234.006,566.653 232.817,540.752 237.34,543.775C244.109,548.299 235.477,558.342 233.992,560.798C221.67,581.174 221.348,587.098 210.504,587.638C175.342,589.39 172.037,591.275 169.872,585.425Z" style="fill:rgb(30,112,88);"/>
        <path d="M673.51,719.196C620.187,717.3 616.382,718.836 617.825,714.606C625.248,692.847 622.958,689.517 622.3,676.493C622.032,671.194 667.826,666.731 672.488,669.518C685.583,677.347 680.825,703.456 679.875,714.537C679.313,721.083 673.915,719.147 673.51,719.196Z" style="fill:rgb(90,65,122);"/>
        <path d="M126.393,590.729C119.028,585.805 117.141,581.234 110.213,558.593C109.24,555.413 101.318,534.647 106.507,534.789C128.834,535.397 148.844,531.832 156.214,542.691C157.924,545.21 165.663,587.263 165.654,587.502C165.504,591.429 136.01,593.514 126.393,590.729Z" style="fill:rgb(90,64,122);"/>
        <path d="M577.501,550.502C586.179,543.068 584.657,541.857 585.347,533.475C585.71,529.069 598.003,531.567 600.217,532.873C602.32,534.112 596.621,576.623 593.622,577.786C592.035,578.401 539.353,578.863 537.487,578.7C484.128,574.046 483.271,579.203 479.62,576.35C477.063,574.351 481.563,561.847 481.703,561.601C484.546,556.59 539.754,572.402 577.501,550.502Z" style="fill:rgb(31,112,89);"/>
        <path d="M745.49,497.686C746.651,498.146 752.726,500.555 741.782,512.86C741.713,512.937 714.074,507.556 714.227,526.5C714.34,540.475 733.822,542.304 723.487,543.433C687.745,547.337 682.615,540.247 680.584,537.439C676.526,531.83 663.079,516.198 669.98,498.669C671.787,494.078 679.329,495.838 745.49,497.686Z" style="fill:rgb(29,111,89);"/>
        <path d="M351.226,606.586C351.101,606.137 344.999,589.272 347.723,586.775C349.35,585.284 413.76,584.006 415.534,584.424C418.347,585.088 411.379,625.066 403.525,626.602C355.642,635.963 351.49,607.278 351.226,606.586Z" style="fill:rgb(246,196,61);"/>
        <path d="M790.556,420.566C766.487,437.963 764.654,436.966 735.61,431.071C729.484,429.828 728.385,422.494 728.242,421.541C726.92,412.72 721.578,397.052 734.401,393.192C766.568,383.507 768.284,384.514 775.175,391.791C778.329,395.121 791.759,410.039 793.131,412.71C795.681,417.671 791.068,419.948 790.556,420.566Z" style="fill:rgb(29,111,88);"/>
        <path d="M212.72,703.686C221.118,694.539 221.022,694.556 221.79,693.807C225.214,690.467 226.337,689.372 281.439,697.91C295.41,700.075 304.092,718.354 303.291,719.302C301.649,721.246 206.893,725.129 198.503,725.473C192.468,725.721 206.91,710.676 212.72,703.686Z" style="fill:rgb(33,134,188);"/>
        <path d="M677.401,334.274C679.355,333.743 695.521,329.344 702.548,331.383C709.499,333.4 706.988,375.681 706.758,379.542C706.443,384.855 702.156,387.287 668.564,395.813C668.06,395.941 662.949,397.238 662.977,392.485C663.234,347.817 662.445,343.02 677.401,334.274Z" style="fill:rgb(213,50,54);"/>
        <path d="M701.475,685.944C748.342,690.528 753.743,689.828 755.199,698.549C759.131,722.113 757.268,723.899 753.491,723.685C748.128,723.382 687.482,719.957 686.469,719.577C683.422,718.434 684.007,685.977 690.46,685.255C690.46,685.255 700.594,685.889 701.475,685.944Z" style="fill:rgb(30,111,88);"/>
        <path d="M844.963,303.726C847.371,301.127 875.89,293.37 884.039,309.708C886.985,315.613 888.538,379.163 888.452,386.5C888.391,391.691 868.99,393.992 868.837,388.489C867.473,339.479 870.588,333.269 842.756,321.054C840.748,320.173 844.616,305.08 844.963,303.726Z" style="fill:rgb(33,110,88);"/>
        <path d="M298.512,326.269C319.556,327.363 330.424,326.797 328.518,332.506C327.421,335.79 318.876,361.373 311.118,372.126C309.444,374.447 264.003,357.541 261.289,344.551C260.966,343.008 257.389,325.886 259.705,324.915C260.324,324.655 260.309,324.357 298.512,326.269Z" style="fill:rgb(31,112,89);"/>
        <path d="M213.486,592.292C217.824,592.126 222.156,591.816 226.495,591.65C233.123,591.397 219.594,621.613 215.38,623.148C209.552,625.273 152.947,618.747 147.541,618.124C134.911,616.667 137.492,612.132 137.762,599.52C137.84,595.843 144.817,596.208 213.486,592.292Z" style="fill:rgb(33,134,188);"/>
        <path d="M228.17,670.46C228.509,668.35 230.289,649.614 234.58,646.622C234.907,646.394 235.458,643.656 276.459,656.631C284.694,659.237 288.779,662.212 287.283,689.467C286.995,694.723 281.451,693.09 242.547,688.161C225.986,686.063 226.987,681.71 228.17,670.46Z" style="fill:rgb(215,51,53);"/>
        <path d="M660.483,313.085C662.067,313.026 679.604,312.372 680.295,312.846C681.934,313.969 683.62,323.492 683.789,324.446C684.884,330.633 681.305,328.352 675.486,330.468C649.757,339.823 664.623,380.82 655.506,382.54C637.498,385.937 646.632,373.42 640.689,352.443C634.815,331.71 617.565,338.458 621.813,323.591C625.573,310.434 630.01,313.515 660.483,313.085Z" style="fill:rgb(31,111,89);"/>
        <path d="M448.469,527.882C417.561,524.449 402.336,523.654 400.759,520.399C399.89,518.603 402.09,494.686 405.606,493.823C410.247,492.683 466.247,493.202 471.52,493.251C475.365,493.287 474.533,494.795 473.813,498.564C471.481,510.773 473.47,512.727 462.721,518.882C455.127,523.232 457.187,527.214 448.469,527.882Z" style="fill:rgb(92,63,122);"/>
        <path d="M428.111,389.427C434.219,367.772 433.604,367.563 435.598,365.593C437.293,363.92 479.703,377.248 483.513,380.487C494.688,389.988 484.593,400.228 483.417,401.421C478.172,406.742 477.396,407.309 431.505,404.4C424.152,403.934 426.58,399.541 428.111,389.427Z" style="fill:rgb(90,63,121);"/>
        <path d="M156.274,302.313C156.985,301.651 161.222,297.709 167.502,297.704C175.825,297.697 221.762,300.617 226.478,300.916C230.398,301.166 231.172,303.92 230.099,316.45C229.317,325.585 194.515,307.76 174.058,330.119C166.762,338.094 165.192,333.415 154.541,331.286C147.581,329.895 150.466,310.892 156.274,302.313Z" style="fill:rgb(32,112,89);"/>
        <path d="M170.184,421.528C170.008,411.061 164.935,405.38 175.488,405.748C196.173,406.468 201.848,406.25 203.048,416.565C208.619,464.448 209.505,467.025 205.461,467.066C170.802,467.417 172.722,444.873 170.184,421.528Z" style="fill:rgb(30,112,89);"/>
        <path d="M529.591,404.23C521.474,401.521 499.747,394.682 495.822,392.055C492.544,389.861 488.447,379.842 489.588,376.52C496.469,356.489 513.582,359.15 527.499,358.484C541.648,357.808 542.345,366.761 538.818,402.547C538.279,408.011 529.864,404.294 529.591,404.23Z" style="fill:rgb(246,195,62);"/>
        <path d="M397.505,311.157C408.977,311.621 420.906,310.603 422.173,315.586C425.055,326.927 429.573,329.533 419.613,335.674C402.521,346.212 411.539,370.712 403.501,370.831C402.34,370.848 389.986,371.03 389.658,366.475C388.238,346.714 390.024,345.224 375.934,331.144C373.875,329.086 378.921,322.138 379.833,320.712C386.96,309.57 388.541,310.847 397.505,311.157Z" style="fill:rgb(27,75,82);"/>
        <path d="M547.58,436.528C548.05,435.422 549.378,427.97 554.522,426.599C558.925,425.425 586.71,428.23 589.498,428.511C593.19,428.884 601.485,443.187 602.311,444.611C607.399,453.384 577.102,465.988 544.523,464.105C536.803,463.658 540.905,456.307 547.58,436.528Z" style="fill:rgb(246,195,61);"/>
        <path d="M133.565,512.457C132.912,511.51 125.657,500.987 125.599,500.488C125.392,498.693 131.002,498.528 131.5,498.514C190.66,496.778 192.953,495.729 194.115,500.604C198.05,517.114 185.292,519.894 173.798,526.966C151.823,540.488 148.424,533.519 133.565,512.457Z" style="fill:rgb(246,195,60);"/>
        <path d="M730.521,582.168C682.928,580.277 681.797,580.908 681.221,578.574C680.807,576.897 684.015,552.9 685.241,550.364C686.47,547.821 687.197,547.304 720.496,548.618C727.461,548.892 728.077,549.96 744.039,578.74C748.564,586.899 740.692,582.266 730.521,582.168Z" style="fill:rgb(28,111,88);"/>
        <path d="M279.395,558.564C285.696,569.26 295.638,583.305 289.548,583.872C284.597,584.334 256.862,586.919 227.469,586.823C220.932,586.802 244.676,548.813 249.516,548.752C277.895,548.394 277.87,556.478 279.395,558.564Z" style="fill:rgb(214,51,55);"/>
        <path d="M578.073,742.573C571.595,710.44 567.759,701.319 573.644,698.856C576.46,697.678 611.912,696.081 614.532,696.2C621.097,696.497 610.338,733.081 586.177,752.057C579.229,757.514 580.134,751.008 578.073,742.573Z" style="fill:rgb(31,112,89);"/>
        <path d="M410.164,468.382C409.719,469.591 406.51,482.784 402.515,482.801C350.352,483.026 348.695,485.386 346.81,481.346C346.454,480.583 344.298,471.148 349.526,470.754C353.888,470.425 369.881,472.385 381.311,459.343C388.645,450.976 386.024,433.824 391.496,433.438C406.99,432.343 403.987,438.382 405.238,443.565C407.112,451.331 408.028,450.802 412.397,457.558C413.987,460.016 412.692,460.147 410.164,468.382Z" style="fill:rgb(29,112,89);"/>
        <path d="M149.812,453.487C148.9,435.528 146.925,423.237 151.593,421.862C152.557,421.578 165.209,420.427 166.067,424.585C171.451,450.695 164.748,456.699 189.392,469.646C191.019,470.501 192.211,487.091 185.501,487.513C151.02,489.678 151.114,479.662 149.812,453.487Z" style="fill:rgb(31,112,89);"/>
        <path d="M729.439,437.362C731.843,436.74 736.53,435.527 760.454,438.783C774.269,440.664 769.427,469.217 769.34,469.279C767.55,470.56 709.466,468.717 709.419,468.706C704.371,467.55 724.686,440.474 729.439,437.362Z" style="fill:rgb(91,65,122);"/>
        <path d="M844.612,326.109C855.679,330.518 865.319,330.783 864.376,392.498C864.241,401.323 865.538,406.817 857.667,403.133C839.837,394.787 842.672,390.455 838.059,337.538C837.324,329.106 836.08,325.476 844.612,326.109Z" style="fill:rgb(213,54,54);"/>
        <path d="M449.433,342.432C451.629,340.695 457.525,333.71 470.556,331.981C482.644,330.376 483.514,333.379 485.218,336.655C494.517,354.531 499.704,357.112 486.321,372.334C483.936,375.047 482.989,374.714 442.472,361.587C433.274,358.607 445.316,347.083 449.433,342.432Z" style="fill:rgb(36,135,190);"/>
        <path d="M794.529,726.033C770.827,724.583 764.366,724.274 763.509,723.489C761.699,721.83 760.517,703.279 760.404,701.506C759.546,688.031 764.15,686.808 786.63,677.89C792.93,675.39 794.056,688.128 798.307,710.536C800.254,720.8 805.039,726.166 794.529,726.033Z" style="fill:rgb(89,65,123);"/>
        <path d="M865.976,438.552C867.673,419.479 867.741,419.614 868.373,400.498C868.638,392.499 886.667,394.614 887.901,396.247C890.447,399.617 885.874,462.727 885.456,468.495C884.915,475.971 860.833,462.648 861.479,460.497C864.773,449.527 864.491,449.682 865.976,438.552Z" style="fill:rgb(37,133,189);"/>
        <path d="M604.524,691.924C586.8,693.097 561.39,697.414 570.586,684.557C599.67,643.894 602.697,641.115 606.008,645.857C607.221,647.594 617.342,667.354 618.154,684.505C618.606,694.039 614.158,691.201 604.524,691.924Z" style="fill:rgb(246,196,60);"/>
        <path d="M643.492,494.79C658.591,495.092 667.55,490.591 664.053,505.386C661.293,517.061 653.7,515.213 625.586,519.989C620.696,520.82 608.868,525.333 605.71,517.406C597.374,496.484 597.916,495.526 599.608,494.705C601.317,493.877 621.817,494.308 643.492,494.79Z" style="fill:rgb(34,135,188);"/>
        <path d="M592.744,496.337C597.893,509.389 608.678,527.102 594.491,527.155C587.55,527.181 586.481,528.799 580.381,521.608C569.733,509.055 532.815,512.284 533.263,505.494C533.327,504.527 534.028,493.894 536.522,493.831C589.155,492.514 589.663,493.055 592.744,496.337Z" style="fill:rgb(91,64,121);"/>
        <path d="M438.705,444.319C433.746,437.437 428.254,432.941 426.486,413.501C426.004,408.196 430.434,408.951 432.511,409.009C465.403,409.929 475.221,410.648 475.084,414.5C474.325,435.806 464.558,440.299 462.404,441.29C447.419,448.183 445.957,451.089 438.705,444.319Z" style="fill:rgb(246,195,62);"/>
        <path d="M459.568,545.428C458.787,544.166 452.227,533.578 459.87,526.88C471.558,516.636 497.27,513.839 499.47,513.835C503.364,513.828 500.819,537.98 496.225,541.099C478.939,552.835 476.604,557.492 459.568,545.428Z" style="fill:rgb(30,112,88);"/>
        <path d="M837.498,301.438C842.821,302.072 839.075,310.324 836.623,317.545C834.967,322.423 826.916,320.822 809.501,321.084C789.915,321.378 790.157,321.66 770.494,322.071C765.589,322.173 766.297,310.542 766.362,309.484C766.564,306.165 768.347,306.17 837.498,301.438Z" style="fill:rgb(91,66,123);"/>
        <path d="M306.058,316.495C306.905,309.496 305.434,306.723 312.479,306.904C317.692,307.038 364.92,308.248 377.582,310.099C378.962,310.301 382.067,312.103 371.346,326.37C369.326,329.057 368.462,326.088 321.518,323.203C311.324,322.577 306.382,326.787 306.058,316.495Z" style="fill:rgb(32,110,89);"/>
        <path d="M497.232,350.635C496.559,349.279 489.186,334.431 489.135,333.53C488.951,330.287 508.037,331.142 508.496,331.135C544.722,330.597 548.078,332.186 546.007,336.286C538.388,351.368 535.382,353.287 532.548,353.81C503.073,359.249 498.824,352.983 497.232,350.635Z" style="fill:rgb(213,53,55);"/>
        <path d="M704.52,310.868C743.83,308.711 758.264,307.476 760.463,307.645C763.869,307.905 761.922,319.54 761.75,320.564C761.326,323.101 760.013,322.496 706.478,326.039C694.329,326.843 690.293,331.115 686.971,319.368C683.494,307.073 691.712,311.638 704.52,310.868Z" style="fill:rgb(32,111,89);"/>
        <path d="M234.103,304.499C234.511,302.509 234.403,302.629 234.511,302.509C237.522,299.165 294.285,305.277 299.457,305.834C304.751,306.404 302.851,322.266 297.487,321.983C248.846,319.424 248.997,319.647 238.519,319.219C233.331,319.008 234.33,307.149 234.103,304.499Z" style="fill:rgb(92,66,122);"/>
        <path d="M435.494,483.111C426.529,483.129 409.44,485.048 410.945,479.615C415.733,462.329 417.06,462.201 418.445,462.719C468.218,481.321 493.034,456.105 488.542,480.51C488.072,483.062 486.916,482.482 435.494,483.111Z" style="fill:rgb(91,64,120);"/>
        <path d="M414.227,620.445C417.565,604.847 421.328,585.768 424.275,584.151C426.991,582.661 465.146,582.781 465.328,582.851C466.312,583.225 466.696,584.779 455.786,591.909C433.682,606.353 424.854,629.288 421.586,629.907C413.117,631.514 414.131,621.399 414.227,620.445Z" style="fill:rgb(92,66,124);"/>
        <path d="M655.48,482.947C654.464,482.779 653.414,482.894 652.398,482.727C648.13,482.023 667.773,464.477 671.523,466.457C689.041,475.707 699.664,472.717 743.486,473.865C746.809,473.952 750.494,485.607 740.505,485.296C704.351,484.169 704.572,484.122 668.504,483.287C664.163,483.186 659.822,483.047 655.48,482.947Z" style="fill:rgb(33,110,89);"/>
        <path d="M504.864,524.538C506.066,515.68 503.814,513.284 508.455,513.107C511.415,512.995 527.893,512.368 545.444,514.817C551.771,515.7 540.705,534.077 537.306,536.194C520.01,546.967 508.913,540.198 506.512,539.469C502.362,538.209 504.629,527.462 504.864,524.538Z" style="fill:rgb(31,111,88);"/>
        <path d="M494.496,313.629C495.431,313.899 502.281,315.879 498.038,325.268C496.078,329.603 491.81,322.77 432.492,330.4C428.979,330.852 422.97,312.785 430.502,312.698C434.257,312.654 471.994,313.461 494.496,313.629Z" style="fill:rgb(31,107,89);"/>
        <path d="M550.54,337.524C553.797,332.964 553.877,330.414 574.539,332.14C576.31,332.288 589.862,333.421 595.498,339.502C598.259,342.481 546.933,366.335 543.801,363.193C536.951,356.319 547.54,342.766 550.54,337.524Z" style="fill:rgb(37,134,188);"/>
        <path d="M560.504,469.849C564.83,469.844 600.605,469.805 614.545,467.908C621.04,467.024 624.49,463.934 624.111,470.488C623.609,479.175 625.259,482.581 616.499,482.562C552.231,482.418 548.914,485.804 547.901,479.429C546.308,469.403 550.328,469.945 560.504,469.849Z" style="fill:rgb(26,72,78);"/>
        <path d="M292.499,472.188C314.001,471.873 313.869,471.649 335.493,471.101C346.073,470.833 342.058,482.948 339.473,483.025C334.356,483.176 334.428,482.819 275.498,484.428C263.403,484.758 257.425,489.594 257.511,477.5C257.56,470.459 266.393,472.231 292.499,472.188Z" style="fill:rgb(31,109,87);"/>
        <path d="M560.521,313.941C605.988,313.428 619.634,312.642 619.669,315.479C619.861,330.957 610.869,329.785 609.488,329.605C568.969,324.324 548.967,329.982 548.408,323.51C547.521,313.245 551.354,314.208 560.521,313.941Z" style="fill:rgb(31,105,86);"/>
        <path d="M844.513,489.055C830.593,488.668 823.284,493.534 824.456,479.495C825.22,470.34 829.372,474.281 838.506,473.561C854.841,472.275 854.139,463.555 863.383,467.747C882.361,476.353 883.323,476.906 882.191,479.382C875.817,493.333 851.712,489.241 844.513,489.055Z" style="fill:rgb(214,53,55);"/>
        <path d="M644.05,410.494C644.173,400.55 641.913,387.422 649.514,386.963C653.499,386.721 658.327,386.61 658.571,390.495C658.841,394.805 661.53,437.652 660.283,444.452C659.883,446.632 646.687,445.535 645.507,445.437C640.501,445.02 643.191,442.307 644.05,410.494Z" style="fill:rgb(30,109,88);"/>
        <path d="M127.539,511.471C128.553,512.899 143.118,529.293 134.476,530.173C131.885,530.437 103.91,533.284 101.98,528.276C91.712,501.619 106.122,499.64 108.474,499.317C120.971,497.601 120.319,501.202 127.539,511.471Z" style="fill:rgb(35,134,190);"/>
        <path d="M784.501,474.473C818.651,474.475 820.937,473.814 820.664,477.503C820.484,479.947 821.617,488.264 815.512,488.051C752.936,485.867 750.25,486.475 750.15,481.502C750.137,480.858 749.874,475.2 752.45,474.36C753.757,473.934 753.789,474.158 784.501,474.473Z" style="fill:rgb(32,107,88);"/>
        <path d="M634.494,482.831C630.171,482.413 627.479,483.319 627.928,475.529C628.171,471.325 628.386,466.728 630.608,463.58C635.616,456.485 636.205,457.167 640.819,449.784C641.866,448.109 659.914,449.7 661.102,452.716C665.327,463.443 664.466,463.99 662.094,466.057C644.317,481.547 644.28,482.749 634.494,482.831Z" style="fill:rgb(27,76,81);"/>
        <path d="M388.798,425.504C389.45,402.399 389.725,402.558 389.959,379.493C390.063,369.236 406.457,375.003 406.311,378.506C405.327,402.106 404.73,401.936 404.29,425.498C404.211,429.762 390.889,432.976 388.798,425.504Z" style="fill:rgb(36,132,186);"/>
        <path d="M477.568,499.517C479.368,494.882 479.208,494.814 479.512,494.511C483.251,490.779 522.739,493.371 526.49,493.618C531.341,493.936 532.657,508.825 523.507,508.645C500.804,508.197 500.962,508.478 478.516,512.679C473.083,513.696 477.29,500.891 477.568,499.517Z" style="fill:rgb(244,195,65);"/>
        <path d="M236.499,472.087C248.913,472.323 254.432,470.156 253.19,482.462C252.741,486.908 250.312,485.525 197.499,486.879C191.024,487.045 193.674,483.833 194.322,477.478C195.195,468.909 199.427,471.918 236.499,472.087Z" style="fill:rgb(29,77,83);"/>
        <path d="M147.824,378.505C148.115,375.555 147.749,375.427 148.614,374.609C150.261,373.054 161.364,372.835 162.483,372.813C165.747,372.749 165.632,374.631 165.541,413.5C165.526,419.86 151.609,417.464 151.506,417.458C145.92,417.129 147.738,399.487 147.824,378.505Z" style="fill:rgb(37,132,192);"/>
        <path d="M562.399,517.922C597.2,529.229 575.233,551.713 566.65,547.188C548.681,537.715 543.851,536.329 546.671,529.57C547.084,528.579 551.229,518.644 552.459,517.458C553.65,516.309 561.616,517.778 562.399,517.922Z" style="fill:rgb(246,196,65);"/>
        <path d="M211.38,557.682C205.515,552.855 191.101,543.433 209.78,531.942C234.555,516.702 238.925,573.099 211.38,557.682Z" style="fill:rgb(92,66,122);"/>
        <path d="M514.499,469.426C532.628,469.143 544.003,466.436 543.694,476.501C543.424,485.338 537.565,483.167 512.496,482.905C498.443,482.759 490.735,487.374 492.802,473.521C493.782,466.947 508.197,469.373 514.499,469.426Z" style="fill:rgb(211,54,56);"/>
        <path d="M367.555,498.464C366.461,495.684 365.888,495.764 366.758,494.717C368.162,493.027 396.95,493.711 397.387,493.843C400.267,494.713 396.296,520.078 392.362,522.165C382.508,527.394 371.804,505.16 367.555,498.464Z" style="fill:rgb(211,54,57);"/>
        <path d="M450.531,451.546C452.065,450.745 467.173,442.855 470.529,443.289C472.992,443.608 475.225,443.897 496.044,460.971C507.927,470.716 443.709,461.103 450.531,451.546Z" style="fill:rgb(31,111,90);"/>
        <path d="M149.946,338.537C150.645,335.996 150.213,335.656 151.407,335.273C152.876,334.801 164.294,337.587 165.4,337.857C170.052,338.992 168.343,341.522 165.767,365.541C165.642,366.708 165.337,369.555 151.527,369.08C146.33,368.902 148.847,353.397 149.946,338.537Z" style="fill:rgb(30,73,80);"/>
        <path d="M619.099,389.609C619.597,392.621 624.691,423.452 616.639,427.691C615.162,428.469 597.774,425.173 600.39,417.465C601.229,414.993 608.499,393.571 613.649,387.64C616.352,384.526 617.409,385.915 619.099,389.609Z" style="fill:rgb(92,66,121);"/>
        <path d="M531.509,314.093C540.582,314.454 544.545,312.421 544.02,321.474C543.459,331.135 538.28,325.792 505.507,326.095C501.605,326.132 502.702,318.851 503.365,316.452C504.508,312.321 520.932,313.962 531.509,314.093Z" style="fill:rgb(53,84,116);"/>
        <path d="M731.585,536.689C713.276,541.663 710.982,509.947 737.605,516.108C739.276,516.495 758.227,522.613 731.585,536.689Z" style="fill:rgb(94,68,124);"/>
        <path d="M532.493,557.417C514.035,557.559 529.673,534.9 546.332,540.972C547.753,541.49 568.929,549.208 561.427,552.361C557.379,554.063 534.822,557.103 532.493,557.417Z" style="fill:rgb(212,55,56);"/>
        <path d="M511.416,544.81C516.854,546.431 521.162,545.247 521.814,555.511C522.124,560.389 478.643,557.215 484.936,551.92C486.101,550.94 496.174,544.884 500.525,543.586C504.9,542.282 504.809,543.442 511.416,544.81Z" style="fill:rgb(92,67,122);"/>
        <path d="M355.583,544.644C336.194,550.843 331.432,517.343 350.519,524.444C371.846,532.38 356.913,543.64 355.583,544.644Z" style="fill:rgb(94,69,122);"/>
        <path d="M881.241,526.41C881.67,525.509 885.878,516.695 891.557,519.395C895.377,521.211 895.463,530.027 891.077,537.235C890.468,538.234 877.885,548.43 881.241,526.41Z" style="fill:rgb(92,68,125);"/>
        <path d="M290.861,521.665C291.852,520.513 297.552,513.889 309.679,519.102C326.125,526.172 287.466,538.562 290.861,521.665Z" style="fill:rgb(245,197,67);"/>
        <path d="M602.544,437.472C598.725,430.339 597.664,430.432 598.705,428.584C599.43,427.296 619.911,427.469 611.144,439.228C605.317,447.043 603.539,438.885 602.544,437.472Z" style="fill:rgb(37,126,171);"/>
    </g>
</svg>
