<?xml version="1.0" encoding="UTF-8" standalone="no"?>
<!DOCTYPE svg PUBLIC "-//W3C//DTD SVG 1.1//EN" "http://www.w3.org/Graphics/SVG/1.1/DTD/svg11.dtd">
<svg width="100%" height="100%" viewBox="0 0 1024 820" version="1.1" xmlns="http://www.w3.org/2000/svg" xmlns:xlink="http://www.w3.org/1999/xlink" xml:space="preserve" xmlns:serif="http://www.serif.com/" style="fill-rule:evenodd;clip-rule:evenodd;stroke-linejoin:round;stroke-miterlimit:2;">
    <g transform="matrix(1,0,0,1,0,-102)">
        <g transform="matrix(1,0,0,1,0,-158)">
            <path d="M531.396,538.594C528.337,534.89 526.384,534.192 529.934,530.917C568.259,495.554 608.455,492.598 635.476,492.891C637.246,492.91 637.656,493.285 650.167,520.658C651.716,524.046 650.536,524.21 642.997,555.599C638.605,573.885 636.323,573.171 625.354,579.234C618.862,582.822 621.052,576.785 614.223,555.584C612.794,551.149 603.553,552.807 603.501,552.808C593.737,552.864 587.062,548.072 589.744,557.433C596.406,580.679 596.494,580.599 597.055,582.621C599.802,592.522 592.548,589.343 588.518,589.6C587.046,589.694 587.072,596.866 587.074,597.509C587.103,605.925 569.479,598.377 565.569,597.249C556.309,594.577 568.266,582.636 531.396,538.594Z" style="fill:rgb(122,94,154);"/>
        </g>
        <g transform="matrix(1,0,0,1,0,-158)">
            <path d="M213.576,606.691C261.089,587.862 262.395,585.322 264.204,588.664C266.317,592.568 290.564,637.36 290.597,637.465C291.728,641.054 268.165,700.842 266.022,706.28C265.479,707.659 250.858,712.112 249.507,712.523C246.108,713.559 246.227,712.229 211.76,689.127C207.579,686.324 208.118,685.25 206.782,624.496C206.544,613.686 203.691,610.983 213.576,606.691Z" style="fill:rgb(24,145,91);"/>
        </g>
        <g transform="matrix(1,0,0,1,0,-158)">
            <path d="M439.944,744.53C437.341,785.935 438.399,788.351 433.521,788.746C416.631,790.111 343.339,791.072 342.766,788.409C342.005,784.873 333.922,747.289 335.915,743.724C336.051,743.481 382.837,696.7 384.284,696.023C384.461,695.941 391.7,694.28 393.082,697.685C409.863,739.048 408.891,740.79 412.49,740.815C416.826,740.844 421.162,740.834 425.498,740.846C434.927,740.872 439.061,735.9 439.944,744.53Z" style="fill:rgb(24,145,91);"/>
        </g>
        <g transform="matrix(1,0,0,1,0,-158)">
            <path d="M753.302,709.724C754.803,711.013 771.936,725.717 774.111,723.085C783.255,712.02 788.989,705.342 786.405,703.633C768.675,691.907 767.882,690.006 769.613,689.889C794.747,688.19 795.346,688.69 796.301,690.6C821.508,741.058 824.54,741.781 821.253,745.292C803.569,764.183 778.038,782.288 739.459,788.189C735.95,788.726 735.958,788.145 733.981,785.177C710.272,749.573 708.171,749.897 709.659,746.563C710.639,744.369 740.179,698.365 741.436,698.217C742.749,698.062 742.689,698.497 753.302,709.724Z" style="fill:rgb(247,210,55);"/>
        </g>
        <g transform="matrix(1,0,0,1,0,-158)">
            <path d="M483.362,700.086C445.026,715.127 444.487,714.509 442.735,713.166C432.807,705.553 433.564,704.535 416.293,661.58C400.414,622.084 399.962,621.208 401.777,619.869C401.898,619.779 441.067,594.594 441.463,594.408C442.508,593.916 478.383,610.217 478.055,613.48C473.467,659.142 474.946,659.841 485.892,697.433C486.486,699.474 485.396,698.87 483.362,700.086Z" style="fill:rgb(122,94,154);"/>
        </g>
        <g transform="matrix(1,0,0,1,0,-158)">
            <path d="M554.153,708.342C557.5,701.05 555.928,699.612 561.382,697.25C564.389,695.949 586.909,686.199 599.455,682.164C606.586,679.87 584.572,706.844 582.989,708.784C581.982,710.017 582.71,710.41 596.719,723.185C600.373,726.517 618.963,700.454 619.495,700.439C621.385,700.386 638.86,728.415 638.862,728.426C639.267,730.963 610.736,782.618 608.169,787.265C605.132,792.764 552.54,776.312 528.928,750.088C522.903,743.397 535.209,745.657 554.153,708.342Z" style="fill:rgb(247,210,54);"/>
        </g>
        <g transform="matrix(1,0,0,1,0,-158)">
            <path d="M511.594,528.394C515.993,532.833 518.678,532.562 516.332,535.388C492.895,563.615 490.27,569.183 479.795,604.6C478.954,607.443 476.771,607.825 445.65,590.184C442.735,588.531 430.482,542.615 431.431,540.471C449.852,498.845 448.456,495.671 452.395,496.874C488.053,507.766 496.254,516.186 511.594,528.394Z" style="fill:rgb(33,129,196);"/>
        </g>
        <g transform="matrix(1,0,0,1,0,-158)">
            <path d="M524.552,542.449C530.268,548.966 566.972,590.814 561.168,644.422C560.829,647.552 499.012,640.005 498.565,639.435C480.021,615.797 483.158,612.754 493.947,584.68C498.774,572.118 517.583,537.967 524.552,542.449Z" style="fill:rgb(33,129,197);"/>
        </g>
        <g transform="matrix(1,0,0,1,0,-158)">
            <path d="M205.586,604.763C201.913,604.918 174.453,594.022 175.232,591.447C190.607,540.669 242.33,504.396 246.113,511.716C269.29,556.563 271.72,556.334 270.245,560.425C262.828,580.985 263.006,581.359 261.282,582.099C260.008,582.646 236.118,591.891 205.586,604.763Z" style="fill:rgb(247,210,52);"/>
        </g>
        <g transform="matrix(1,0,0,1,0,-158)">
            <path d="M253.595,778.271C244.686,774.185 244.823,774.319 236.447,769.58C232.995,767.627 234.791,766.199 248.359,721.458C250.552,714.226 266.937,712.104 268.37,712.782C273.823,715.363 266.626,727.529 262.474,738.492C261.621,740.746 263.408,741.489 292.51,740.751C296.751,740.644 297.946,734.263 299.467,730.482C300.377,728.219 330.077,742.604 331.061,747.572C338.974,787.54 338.921,789.717 335.523,789.854C290.625,791.672 259.819,780.524 253.595,778.271Z" style="fill:rgb(222,44,45);"/>
        </g>
        <g transform="matrix(1,0,0,1,0,-158)">
            <path d="M513.478,731.518C513.276,731.228 499.767,714.93 491.482,690.506C484.897,671.093 486.792,669.853 486.871,669.67C497.509,644.846 500.211,645.117 502.513,645.349C558.909,651.014 561.098,650.026 560.746,653.509C560.04,660.486 557.496,700.279 528.186,735.226C519.714,745.328 517.426,736.094 513.478,731.518Z" style="fill:rgb(222,43,45);"/>
        </g>
        <g transform="matrix(1,0,0,1,0,-158)">
            <path d="M735.483,602.034C732.018,601.486 728.852,603.489 730.837,600.614C742.119,584.27 742.853,584.159 744.564,583.903C752.219,582.753 779.311,579.81 778.297,575.537C778.084,574.637 774.407,565.071 778.36,566.917C781.294,568.288 790.717,584.481 822.388,628.576C823.634,630.311 823.658,631.058 798.705,677.605C790.903,692.158 786.282,684.145 768.483,685.273C767.353,685.345 757.787,685.951 756.688,677.463C756.316,674.591 758.16,675.436 775.294,646.402C776.562,644.255 776.11,604.265 775.829,603.382C775.147,601.244 758.852,602.058 735.483,602.034Z" style="fill:rgb(34,130,198);"/>
        </g>
        <g transform="matrix(1,0,0,1,0,-158)">
            <path d="M361.372,521.859C425.658,543.527 425.931,543.629 426.261,544.624C427.455,548.22 440.59,587.801 438.376,590.403C436.021,593.171 435.685,592.475 400.269,615.117C397.736,616.737 397.248,614.468 372.114,550.649C368.954,542.623 366.064,546.287 338.542,545.156C336.115,545.056 331.068,534.422 332.606,532.571C333.624,531.347 345.192,517.43 345.401,517.336C348.6,515.889 348.43,517.48 361.372,521.859Z" style="fill:rgb(247,210,54);"/>
        </g>
        <g transform="matrix(1,0,0,1,0,-158)">
            <path d="M728.412,785.561C731.595,791.268 726.237,789.73 723.509,789.801C714.709,790.027 613.987,792.621 613.476,788.506C613.402,787.913 641.992,731.408 644.484,731.736C652.77,732.825 697.992,747.66 702.605,749.173C705.182,750.019 705.771,751.482 728.412,785.561Z" style="fill:rgb(121,95,153);"/>
        </g>
        <g transform="matrix(1,0,0,1,0,-158)">
            <path d="M643.35,604.583C646.136,610.109 637.276,606.043 637.244,609.486C637.107,624.4 636.319,634.167 640.502,634.185C641.537,634.19 653.301,634.241 653.336,632.481C653.798,609.657 664.468,619.011 664.814,620.304C664.877,620.538 666.072,669.245 663.595,669.729C639.241,674.491 591.717,673.524 591.65,671.482C591.622,670.614 591.302,660.82 593.523,660.79C613.283,660.529 621.093,668.031 624.71,648.53C625.365,645 609.871,645.332 609.72,648.512C609.218,659.12 605.065,662.838 597.763,655.252C596.13,653.556 598.687,606.72 596.283,605.958C589.697,603.869 589.623,602.306 591.882,595.643C592.976,592.412 594.216,593.688 634.504,594.632C642.031,594.808 639.91,597.934 643.35,604.583ZM612.492,608.056C609.43,608.833 609.401,609.213 609.397,612.499C609.388,619.929 608.015,633.952 612.513,634.094C613.526,634.126 624.923,634.485 624.921,631.514C624.919,629.75 624.904,610.883 624.716,609.461C624.326,606.529 622.936,608.043 612.492,608.056ZM640.467,646.038C639.041,646.337 619.857,664.534 651.504,660.523C654.186,660.183 654.209,646.043 651.451,645.899C650.574,645.854 650.638,645.91 640.467,646.038Z" style="fill:rgb(106,109,173);"/>
        </g>
        <g transform="matrix(1,0,0,1,0,-158)">
            <path d="M697.496,582.799C690.107,582.837 674.867,582.079 674.811,584.54C674.555,595.725 669.382,592.042 658.421,589.795C654.857,589.064 676.138,552.958 669.473,552.846C649.924,552.516 649.07,552.079 649.341,550.48C649.704,548.349 653.633,525.243 656.453,524.407C658.809,523.708 712.13,512.154 713.507,512.475C714.072,512.606 747.05,555.652 745.411,557.401C742.91,560.071 693.78,560.746 694.515,563.498C697.806,575.82 700.223,581.868 700.844,583.421C700.047,583.197 700.243,583.952 699.442,583.726C699.276,583.68 699.442,583.726 697.496,582.799Z" style="fill:rgb(246,209,57);"/>
        </g>
        <g transform="matrix(1,0,0,1,0,-158)">
            <path d="M804.274,695.616C800.948,688.423 798.413,688.413 800.93,683.732C827.864,633.645 827.621,632.824 829.52,632.741C859.882,631.424 860.199,632.752 860.286,633.536C866.488,689.31 832.884,731.526 827.409,738.405C824.985,741.45 824.814,737.386 804.274,695.616Z" style="fill:rgb(24,145,91);"/>
        </g>
        <g transform="matrix(1,0,0,1,0,-158)">
            <path d="M508.566,737.446C514.529,744.568 518.857,745.778 512.242,752.231C485.16,778.647 441.86,790.282 442.048,785.539C443.638,745.366 445.083,742.883 446.939,739.696C447.67,738.44 445.386,738.27 446.87,721.534C447.156,718.308 487.857,702.941 488.245,703.692C497.307,721.235 497.116,721.12 508.566,737.446Z" style="fill:rgb(222,44,45);"/>
        </g>
        <g transform="matrix(1,0,0,1,0,-158)">
            <path d="M854.083,594.624C854.651,597.157 861.205,626.374 858.604,626.767C857.228,626.975 829.835,628.046 828.412,627.759C827.851,627.646 783.53,566.778 785.389,564.411C789.41,559.294 814.25,538.136 816.833,535.935C818.633,534.402 827.295,544.942 828.056,545.868C846.76,568.626 853.885,594.102 854.083,594.624Z" style="fill:rgb(122,97,154);"/>
        </g>
        <g transform="matrix(1,0,0,1,0,-158)">
            <path d="M742.423,494.961C748.59,496.488 789.06,506.514 813.411,530.561C815.293,532.42 781.359,562.278 779.535,562.088C769.332,561.021 774.574,552.674 769.507,552.694C763.224,552.719 755.333,560.424 749.066,551.812C718.88,510.332 717.329,510.602 718.167,507.423C718.489,506.203 721.997,492.9 724.483,492.969C727.203,493.044 727.046,493.134 742.423,494.961Z" style="fill:rgb(247,210,57);"/>
        </g>
        <g transform="matrix(1,0,0,1,0,-158)">
            <path d="M295.542,493.972C298.982,493.827 334.508,492.326 338.571,493.154C340.269,493.5 340.126,494.259 342.503,511.5C342.943,514.693 326.81,532.078 326.383,532.287C322.368,534.257 280.347,554.87 275.484,555.422C271.399,555.885 272.668,553.293 250.956,510.271C249.245,506.88 248.893,500.584 295.542,493.972Z" style="fill:rgb(221,44,44);"/>
        </g>
        <g transform="matrix(1,0,0,1,0,-158)">
            <path d="M269.898,574.635C273.253,565.401 270.29,562.997 278.416,559.319C326.935,537.358 327.503,536.725 328.119,537.853C335.156,550.748 331.894,551.712 322.967,575.668C303.193,628.733 304.297,630.473 296.351,634.16C292.182,636.094 292.858,632.558 267.449,584.524C266.734,583.172 267.275,583.105 269.898,574.635Z" style="fill:rgb(34,128,196);"/>
        </g>
        <g transform="matrix(1,0,0,1,0,-158)">
            <path d="M693.506,695.503C709.698,653.641 706.305,643.32 706.678,588.51C706.695,586.009 717.6,586.123 718.57,586.133C720.437,586.152 719.604,587.279 720.213,605.551C720.283,607.637 721.564,606.69 768.521,607.185C774.375,607.246 770.604,610.445 770.667,621.502C770.743,635.01 774.341,646.57 750.568,674.562C747.528,678.141 757.816,684.251 753.469,684.367C740.452,684.712 738.852,685.974 734.966,679.222C724.996,661.904 722.226,661.755 726.244,642.386C728.598,631.038 737.708,667.804 742.384,664.304C760.629,650.647 758.801,625.147 758.539,621.496C758.325,618.501 720.576,618.464 720.507,621.501C719.634,659.886 716.318,684.625 693.515,699.561C690.763,701.364 692.732,698.545 693.506,695.503Z" style="fill:rgb(120,107,167);"/>
        </g>
        <g transform="matrix(1,0,0,1,0,-158)">
            <path d="M401.611,530.157C348.129,511.982 347.678,512.065 347.215,510.583C346.795,509.237 341.702,492.926 347.511,492.96C404.816,493.293 442.274,492.32 444.109,495.743C445.045,497.49 427.374,537.262 427.313,537.38C426.335,539.279 413.58,534.233 401.611,530.157Z" style="fill:rgb(247,209,56);"/>
        </g>
        <g transform="matrix(1,0,0,1,0,-158)">
            <path d="M201.868,625.49C202.167,638.491 202.466,651.492 202.766,664.493C202.863,668.264 203.87,685.668 202.406,686.365C202.265,686.433 177.935,694.965 176.542,694.409C165.909,690.171 164.295,595.487 174.507,598.459C174.605,598.487 200.241,608.586 201.244,609.702C201.757,610.272 201.858,624.226 201.868,625.49Z" style="fill:rgb(222,44,45);"/>
        </g>
        <g transform="matrix(1,0,0,1,0,-158)">
            <path d="M209.469,748.531C205.176,743.853 193.125,732.944 181.979,709.279C181.619,708.513 177.539,699.85 180.605,698.792C204.894,690.409 205.382,690.725 207.23,691.919C210.184,693.827 241.126,713.823 243.876,716.206C246.714,718.667 243.751,719.344 231.635,761.539C229.939,767.444 224.774,763 209.469,748.531Z" style="fill:rgb(247,209,52);"/>
        </g>
        <g transform="matrix(1,0,0,1,0,-158)">
            <path d="M359.062,606.68C378.995,659.938 382.252,663.244 377.492,663.246C326.564,663.273 321.988,664.776 323.904,659.647C340.296,615.755 337.431,613.612 346.205,608.052C353.874,603.193 353.733,603.154 355.453,602.356C357.247,601.524 356.882,602.806 359.062,606.68Z" style="fill:rgb(33,128,198);"/>
        </g>
        <g transform="matrix(1,0,0,1,0,-158)">
            <path d="M310.813,700.612C315.098,691.154 318.596,696.113 374.523,695.339C379.341,695.273 375.508,699.045 333.27,739.225C332.544,739.915 331.889,740.389 305.688,726.166C300.826,723.526 303.89,719.049 310.813,700.612Z" style="fill:rgb(33,128,196);"/>
        </g>
        <g transform="matrix(1,0,0,1,0,-158)">
            <path d="M276.764,715.597C279.694,707.841 281.696,703.02 295.331,665.431C296.278,662.818 313.075,666.787 314.579,667.142C324.554,669.499 323.974,678.802 326.049,686.612C328.337,695.23 322.143,690.317 312.498,690.399C305.718,690.457 300.691,716.757 292.464,734.478C291.608,736.323 276.857,735.658 271.495,735.552C269.844,735.519 269.58,734.383 276.764,715.597Z" style="fill:rgb(24,145,91);"/>
        </g>
        <g transform="matrix(1,0,0,1,0,-158)">
            <path d="M565.888,670.572C572.381,627.441 567.746,625.287 564.976,604.444C564.549,601.226 580.886,605.799 582.001,608.682C592.273,635.236 592.827,638.54 591.93,654.622C591.815,656.689 587.187,655.369 586.898,657.575C584.223,678.023 588.876,677.679 590.496,677.559C590.9,677.529 605.255,676.469 595.327,679.099C578.323,683.604 578.86,684.627 562.463,691.367C560.903,692.008 561.137,690.355 565.888,670.572Z" style="fill:rgb(247,209,57);"/>
        </g>
        <g transform="matrix(1,0,0,1,0,-158)">
            <path d="M433.288,718.581C438.916,732.332 440.385,735.613 438.54,735.669C416.389,736.339 413.393,736.362 411.504,731.499C400.77,703.867 397.564,690.438 392.5,690.411C386.142,690.377 383.284,690.357 385.354,684.445C385.807,683.154 411.364,667.63 413.169,668.905C414.547,669.878 424.107,695.556 433.288,718.581Z" style="fill:rgb(248,210,55);"/>
        </g>
        <g transform="matrix(1,0,0,1,0,-158)">
            <path d="M729.501,696.501C751.634,674.835 728.321,707.511 707.111,741.256C703.995,746.214 695.675,742.016 682.598,738.161C644.662,726.978 643.785,727.306 639.669,720.41C636.731,715.486 652.649,721.629 661.296,715.235C667.89,710.36 667.63,715.647 673.774,721.162C676.609,723.706 682.63,713.907 683.672,712.651C686.204,709.599 693.644,722.972 695.541,723.372C704.292,725.22 727.215,699.104 729.501,696.501Z" style="fill:rgb(220,52,50);"/>
        </g>
        <g transform="matrix(1,0,0,1,0,-158)">
            <path d="M351.586,575.457C346.168,562.948 339.503,550.405 343.497,550.402C363.831,550.388 363.807,550.019 365.485,550.547C368.528,551.504 389.781,609.271 391.689,614.457C392.365,616.295 390.487,616.391 367.554,610.301C364.59,609.514 365.979,608.273 351.586,575.457Z" style="fill:rgb(248,210,55);"/>
        </g>
        <g transform="matrix(1,0,0,1,0,-158)">
            <path d="M402.216,640.616C405.709,649.399 411.289,662.239 410.076,663.102C384.9,681.021 381.044,678.596 378.717,677.133C366.823,669.656 366.24,668.306 367.39,668.277C383.19,667.873 387.923,670.871 386.06,664.622C381.279,648.583 365.883,615.096 370.515,616.135C372.45,616.569 392.941,621.168 394.455,622.55C395.225,623.253 401.629,639.157 402.216,640.616Z" style="fill:rgb(222,45,46);"/>
        </g>
        <g transform="matrix(1,0,0,1,0,-158)">
            <path d="M716.258,496.431C712.637,506.871 713.051,507.454 711.568,507.764C657.971,518.997 656.211,521.848 654.232,517.635C643.317,494.396 642.41,492.758 644.548,492.725C650.284,492.638 713.999,491.668 716.259,492.937C717.028,493.369 716.637,493.478 716.258,496.431Z" style="fill:rgb(219,47,47);"/>
        </g>
        <g transform="matrix(1,0,0,1,0,-158)">
            <path d="M325.612,595.216C337.696,600.467 339.501,599.475 339.007,602.45C338.948,602.803 317.948,661.249 317.61,661.598C316.498,662.75 297.402,659.579 298.484,656.495C299.544,653.477 320.862,595.3 321.596,594.607C322.671,593.593 322.65,594.284 325.612,595.216Z" style="fill:rgb(222,45,46);"/>
        </g>
        <g transform="matrix(1,0,0,1,0,-158)">
            <path d="M329.805,681.413C327.446,672.114 323.201,668.86 329.504,668.764C342.218,668.572 355.913,668.219 357.622,669.308C377.177,681.769 381.994,683.95 380.071,689.328C378.843,692.762 377.265,690.754 334.502,690.436C330.302,690.405 331.992,688.361 329.805,681.413Z" style="fill:rgb(101,100,175);"/>
        </g>
        <g transform="matrix(1,0,0,1,0,-158)">
            <path d="M737.541,563.851C766.233,559.239 766.752,557.642 768.17,559.668C780.127,576.76 766.162,576.134 745.51,578.568C727.216,580.725 720.273,585.831 717.365,567.512C716.986,565.126 734.152,564.202 737.541,563.851Z" style="fill:rgb(24,145,91);"/>
        </g>
        <g transform="matrix(1,0,0,1,0,-158)">
            <path d="M680.927,623.496C680.671,598.652 680.098,598.675 680.866,596.671C681.214,595.764 690.645,595.775 691.499,595.776C692.599,595.778 693.904,596.215 693.356,645.498C693.27,653.237 690.048,651.307 682.403,650.868C680.63,650.766 681.047,635.913 680.927,623.496Z" style="fill:rgb(136,136,178);"/>
        </g>
        <g transform="matrix(1,0,0,1,0,-158)">
            <path d="M682.376,688.579C681.215,685.747 681.116,685.785 681.122,685.521C681.701,659.738 681.156,659.721 681.543,657.514C682.009,654.86 683.252,656.317 694.494,656.084C697.699,656.017 698.029,655.672 698.188,652.516C699.527,625.888 698.63,625.908 698.791,623.6C698.856,622.667 701.748,622.294 701.763,625.483C701.872,649.117 699.841,664.603 689.52,691.507C686.694,698.874 683.972,691.232 682.376,688.579Z" style="fill:rgb(218,43,49);"/>
        </g>
        <g transform="matrix(1,0,0,1,0,-158)">
            <path d="M651.063,695.447C651.667,686.868 651.731,687.067 652.258,678.483C652.439,675.524 664.59,671.937 664.224,678.486C663.371,693.78 665.022,712.022 651.451,713.021C636.292,714.136 638.336,708.821 637.628,703.5C636.844,697.614 648.585,707.875 651.063,695.447Z" style="fill:rgb(128,113,170);"/>
        </g>
        <g transform="matrix(1,0,0,1,0,-158)">
            <path d="M623.006,680.29C621.49,683.503 603.221,722.226 596.804,716.16C591.541,711.185 588.236,710.524 593.034,705.108C604.838,691.784 608.283,677.809 611.515,677.694C619.166,677.419 623.817,672.543 623.006,680.29Z" style="fill:rgb(132,136,184);"/>
        </g>
        <g transform="matrix(1,0,0,1,0,-158)">
            <path d="M753.104,629.486C752.984,631.698 752.175,646.632 743.438,655.429C740.143,658.747 736.338,637.039 732.481,636.76C722.658,636.05 719.312,632.247 726.423,625.407C726.948,624.901 742.132,624.88 743.499,624.878C749.921,624.869 752.376,623.005 753.104,629.486Z" style="fill:rgb(41,130,200);"/>
        </g>
        <g transform="matrix(1,0,0,1,0,-158)">
            <path d="M343.303,569.586C351.964,591.492 341.955,605.306 324.631,589.346C323.116,587.95 336.001,553.773 337.41,554.615C337.512,554.677 342.837,568.386 343.303,569.586Z" style="fill:rgb(24,145,91);"/>
        </g>
        <g transform="matrix(1,0,0,1,0,-158)">
            <path d="M659.498,557.867C660.478,557.997 661.483,557.781 662.463,557.911C666.628,558.465 651.954,591.307 647.478,590.693C636.804,589.228 636.572,588.453 636.892,587.631C641.637,575.449 642.341,575.869 646.904,563.639C649.668,556.228 651.523,557.891 659.498,557.867Z" style="fill:rgb(24,145,91);"/>
        </g>
        <g transform="matrix(1,0,0,1,0,-158)">
            <path d="M756.47,705.53C755.414,704.432 746.286,694.948 743.71,691.393C743.149,690.618 743.736,689.485 755.502,689.401C762.023,689.355 779.888,707.148 779.777,707.597C775.853,723.46 769.004,715.871 756.47,705.53Z" style="fill:rgb(122,107,165);"/>
        </g>
        <g transform="matrix(1,0,0,1,0,-158)">
            <path d="M651.502,613.281C653.969,609.334 641.445,594.66 645.518,594.572C673.622,593.967 674.703,594.125 674.779,596.47C675.011,603.603 676.69,606.319 669.511,606.894C669.194,606.919 666.303,607.151 665.957,608.663C664.015,617.173 661.108,614.578 652.747,616.881C652.629,616.104 652.511,615.327 652.393,614.55C652.096,614.127 651.799,613.704 651.502,613.281Z" style="fill:rgb(122,103,162);"/>
        </g>
        <g transform="matrix(1,0,0,1,0,-158)">
            <path d="M633.024,709.182C631.762,709.076 631.642,709.066 623.753,696.343C622.47,694.274 623.041,694.026 628.759,679.595C629.549,677.603 644.129,677.778 645.474,677.794C646.885,677.811 648.901,678.254 646.204,695.423C645.725,698.476 644.28,696.872 633.517,696.863C628.995,696.859 633.305,704.999 633.024,709.182Z" style="fill:rgb(219,48,49);"/>
        </g>
        <g transform="matrix(1,0,0,1,0,-158)">
            <path d="M603.083,584.604C599.652,572.452 599.566,572.609 595.95,560.399C595.681,559.492 595.718,557.919 607.501,557.901C611.745,557.894 617.175,584.113 617.668,586.491C617.98,588 610.107,589.941 609.406,590.114C602.247,591.879 603.722,586.922 603.083,584.604Z" style="fill:rgb(221,48,53);"/>
        </g>
        <g transform="matrix(1,0,0,1,0,-158)">
            <path d="M674.096,688.363C673.774,689.154 668.172,702.883 668.553,697.483C673.767,623.718 665.674,610.267 674.424,612.777C675.929,613.209 677.018,667.438 674.096,688.363Z" style="fill:rgb(217,43,51);"/>
        </g>
        <g transform="matrix(1,0,0,1,0,-158)">
            <path d="M713.622,693.408C717.588,699.163 719.331,700.27 714.215,705.199C698.65,720.197 695.99,716.547 694.969,715.146C691.246,710.038 688.922,708.734 694.176,705.031C709.72,694.075 709.73,689.438 713.622,693.408Z" style="fill:rgb(86,118,190);"/>
        </g>
        <g transform="matrix(1,0,0,1,0,-158)">
            <path d="M722.23,665.905C732.262,684.603 733.166,684.752 732.116,686.224C724.103,697.443 716.092,699.217 714.675,685.472C714.513,683.896 715.689,684.397 720.848,666.659C720.883,666.538 720.848,666.659 722.23,665.905Z" style="fill:rgb(218,52,52);"/>
        </g>
        <g transform="matrix(1,0,0,1,0,-158)">
            <path d="M276.099,702.363C262.909,734.842 275.222,695.073 275.435,694.477C294.345,641.619 299.477,631.177 299.735,639.48C299.793,641.36 298.731,640.841 291.133,661.366C286.191,674.717 286.196,674.482 276.099,702.363Z" style="fill:rgb(37,124,191);"/>
        </g>
        <g transform="matrix(1,0,0,1,0,-158)">
            <path d="M484.831,662.009C482.938,657.792 481.902,624.125 485.462,628.544C497.484,643.469 495.423,646.141 484.831,662.009Z" style="fill:rgb(108,100,164);"/>
        </g>
        <g transform="matrix(1,0,0,1,0,-158)">
            <path d="M714.072,573.651C721.197,596.084 705.251,581.134 704.95,580.283C704.585,579.248 700.306,567.136 701.708,566.948C703.161,566.752 710.318,566.297 710.533,566.341C711.88,566.621 711.463,567.026 714.072,573.651Z" style="fill:rgb(234,63,46);"/>
        </g>
        <g transform="matrix(1,0,0,1,0,-158)">
            <path d="M681.102,700.634C683.15,708.186 681.004,708.029 676.092,714.141C675.263,715.173 665.684,711.964 671.041,705.117C671.692,704.285 670.936,703.85 677.637,693.691C678.416,692.51 678.408,693.931 681.102,700.634Z" style="fill:rgb(218,50,63);"/>
        </g>
        <g transform="matrix(1,0,0,1,0,-158)">
            <path d="M651.502,613.281L652.393,614.55C652.511,615.327 652.629,616.104 652.747,616.881C644.156,619.042 651.063,632.735 643.375,628.673C642.123,628.011 642.575,615.654 642.616,614.521C642.709,611.965 644.083,613.302 651.502,613.281Z" style="fill:rgb(187,32,37);"/>
        </g>
        <g transform="matrix(1,0,0,1,0,-158)">
            <path d="M697.496,582.799C699.442,583.726 699.276,583.68 699.442,583.726C700.243,583.952 700.047,583.197 700.844,583.421C700.998,586.067 702.683,615.023 701.581,616.545C696.28,623.865 700.776,589.696 697.496,582.799Z" style="fill:rgb(244,212,66);"/>
        </g>
        <g transform="matrix(1,0,0,1,0,-158)">
            <path d="M725.159,590.5C725.227,589.579 725.746,582.597 735.284,584.965C736.586,585.288 727.907,596.578 727.799,596.753C724.879,601.457 725.317,595.949 725.159,590.5Z" style="fill:rgb(244,209,56);"/>
        </g>
        <g transform="matrix(1,0,0,1,0,-158)">
            <path d="M349.649,599.707C349.271,599.962 343.453,603.892 344.245,601.528C349.432,586.05 350.842,585.331 351.515,586.486C355.597,593.498 356.095,594.977 349.649,599.707Z" style="fill:rgb(30,145,202);"/>
        </g>
        <g transform="matrix(1,0,0,1,0,-158)">
            <path d="M631.586,586.545C628.939,590.716 628.503,592.178 624.364,589.634C619.889,586.883 638.075,575.315 632.627,584.557C632.247,585.202 631.966,585.901 631.586,586.545Z" style="fill:rgb(219,64,55);"/>
        </g>
        <g transform="matrix(1,0,0,1,0,-158)">
            <path d="M690.5,590.519C681.085,590.175 680.578,590.68 680.338,589.55C679.31,584.702 704.292,589.286 690.5,590.519Z" style="fill:rgb(128,149,193);"/>
        </g>
        <g transform="matrix(1,0,0,1,0,-158)">
            <path d="M588.256,607.527L587.463,608.43C587.126,608.219 587.046,609.566 586.709,609.355C585.531,608.616 586.11,603.39 588.256,607.527Z" style="fill:rgb(237,202,171);"/>
        </g>
        <g transform="matrix(1,0,0,1,0,-158)">
            <path d="M593.092,620.432C592.706,621.661 592.655,622.473 591.587,621.396C592.088,621.075 592.59,620.754 593.092,620.432Z" style="fill:rgb(240,200,194);"/>
        </g>
    </g>
</svg>
