<?xml version="1.0" encoding="UTF-8" standalone="no"?>
<!DOCTYPE svg PUBLIC "-//W3C//DTD SVG 1.1//EN" "http://www.w3.org/Graphics/SVG/1.1/DTD/svg11.dtd">
<svg width="100%" height="100%" viewBox="0 0 1024 1024" version="1.1" xmlns="http://www.w3.org/2000/svg" xmlns:xlink="http://www.w3.org/1999/xlink" xml:space="preserve" xmlns:serif="http://www.serif.com/" style="fill-rule:evenodd;clip-rule:evenodd;stroke-linejoin:round;stroke-miterlimit:2;">
    <g>
        <path d="M863.538,566.106C874.873,567.008 880.291,567.146 881.449,568.55C888.314,576.874 887.993,577.667 887.64,578.538C875.488,608.548 875.229,609.261 872.484,609.338C854.848,609.832 854.343,609.794 853.913,608.37C853.864,608.208 856.334,566.69 857.768,565.917C858.657,565.438 858.702,565.723 863.538,566.106Z" style="fill:rgb(71,175,99);"/>
        <path d="M118.434,577.087C126.178,575.913 135.583,573.864 137.552,575.439C138.347,576.074 138.346,576.074 146.145,584.812C147.392,586.209 147.598,586.681 140.819,607.609C140.169,609.613 139.464,609.689 115.5,609.531C112.307,609.51 112.917,607.746 113.008,606.473C114.922,579.805 113.891,578.04 118.434,577.087Z" style="fill:rgb(67,176,101);"/>
        <path d="M146.506,580.495C145.907,579.805 139.588,572.518 139.469,571.504C139.324,570.266 143.184,553.2 143.437,552.467C143.966,550.935 163.943,547.063 165.035,549.635C165.101,549.791 167.342,579.659 167.238,580.466C167.058,581.868 160.175,582.711 159.536,582.789C152.4,583.662 151.449,585.662 146.506,580.495Z" style="fill:rgb(69,172,100);"/>
        <path d="M894.484,578.885C901.27,579.018 908.485,577.95 908.772,581.468C910.919,607.738 911.62,608.833 909.447,609.333C908.367,609.582 893.556,609.364 880.5,609.412C878.438,609.42 877.493,609.409 878.203,607.436C878.705,606.037 889.053,582.125 889.792,580.659C891.019,578.221 894.02,578.914 894.484,578.885Z" style="fill:rgb(30,56,140);"/>
        <path d="M877.485,640.075C878.174,640.063 884.712,639.949 884.88,644.492C884.942,646.191 877.432,661.974 877.184,662.276C875.224,664.662 851.084,663.289 850.836,663.093C848.989,661.631 851.626,644.196 851.872,642.571C852.22,640.268 856.723,640.498 877.485,640.075Z" style="fill:rgb(203,42,59);"/>
        <path d="M859.869,527.534C860.278,521.999 861.631,501.783 862.281,500.372C862.663,499.541 863.005,498.8 873.52,498.267C876.39,498.122 883.934,513.032 884.643,514.433C885.308,515.749 885.445,516.019 877.062,531.24C876.13,532.932 874.014,533.601 861.443,532.856C857.969,532.65 859.699,531.026 859.869,527.534Z" style="fill:rgb(199,46,45);"/>
        <path d="M888.43,547.05C892.702,546.528 904.505,544.706 905.418,545.589C906.628,546.759 908.153,574.282 908.123,574.473C907.73,577.024 891.886,576.907 889.61,574.405C880.905,564.835 883.641,561.53 884.02,559.415C885.702,550.036 884.53,548.069 888.43,547.05Z" style="fill:rgb(249,231,83);"/>
        <path d="M120.921,499.533C122.603,479.455 122.607,476.484 123.028,475.302C123.283,474.582 123.883,472.897 132.459,473.839C134.936,474.111 144.199,488.342 144.236,489.506C144.289,491.205 135.723,508.423 135.623,508.588C134.243,510.846 121.423,508.772 121.353,508.742C119.207,507.799 120.507,507.043 120.921,499.533Z" style="fill:rgb(37,124,75);"/>
        <path d="M117.097,553.473C117.113,553.251 117.089,542.373 119.439,542.187C131.814,541.209 136.243,545.667 137.281,546.711C141.686,551.145 140.474,552.053 136.523,569.506C136.066,571.527 135.409,571.466 118.442,574.044C114.821,574.594 115.545,572.291 117.097,553.473Z" style="fill:rgb(184,44,64);"/>
        <path d="M863.543,563.038C858.914,562.437 858.936,562.483 858.544,562.389C856.766,561.958 857.155,561.202 858.888,539.518C859.283,534.577 864.589,536.037 872.508,536.222C877.862,536.347 881.143,543.608 881.204,543.697C881.912,544.72 883.519,544.807 880.481,562.496C879.992,565.339 870.883,563.615 863.543,563.038Z" style="fill:rgb(153,107,169);"/>
        <path d="M901.891,492.471C903.467,512.851 903.741,514.149 901.476,514.183C892.738,514.316 888.539,514.532 887.338,512.614C878.556,498.586 877.112,496.747 878.545,494.529C880.934,490.827 884.526,484.689 886.517,484.632C887.623,484.601 899.128,484.273 900.355,484.793C901.892,485.444 901.865,492.139 901.891,492.471Z" style="fill:rgb(31,58,146);"/>
        <path d="M172.07,644.534C173.349,662.315 173.582,663.418 171.498,663.475C143.43,664.251 142.587,663.895 142.082,661.592C138.475,645.118 147.292,645.478 167.454,642.196C170.581,641.687 171.42,641.358 172.07,644.534Z" style="fill:rgb(39,68,163);"/>
        <path d="M863.068,485.463C864.989,459.979 864.207,457.247 867.454,457.786C874.953,459.031 877.235,457.272 879.018,464.606C882.726,479.85 885.896,481.652 875.387,493.384C873.511,495.479 864.2,496.196 863.303,495.9C862.284,495.565 863.003,486.296 863.068,485.463Z" style="fill:rgb(184,55,78);"/>
        <path d="M140.29,514.63C137.387,509.479 138.83,509 145.75,494.628C147.417,491.164 148.319,490.316 158.473,490.935C161.422,491.114 160.937,492.573 162.793,517.476C163.047,520.887 162.925,521.983 159.494,521.553C143.819,519.586 143.446,519.287 140.29,514.63Z" style="fill:rgb(66,165,122);"/>
        <path d="M913.87,649.471C914.581,658.789 915.139,663.036 913.446,663.185C908.583,663.613 884.984,663.378 882.509,663.353C879.984,663.328 880.523,661.559 886.967,647.726C887.812,645.912 888.672,644.065 911.497,642.826C914.16,642.682 913.798,648.71 913.87,649.471Z" style="fill:rgb(67,164,95);"/>
        <path d="M163.875,533.477C164.339,540.354 165.881,544.865 161.513,545.58C142.474,548.696 142.307,547.808 141.754,547.237C137.084,542.411 136.424,541.837 137.222,539.417C142.62,523.064 142.573,522.147 144.504,522.412C162.554,524.889 163.032,525.033 163.279,526.552C163.368,527.1 163.323,527.065 163.875,533.477Z" style="fill:rgb(28,84,60);"/>
        <path d="M110.94,637.531C111.692,630.908 109.902,629.086 113.524,628.906C134.473,627.862 135.181,629.175 136.039,630.765C136.968,632.488 142.119,643.429 142.17,643.596C142.954,646.131 138.412,649.975 138.259,650.045C136.178,651 111.502,646.721 111.406,646.679C109.123,645.686 110.45,644.96 110.94,637.531Z" style="fill:rgb(197,48,67);"/>
        <path d="M904.08,522.529C905.47,540.181 905.892,541.754 902.456,542.155C888.17,543.82 885.525,544.672 882.99,541.132C882.662,540.675 877.795,535.781 879.977,531.75C887.774,517.342 888.501,517.219 890.489,517.202C891.451,517.194 901.387,517.109 902.516,517.458C903.523,517.769 904.03,522.107 904.08,522.529Z" style="fill:rgb(55,147,83);"/>
        <path d="M143.645,482.404C141.445,479.142 136.893,472.977 137.073,471.438C137.092,471.271 136.933,471.183 143.819,459.71C146.466,455.299 152.671,456.852 155.489,456.877C159.324,456.911 158.601,458.917 160.524,485.499C160.825,489.645 147.773,488.031 146.542,486.465C145.514,485.158 144.673,483.711 143.645,482.404Z" style="fill:rgb(141,107,173);"/>
        <path d="M148.835,591.604C148.892,591.429 149.632,587.435 151.644,586.939C153.401,586.506 164.753,585.222 165.508,585.242C167.315,585.292 168.364,585.807 169.383,607.502C169.473,609.417 168.524,610.303 145.498,609.515C142.561,609.414 146.342,599.856 148.835,591.604Z" style="fill:rgb(28,54,140);"/>
        <path d="M884.964,477.401C881.707,461.42 880.83,459.914 881.643,458.575C886.91,449.907 895.158,450.236 896.519,450.29C899.48,450.408 898.793,452.659 900.795,478.481C901.187,483.536 898.531,481.629 893.499,481.64C887.929,481.653 886.328,482.825 884.964,477.401Z" style="fill:rgb(65,153,88);"/>
        <path d="M119.858,515.519C120.578,510.422 126.053,512.426 129.489,512.65C130.812,512.736 134.927,512.658 136.4,514.573C141.389,521.058 139.216,523.593 134.582,537.532C133.539,540.668 130.177,539.928 120.531,539.097C117.524,538.837 118.539,537.29 119.858,515.519Z" style="fill:rgb(65,171,140);"/>
        <path d="M124.903,444.528C125.568,437.636 125.304,437.514 125.937,436.952C126.497,436.455 127.351,436.664 127.471,436.694C139.223,439.576 137.436,442.514 142.184,453.616C142.694,454.81 143.149,455.874 135.06,468.203C134.583,468.932 132.242,472.5 124.455,470.658C123.566,470.448 122.955,470.011 124.903,444.528Z" style="fill:rgb(27,54,138);"/>
        <path d="M144.346,428.398C148.819,421.495 149.003,419.808 153.549,420.091C156.006,420.244 156.55,421.291 158.002,450.539C158.016,450.823 158.149,453.499 156.557,453.783C143.801,456.06 144.483,451.53 139.405,439.54C138.038,436.312 142.785,430.877 144.346,428.398Z" style="fill:rgb(209,64,53);"/>
        <path d="M456.152,619.57C455.876,617.839 455.258,616.173 454.981,614.441C454.594,612.025 456.218,611.936 485.503,612.461C489.553,612.534 484.28,623.297 483.765,624.634C483.066,626.448 482.543,627.121 459.52,626.26C455.801,626.121 457.451,624.251 456.152,619.57Z" style="fill:rgb(62,176,200);"/>
        <path d="M896.859,424.476C898.492,445.358 898.922,447.029 895.478,447.222C888.92,447.59 888.538,446.378 881.784,433.357C878.557,427.134 880.631,426.844 883.992,420.761C884.972,418.986 886.06,418.864 887.507,418.848C888.205,418.841 895.479,418.76 896.198,419.689C896.761,420.416 896.502,420.45 896.859,424.476Z" style="fill:rgb(51,132,181);"/>
        <path d="M442.501,626.231C424.576,626.156 424.32,626.727 423.286,625.734C422.542,625.02 421.859,624.364 427.643,613.599C427.712,613.47 427.547,611.947 446.496,612.328C452.512,612.449 451.959,614.396 454.016,623.605C454.909,627.602 444.868,626.236 442.501,626.231Z" style="fill:rgb(203,55,68);"/>
        <path d="M133.449,362.45C139.815,356.586 151.014,357.626 151.406,372.495C151.473,375.042 135.969,383.574 133.526,383.256C127.154,382.426 129.389,367.172 133.449,362.45Z" style="fill:rgb(65,172,181);"/>
        <path d="M865.857,448.528C866.818,436.561 866.758,436.568 866.868,435.531C867.312,431.33 870.823,431.752 875.5,431.332C877.054,431.192 877.282,431.553 886.118,447.684C886.85,449.021 885.655,450.329 885.5,450.5C878.993,457.628 877.885,456.757 868.445,454.77C864.5,453.939 865.768,452.54 865.857,448.528Z" style="fill:rgb(48,140,91);"/>
        <path d="M890.492,415.819C885.81,415.527 884.968,415.995 880.931,409.236C878.72,405.533 876.679,405.464 878.966,401.771C887.65,387.749 887.168,386.271 892.489,385.857C894.478,385.703 894.788,386.766 896.034,410.54C896.374,417.021 893.728,415.578 890.492,415.819Z" style="fill:rgb(246,227,85);"/>
        <path d="M868.503,626.052C867.695,626.043 858.753,625.939 858.411,625.6C857.272,624.471 860.003,613.866 860.219,613.353C860.884,611.781 861.378,611.783 881.516,612.224C884.244,612.283 885.079,614.781 888.034,623.625C889.032,626.611 886.211,626.008 868.503,626.052Z" style="fill:rgb(185,48,66);"/>
        <path d="M879.34,377.727C872.854,373.08 870.181,372.826 873.369,365.434C875.415,360.691 880.708,359.644 881.498,359.487C894.528,356.91 894.67,378.794 893.151,381.33C889.899,386.762 880.012,378.181 879.34,377.727Z" style="fill:rgb(71,160,94);"/>
        <path d="M225.836,518.498C225.835,550.327 226.692,565.846 221.884,559.261C221.068,558.143 221.182,557.97 221.217,498.499C221.225,484.795 220.343,475.075 224.19,478.856C225.914,480.55 225.892,481.195 225.836,518.498Z" style="fill:rgb(65,161,96);"/>
        <path d="M389.487,626.133C370.527,626.206 365.825,626.881 366.213,624.485C368.184,612.33 371.399,612.31 372.496,612.303C393.375,612.173 393.871,611.799 394.665,613.387C396.316,616.689 396.065,624.856 389.487,626.133Z" style="fill:rgb(92,176,100);"/>
        <path d="M597.955,619.41C597.917,618.87 597.627,614.838 599.821,612.903C601.416,611.496 622.551,612.268 624.527,612.341C625.503,612.376 626.686,612.871 623.531,624.512C623.079,626.181 622.185,626.296 603.501,626.223C598.439,626.203 599.618,624.17 597.955,619.41Z" style="fill:rgb(73,173,118);"/>
        <path d="M809.401,454.402C812.224,451.661 812.186,451.656 812.45,451.442C815.384,449.063 819.701,455.061 819.425,456.477C818.929,459.023 794.433,481.096 792.167,483.138C789.641,485.415 784.272,478.845 785.928,476.879C788.943,473.299 789.642,474.177 809.401,454.402Z" style="fill:rgb(70,166,102);"/>
        <path d="M141.24,634.631C140.738,633.201 139.768,631.965 139.266,630.534C138.517,628.4 140.319,628.362 167.498,628.938C172.773,629.05 171.349,631.281 171.589,636.5C171.699,638.885 170.282,638.062 150.433,642.187C142.788,643.776 143.75,639.863 141.24,634.631Z" style="fill:rgb(36,84,62);"/>
        <path d="M333.499,612.229C335.752,612.571 336.357,611.693 337.202,613.665C337.8,615.061 340.132,623.475 340.167,624.516C340.234,626.571 339.024,626.518 314.523,626.221C311.397,626.184 314.267,615.459 314.448,614.487C314.971,611.665 317.908,612.281 333.499,612.229Z" style="fill:rgb(72,169,109);"/>
        <path d="M109.639,654.516C110.025,651.995 109.2,649.916 113.511,650.312C117.482,650.676 133.765,653.097 135.523,653.359C137.715,653.685 138.801,654.489 138.922,661.524C138.96,663.743 137.834,663.803 113.501,663.703C107.194,663.677 109.309,660.726 109.639,654.516Z" style="fill:rgb(247,232,85);"/>
        <path d="M724.111,621.585C723.625,619.212 722.98,616.873 722.494,614.501C722.123,612.687 723.151,611.606 745.525,612.298C749.065,612.407 749.256,620.71 749.274,621.505C749.416,627.667 741.856,626.161 728.501,626.177C724.794,626.181 725.288,625.03 724.111,621.585Z" style="fill:rgb(53,136,84);"/>
        <path d="M195.535,434.468C204.276,444.242 209.068,447.429 206.189,450.19C201.266,454.91 200.118,452.51 195.725,447.282C182.76,431.855 173.288,425.268 176.752,421.733C177.085,421.392 180.806,417.595 182.036,418.983C185.448,422.829 185.201,422.993 195.535,434.468Z" style="fill:rgb(78,172,97);"/>
        <path d="M126.129,429.476C126.783,420.617 126.298,414.683 129.601,413.915C138.849,411.763 140.545,409.942 146.033,417.749C147.068,419.222 137.204,435.972 134.512,435.418C124.737,433.406 126.259,431.042 126.129,429.476Z" style="fill:rgb(152,89,141);"/>
        <path d="M784.505,612.202C803.731,612.243 806.799,611.575 806.002,614.408C805.116,617.558 803.403,626.073 800.482,626.177C783.864,626.765 783.625,626.368 782.899,625.16C782.304,624.169 773.552,612.699 784.505,612.202Z" style="fill:rgb(215,90,52);"/>
        <path d="M912.866,634.474C913.299,644.128 908.092,639.859 898.554,640.975C894.943,641.397 887.19,644.223 885.142,638.606C884.868,637.855 881.749,629.3 887.528,628.899C896.089,628.304 908.632,628.877 910.465,628.961C914.123,629.128 912.389,630.86 912.866,634.474Z" style="fill:rgb(37,58,140);"/>
        <path d="M507.498,612.367C509.683,612.705 510.219,611.894 511.1,613.737C511.521,614.618 514.39,623.729 514.509,624.5C514.828,626.557 513.439,626.547 488.54,626.2C485.849,626.162 488.886,619.127 490.398,615.458C492.185,611.126 497.172,612.364 507.498,612.367Z" style="fill:rgb(64,148,86);"/>
        <path d="M719.979,617.402C721.397,624.793 722.869,625.984 720.449,626.221C719.59,626.304 698.237,626.351 697.547,626.239C695.214,625.861 696.115,612.48 700.496,612.438C701.696,612.426 714.19,612.304 715.5,612.338C719.467,612.439 718.971,613.605 719.979,617.402Z" style="fill:rgb(156,120,180);"/>
        <path d="M214.498,612.189C222.832,612.254 222.779,612.257 223.499,612.259C223.82,612.26 223.807,612.202 227.504,612.21C231.914,612.22 234.582,622.55 233.748,624.62C233.022,626.422 232.479,626.725 209.512,626.195C207.344,626.145 206.996,625.629 207.689,623.558C210.025,616.583 210.558,612.684 214.498,612.189Z" style="fill:rgb(31,57,137);"/>
        <path d="M837.5,612.221C845.451,612.221 855.841,612.047 856.454,612.566C857.304,613.285 855.351,621.636 855.17,622.41C853.883,627.912 848.588,626.251 842.496,626.306C835.526,626.37 832.039,628.497 832.486,621.499C832.887,615.224 831.162,612.657 837.5,612.221Z" style="fill:rgb(61,171,203);"/>
        <path d="M835.127,556.494C835.101,569.467 836.169,584.959 831.538,580.467C830.303,579.27 830.9,578.97 830.799,513.498C830.798,512.872 830.782,502.745 834.414,506.572C835.172,507.371 835.132,507.533 835.127,556.494Z" style="fill:rgb(35,74,136);"/>
        <path d="M341.175,616.591C340.47,613.859 339.748,613.769 340.678,612.668C342.104,610.979 363.588,612.129 365.577,612.236C368.558,612.395 362.467,625.41 362.438,625.44C361.101,626.839 344.764,626.109 344.658,626.058C342.076,624.835 343.144,623.981 341.175,616.591Z" style="fill:rgb(32,58,143);"/>
        <path d="M798.1,515.502C798.146,481.173 797.727,480.33 800.551,478.614C803.574,476.777 802.656,487.091 802.657,487.498C802.747,550.381 801.798,550.303 801.53,550.531C797.324,554.102 798.135,544.228 798.1,515.502Z" style="fill:rgb(81,92,157);"/>
        <path d="M188.811,606.499C188.806,573.706 188.655,544.314 188.811,539.523C188.938,535.646 192.754,535.083 193.062,538.563C193.412,542.514 193.111,607.422 193.108,607.47C193.047,608.67 189.241,612.068 188.811,606.499Z" style="fill:rgb(70,165,97);"/>
        <path d="M93.152,618.499C93.267,614.391 91.341,612.514 95.469,612.171C95.724,612.149 113.449,612.09 114.542,612.353C115.497,612.582 116.717,612.875 115.783,624.567C115.653,626.189 115.036,626.802 95.509,626.214C91.241,626.085 93.423,623.926 93.152,618.499Z" style="fill:rgb(31,61,150);"/>
        <path d="M817.502,612.198C822.379,612.213 829.881,611.143 830.066,614.488C830.711,626.193 827.471,626.213 826.49,626.219C807.731,626.336 805.971,626.386 806.212,624.496C806.332,623.561 808.833,615.091 809.491,613.495C810.351,611.404 811.088,612.434 817.502,612.198Z" style="fill:rgb(29,66,62);"/>
        <path d="M567.187,613.742C570.382,619.522 570.636,620.389 566.259,625.264C565.101,626.554 558.522,626.266 550.507,626.186C544.108,626.122 543.916,612.475 548.496,612.419C566.371,612.203 566.323,613.165 567.187,613.742Z" style="fill:rgb(49,140,82);"/>
        <path d="M289.197,622.495C289.213,621.691 289.384,612.975 290.518,612.541C291.94,611.997 292.177,611.906 309.537,612.153C312.552,612.196 310.798,619.111 309.768,624.586C309.328,626.93 300.631,626.234 297.491,626.239C291.945,626.248 289.647,628.019 289.197,622.495Z" style="fill:rgb(150,115,172);"/>
        <path d="M142.499,612.315C157.28,612.462 159.159,612.215 159.97,613.11C160.753,613.974 160.493,624.742 160.162,625.286C159.282,626.733 140.997,625.952 140.395,625.754C139.027,625.304 138.696,619.09 138.664,618.494C138.425,614.023 138.067,612.719 142.499,612.315Z" style="fill:rgb(249,231,83);"/>
        <path d="M618.603,574.806C624.641,573.357 625.831,571.549 626.606,574.466C627.734,578.715 626.856,580.181 626.604,580.602C625.074,583.155 598.055,589.12 595.525,589.678C592.856,590.267 590.071,582.695 592.649,581.902C605.513,577.947 605.605,578.748 618.603,574.806Z" style="fill:rgb(207,55,59);"/>
        <path d="M542.573,618.533C541.552,619.192 540.53,619.852 539.509,620.511C538.925,620.655 537.468,621.016 532.44,623.048L528.487,623.916C519.168,624.761 519.296,625.498 518.547,625.213C516.979,624.614 514.789,615.38 514.578,614.49C514.08,612.39 515.375,611.118 541.491,612.548C543.236,612.644 542.628,618.05 542.573,618.533Z" style="fill:rgb(49,69,97);"/>
        <path d="M184.902,618.494C185.1,613.487 184.688,613.263 185.597,612.649C187.481,611.377 204.888,612.159 206.564,612.235C207.55,612.279 208.706,613.064 204.113,624.33C203.608,625.568 203.194,626.584 187.505,626.195C184.205,626.113 185,620.264 184.902,618.494Z" style="fill:rgb(65,158,90);"/>
        <path d="M677.499,612.264C692.772,612.342 693.125,611.605 694.14,612.828C695.039,613.911 692.964,623.663 692.767,624.59C692.31,626.738 691.642,626.18 689.496,626.218C674.697,626.479 671.715,626.534 671.873,624.491C672.75,613.132 676.44,612.458 677.499,612.264Z" style="fill:rgb(70,169,99);"/>
        <path d="M737.791,587.498C737.798,603.057 739.023,610.652 734.526,609.434C733.187,609.072 733.233,608.376 733.334,553.503C733.335,552.813 733.353,542.997 736.513,545.483C738.026,546.673 737.69,547.121 737.791,587.498Z" style="fill:rgb(202,46,61);"/>
        <path d="M661.505,626.239C660.711,626.241 652.386,626.262 651.606,625.418C650.99,624.752 651.005,624.768 648.525,614.496C647.898,611.899 651.424,612.1 666.5,612.202C674.927,612.259 671.005,616.568 668.63,624.553C667.527,628.26 666.102,626.144 661.505,626.239Z" style="fill:rgb(216,51,58);"/>
        <path d="M193.043,449.529C193.163,465.778 193.251,506.757 193.074,507.407C192.629,509.043 188.805,511.481 188.78,504.5C188.763,499.796 188.568,446.491 188.942,445.695C189.133,445.288 191.266,442.964 193.043,449.529Z" style="fill:rgb(35,69,113);"/>
        <path d="M318.149,581.496C318.217,550.673 317.997,549.405 319.464,549.326C323.944,549.085 322.771,560.906 322.771,563.5C322.769,608.156 322.886,608.355 322.062,609.049C317.028,613.292 318.145,598.675 318.149,581.496Z" style="fill:rgb(55,148,83);"/>
        <path d="M910.048,615.477C909.76,619.026 910.647,625.831 906.497,625.844C899.731,625.865 892.305,626.412 891.555,624.471C890.173,620.895 886.12,612.387 889.488,612.354C891.011,612.338 905.262,612.197 908.532,612.339C910.706,612.433 909.929,613.379 910.048,615.477Z" style="fill:rgb(62,165,192);"/>
        <path d="M536.457,591.087C539.598,590.872 543.791,588.931 542.358,597.464C542.07,599.18 537.966,600.314 516.502,600.623C505.892,600.776 511.826,592.202 512.444,592.164C524.461,591.416 524.409,592.04 536.457,591.087Z" style="fill:rgb(38,64,112);"/>
        <path d="M725.4,523.336C726.647,522.513 733.373,517.067 735.533,518.461C736.861,519.318 740.281,523.607 738.173,525.07C736.743,526.062 735.182,526.856 733.755,527.852C724.154,534.55 717.857,542.087 709.488,536.514C706.222,534.339 713.86,530.645 725.4,523.336Z" style="fill:rgb(59,170,206);"/>
        <path d="M127.939,405.534C129.113,390.25 128.65,385.877 131.527,386.12C134.477,386.37 138.114,392.476 139.022,393.83C149.393,409.29 134.367,409.94 130.519,410.622C126.836,411.274 127.957,409.223 127.939,405.534Z" style="fill:rgb(65,171,132);"/>
        <path d="M628.049,619.398C629.454,613.864 628.741,613.272 630.532,612.573C631.426,612.224 631.712,612.112 642.516,612.288C643.586,612.305 645.727,612.34 647.967,624.503C648.415,626.936 641.727,626.298 629.502,626.315C625.117,626.322 627.4,622.159 628.049,619.398Z" style="fill:rgb(133,69,101);"/>
        <path d="M705.119,555.503C705.194,607.144 706.72,610.463 702.486,609.559C700.636,609.164 700.803,608.228 700.892,566.496C700.892,566.185 699.632,547.847 704.403,549.658C705.393,550.034 704.916,550.323 705.119,555.503Z" style="fill:rgb(54,162,193);"/>
        <path d="M181.874,617.487C181.982,624.129 183.979,625.92 180.468,626.093C163.524,626.927 163.357,624.891 163.346,623.505C163.337,622.399 162.153,612.74 165.509,612.605C166.709,612.557 179.289,612.054 180.523,612.429C181.546,612.74 181.845,617.069 181.874,617.487Z" style="fill:rgb(51,153,155);"/>
        <path d="M927.5,611.882C929.762,612.304 930.433,612.245 930.465,615.5C930.473,616.32 930.562,625.252 929.649,625.708C929.076,625.995 912.674,627.445 912.322,624.521C912.316,624.47 912.933,613.599 913.699,612.663C914.622,611.536 922.188,611.88 927.5,611.882Z" style="fill:rgb(75,166,92);"/>
        <path d="M868.945,410.537C869.588,406.977 868.08,405.307 871.479,405.223C877.548,405.074 882.726,416.711 881.294,419.388C877.582,426.325 878.251,428.057 870.439,429.026C866.295,429.539 867.806,423.696 868.945,410.537Z" style="fill:rgb(62,149,87);"/>
        <path d="M860.498,629.093C871.834,628.887 880.879,628.638 881.612,629.391C882.29,630.088 882.171,635.765 881.453,636.451C879.96,637.879 856.653,637.841 854.493,637.837C851.669,637.833 852.701,631.155 852.792,630.564C853.139,628.315 854.113,629.409 860.498,629.093Z" style="fill:rgb(61,178,204);"/>
        <path d="M798.115,561.504C798.125,560.949 798.223,555.616 799.625,554.732C803.202,552.478 803.592,556.522 802.52,607.502C802.471,609.832 799.822,609.346 799.549,609.296C797.853,608.986 798.049,608.069 798.115,561.504Z" style="fill:rgb(71,167,100);"/>
        <path d="M258.116,524.522C258.315,558.571 259,586.809 254.291,575.609C252.518,571.392 253.7,528.597 253.812,524.51C253.843,523.405 256.326,517.866 258.116,524.522Z" style="fill:rgb(75,168,97);"/>
        <path d="M835.124,459.507C835.094,495.824 835.913,506.05 831.558,501.452C830.334,500.16 830.809,490.172 830.801,455.503C830.799,444.239 834.975,445.464 834.993,446.275C835.043,448.643 835.095,448.618 835.124,459.507Z" style="fill:rgb(203,45,57);"/>
        <path d="M269.451,622.529C267.803,618.934 267.36,619 267.684,617.534C268.493,613.864 269.417,613.091 269.732,612.827C270.088,612.529 286.21,610.464 286.247,614.511C286.281,618.24 287.367,626.079 283.491,626.147C273.709,626.316 272.715,627.338 269.451,622.529Z" style="fill:rgb(61,158,91);"/>
        <path d="M864.882,388.755C866.474,386.477 864.904,384.04 867.468,385.054C869.204,385.74 867.841,387.941 867.627,390.51C866.457,404.511 864.54,403.965 856.025,415.123C853.21,418.812 852.272,416.244 849.978,412.276C847.998,408.849 850.963,409.206 864.882,388.755Z" style="fill:rgb(64,166,103);"/>
        <path d="M242.691,481.284C259.821,495.966 261.028,495.687 260.293,497.452C259.786,498.669 255.322,502.402 253.692,501.206C234.141,486.863 234.703,485.38 235.425,483.476C235.592,483.035 237.243,478.68 238.488,478.446C240.049,478.153 239.834,478.863 242.691,481.284Z" style="fill:rgb(67,172,189);"/>
        <path d="M507.769,595.491C507.764,595.748 508.816,600.721 505.51,600.694C497.657,600.628 480.667,598.888 480.394,598.619C479.753,597.987 480.207,591.027 483.512,590.865C486.88,590.699 502.808,591.861 504.484,591.983C508.03,592.242 507.521,593.54 507.769,595.491Z" style="fill:rgb(52,112,162);"/>
        <path d="M871.063,387.457C871.757,377.985 871.683,377.962 871.835,377.65C872.107,377.092 872.601,376.741 878.77,381.114C883.323,384.341 885.877,384.45 883.022,389.219C874.88,402.82 874.203,402.393 873.49,402.42C868.782,402.598 869.915,399.936 871.063,387.457Z" style="fill:rgb(36,62,145);"/>
        <path d="M119.041,619.495C119.268,613.838 119.102,613.841 119.286,613.388C119.976,611.698 133.835,612.487 134.37,612.747C136.117,613.595 135.918,624.351 135.852,624.606C135.541,625.804 135.194,626.533 120.433,625.84C118.727,625.76 119.454,624.917 119.041,619.495Z" style="fill:rgb(52,163,163);"/>
        <path d="M238.501,612.141C264.184,612.241 265.788,612.018 265.427,614.492C265.016,617.311 264.088,617.225 245.437,620.095C239.716,620.975 238.026,623.761 235.704,618.411C235.537,618.027 233.928,614.319 233.907,613.505C233.845,611.116 235.125,612.362 238.501,612.141Z" style="fill:rgb(244,226,89);"/>
        <path d="M579.583,584.897C585.924,583.561 587.683,582.284 589.841,588.389C591.057,591.828 588.519,591.17 568.517,595.592C564.178,596.551 564.321,594.913 563.373,590.522C562.677,587.303 567.052,587.55 579.583,584.897Z" style="fill:rgb(72,163,103);"/>
        <path d="M400.363,572.943C409.844,576.234 409.948,575.631 419.337,578.955C422.371,580.03 423.068,588.086 414.608,586.111C395.156,581.569 395.093,580.148 395.312,578.504C396.387,570.429 400.101,572.917 400.363,572.943Z" style="fill:rgb(81,173,132);"/>
        <path d="M841.405,419.418C845.668,414.895 846.002,411.903 848.024,414.864C853.152,422.375 848.924,423.486 846.911,425.856C839.521,434.556 839.211,439.501 831.745,434.178C828.4,431.793 831.635,431.212 841.405,419.418Z" style="fill:rgb(182,44,53);"/>
        <path d="M664.334,557.115C669.004,554.932 674.714,550.114 679.382,554.609C680.582,555.765 680.475,558.719 678.576,559.633C658.631,569.235 657.666,568.941 656.901,567.27C653.453,559.741 657.633,560.199 664.334,557.115Z" style="fill:rgb(203,51,59);"/>
        <path d="M221.222,582.5C221.26,574.937 220.24,562.188 224.29,563.887C226.861,564.965 226.173,607.983 224.81,608.946C220.207,612.199 221.256,601.438 221.222,582.5Z" style="fill:rgb(199,45,59);"/>
        <path d="M649.562,563.649C653.169,562.868 652.952,564.147 654.157,567.591C655.52,571.488 649.095,572.136 633.467,578.414C629.565,579.981 629.853,577.759 629.494,573.5C629.261,570.74 631.148,571.009 649.562,563.649Z" style="fill:rgb(75,170,104);"/>
        <path d="M146.483,380.471C150.163,378.387 150.093,378.267 150.455,378.222C150.622,378.201 151.904,378.039 152.08,379.558C154.055,396.659 152.865,397.139 151.457,397.366C142.892,398.751 143.955,395.256 138.879,388.245C136.453,384.896 140.707,383.906 146.483,380.471Z" style="fill:rgb(35,93,68);"/>
        <path d="M403.432,618.822C400.022,617.902 399.157,618.904 398.462,616.514C398.374,616.21 397.536,613.328 398.533,612.549C399.369,611.896 422.769,612.146 423.525,612.45C424.909,613.006 421.493,619.758 421.196,620.346C419.679,623.344 415.528,621.412 403.432,618.822Z" style="fill:rgb(37,67,119);"/>
        <path d="M286.126,573.552C285.024,555.271 285.927,533.812 286.072,530.359C286.164,528.179 288.167,529.654 288.317,529.764C291.009,531.746 290.802,532.385 290.295,571.498C290.24,575.758 287.472,577.523 286.126,573.552Z" style="fill:rgb(88,79,140);"/>
        <path d="M375.361,563.865C391.696,570.351 395.263,569.73 393.13,575.354C391.4,579.916 389.505,578.038 373.677,572.023C366.791,569.407 371.296,562.874 375.361,563.865Z" style="fill:rgb(44,88,72);"/>
        <path d="M350.759,606.493C350.775,589.656 350.715,567.621 350.799,566.594C350.897,565.388 354.549,565.566 354.831,568.461C354.901,569.179 354.963,606.688 354.872,607.574C354.819,608.085 351.419,612.081 350.759,606.493Z" style="fill:rgb(196,47,63);"/>
        <path d="M355.311,554.905C369.416,561.383 369.853,561.956 369.287,563.44C365.95,572.188 362.885,567.597 354.422,563.665C349.256,561.265 345.381,561.389 349.053,557.112C351.503,554.259 351.734,553.793 355.311,554.905Z" style="fill:rgb(77,169,101);"/>
        <path d="M296.363,525.344C297.503,524.415 299.923,522.44 313.126,532.887C314.729,534.155 310.973,539.687 309.487,540.085C308.275,540.41 292.979,530.224 292.891,530.147C291.992,529.366 296.014,525.665 296.363,525.344Z" style="fill:rgb(246,229,83);"/>
        <path d="M267.494,501.508C275.045,507.169 277.429,508.873 277.005,510.423C276.856,510.967 275.211,516.983 273.489,516.528C273.11,516.428 258.661,506.554 258.234,504.547C257.948,503.208 262.236,500.072 262.656,499.764C263.736,498.974 267.152,501.278 267.494,501.508Z" style="fill:rgb(170,57,58);"/>
        <path d="M779.494,482.493C781.832,480.716 782.755,479.648 786.061,483.821C789.231,487.822 785.319,489.104 781.89,491.969C777.038,496.023 776.188,500.335 769.604,494.388C766.993,492.03 771.017,489.988 779.494,482.493Z" style="fill:rgb(155,109,169);"/>
        <path d="M766.572,617.958C759.986,619.238 752.625,621.311 751.985,619.305C751.812,618.765 749.764,612.349 752.472,612.238C754.369,612.161 774.842,611.323 776.205,612.821C776.597,613.251 776.715,614.98 775.944,615.872C774.515,617.526 774.135,616.732 766.572,617.958Z" style="fill:rgb(72,163,100);"/>
        <path d="M474.46,589.867C479.216,590.907 478.165,592.516 477.083,597.323C476.517,599.836 459.149,597.498 459.033,594.557C458.626,584.184 464.075,588.585 474.46,589.867Z" style="fill:rgb(75,171,100);"/>
        <path d="M755.354,502.306C759.701,499.147 759.451,498.951 763.72,495.818C766.485,493.788 771.513,499.64 771.23,500.428C770.868,501.438 757.915,511.426 757.574,511.637C756.003,512.614 750.607,506.493 755.354,502.306Z" style="fill:rgb(249,230,87);"/>
        <path d="M817.791,445.748C821.927,441.358 821.8,441.4 825.891,436.863C828.802,433.635 834.352,439.276 833.957,440.604C833.733,441.357 824.104,451.803 823.412,452.4C822.028,453.593 815.378,450.51 817.791,445.748Z" style="fill:rgb(38,74,163);"/>
        <path d="M765.603,604.5C765.589,589.938 764.372,571.065 769.56,576.448C770.331,577.248 770.866,608.371 769.375,609.322C765.719,611.655 765.942,608.839 765.603,604.5Z" style="fill:rgb(247,227,78);"/>
        <path d="M232.698,472.28C236.808,476.44 236.492,477.411 233.027,482.022C231.907,483.511 231.489,482.167 220.027,471.999C215.996,468.423 224.359,464.396 226.087,465.981C226.625,466.475 226.576,466.448 232.698,472.28Z" style="fill:rgb(57,138,80);"/>
        <path d="M154.061,405.53C154.784,413.828 157.24,419.577 149.48,416.545C148.539,416.177 143.1,411.09 143.978,407.58C145.655,400.879 145.898,398.66 152.532,400.419C153.509,400.678 154.013,405.106 154.061,405.53Z" style="fill:rgb(34,57,123);"/>
        <path d="M217.412,457.591C220.112,460.407 223.846,461.963 217.407,466.36C214.291,468.487 203.346,457.181 205.765,454.73C208.819,451.635 209.334,449.43 212.442,452.561C212.84,452.963 212.81,452.934 217.412,457.591Z" style="fill:rgb(38,62,149);"/>
        <path d="M283.53,513.46C291.959,519.187 299.286,521.279 290.433,526.376C288.27,527.621 277.156,520.509 277.964,517.596C278.077,517.189 279.207,513.122 279.632,512.586C281.013,510.841 281.279,512.224 283.53,513.46Z" style="fill:rgb(75,122,171);"/>
        <path d="M770.049,527.501C770.051,532.52 770.626,541.35 767.567,540.231C764.51,539.113 765.643,508.959 766.773,507.752C771.043,503.193 770.101,511.78 770.049,527.501Z" style="fill:rgb(89,93,137);"/>
        <path d="M321.473,537.547C328.41,541.506 329.624,540.699 329.808,543.482C329.846,544.054 330.272,550.468 326.424,549.804C324.814,549.526 314.828,543.623 313.845,543.042C312.098,542.009 314.725,538.187 314.966,537.836C317.16,534.645 317.949,535.84 321.473,537.547Z" style="fill:rgb(39,64,93);"/>
        <path d="M575.494,626.263C570.969,626.322 570.272,627.142 570.097,625.687C569.581,621.394 577.71,621.034 578.477,621C584.592,620.729 594.64,619.394 595.381,621.556C595.499,621.902 596.858,625.868 595.399,626.127C593.831,626.405 593.934,626.118 575.494,626.263Z" style="fill:rgb(76,171,102);"/>
        <path d="M346.388,550.711C347.507,551.657 349.927,551.79 347.042,555.069C342.878,559.801 341.806,557.887 336.247,554.975C331.405,552.439 331.035,551.776 332.361,546.457C332.402,546.295 332.692,545.131 333.543,544.74C334.227,544.426 344.067,549.56 346.388,550.711Z" style="fill:rgb(156,116,170);"/>
        <path d="M175.576,411.438C179.232,416.082 178.792,417.697 173.429,420.274C172.193,420.868 160.831,408.087 163.613,406.672C170.357,403.242 170.903,405.519 175.576,411.438Z" style="fill:rgb(34,56,132);"/>
        <path d="M766.587,620.903C774.87,619.701 774.983,619.219 776.232,619.989C777.789,620.949 779.841,625.453 778.406,626.201C778.315,626.249 752.928,626.345 752.653,626.181C748.185,623.529 765.645,621.091 766.587,620.903Z" style="fill:rgb(33,64,153);"/>
        <path d="M560.903,592.414C561.195,595.461 562.499,596.714 559.454,597.169C546.209,599.149 545.68,598.564 545.681,597.462C545.69,591.771 545.669,590.524 551.525,589.687C557.284,588.865 559.202,586.818 560.903,592.414Z" style="fill:rgb(138,95,146);"/>
        <path d="M588.498,612.354C594.918,612.616 595.581,611.958 595.814,613.378C596.637,618.391 586.667,617.694 575.496,618.087C575.049,618.103 572.219,618.202 571.139,614.595C570.168,611.352 579.05,612.376 588.498,612.354Z" style="fill:rgb(35,57,146);"/>
        <path d="M747.691,507.769C751.634,505.424 751.374,508.118 752.82,512.419C754.031,516.024 742.985,522.142 741.811,521.084C734.774,514.738 740.053,513.371 747.691,507.769Z" style="fill:rgb(43,84,59);"/>
        <path d="M770.08,561.507C770.081,562.4 770.088,572.08 768.521,572.557C765.58,573.451 765.558,568.902 765.556,568.5C765.469,550.338 765.152,541.347 769.184,543.925C770.434,544.724 770.092,552.269 770.08,561.507Z" style="fill:rgb(46,132,78);"/>
        <path d="M290.145,582.531C290.196,606.273 291.035,609.952 287.505,609.452C285.659,609.19 285.785,608.38 285.885,586.495C285.924,578.102 289.268,579.973 289.55,580.463C289.55,580.463 290.098,582.365 290.145,582.531Z" style="fill:rgb(84,175,172);"/>
        <path d="M441.039,588.38C443.153,582.32 445.222,585.094 451.513,586.435C452.231,586.588 461.42,588.547 455.632,594.636C454.719,595.595 454.494,594.987 448.417,593.959C442.719,592.996 439.77,594.112 441.039,588.38Z" style="fill:rgb(80,154,137);"/>
        <path d="M387.118,607.471C381.956,618.755 382.896,593.65 383.078,581.481C383.147,576.843 386.555,580.336 386.609,580.445C387.328,581.901 387.133,595.577 387.118,607.471Z" style="fill:rgb(134,125,119);"/>
        <path d="M251.441,622.064C261.676,620.544 261.605,620.515 262.494,620.422C265.922,620.067 267.309,624.997 267.118,625.379C266.495,626.629 237.26,626.559 237.154,625.654C236.88,623.329 244.994,623.056 251.441,622.064Z" style="fill:rgb(32,58,127);"/>
        <path d="M428.416,589.849C425.289,588.958 420.999,589.802 424.281,582.382C425.63,579.333 439.156,582.85 438.717,585.527C437.576,592.473 435.205,591.512 428.416,589.849Z" style="fill:rgb(190,48,58);"/>
        <path d="M258.11,589.5C258.132,604.169 259.07,609.931 255.497,609.532C252.46,609.194 253.687,581.933 254.891,580.948C255.5,580.45 257.074,580.38 257.594,581.44C258.074,582.42 258.106,588.854 258.11,589.5Z" style="fill:rgb(44,66,144);"/>
        <path d="M640.611,582.499C640.648,597.114 641.722,614.764 637.063,608.78C636.85,608.506 635.687,581.405 637.718,579.811C639.943,578.063 640.179,579.664 640.611,582.499Z" style="fill:rgb(52,157,176);"/>
        <path d="M158.447,388.535C166.99,400.228 167.368,400.228 167.073,401.434C167.036,401.589 158.301,409.338 156.836,399.45C156.066,394.248 155.366,387.481 155.258,386.438C154.853,382.522 158.291,388.273 158.447,388.535Z" style="fill:rgb(69,167,107);"/>
        <path d="M830.816,606.498C830.825,591.658 830.424,585.955 831.775,584.792C837.097,580.209 835.319,608.492 834.227,609.063C831.122,610.689 830.841,606.839 830.816,606.498Z" style="fill:rgb(199,52,62);"/>
        <path d="M696.602,550.693C692.513,552.904 682.096,559.43 683.482,555.491C683.493,555.46 707.949,539.584 709.451,539.851C712.475,540.387 711.675,542.196 711.387,542.385C709.772,543.444 697.791,550.039 696.602,550.693Z" style="fill:rgb(56,53,79);"/>
        <path d="M419.773,601.498C419.532,606.976 421.935,610.674 416.606,609.218C414.455,608.63 414.633,589.752 416.507,589.525C416.739,589.497 418.164,589.325 419.184,590.687C419.691,591.364 419.766,600.631 419.773,601.498Z" style="fill:rgb(31,80,80);"/>
        <path d="M691.542,543.58C730.364,521.157 684.008,554.128 680.766,552.065C677.645,550.079 684.498,547.299 691.542,543.58Z" style="fill:rgb(64,162,113);"/>
        <path d="M672.9,606.493C672.421,612.994 668.847,608.511 668.803,607.486C668.489,600.023 667.992,584.888 672.357,589.61C673.123,590.439 672.941,593.438 672.9,606.493Z" style="fill:rgb(171,86,101);"/>
        <path d="M188.941,530.462C188.915,526.268 188.443,514.605 189.537,513.531C194.487,508.674 193.195,527.645 193.193,528.496C193.184,532.239 190.643,535.215 188.941,530.462Z" style="fill:rgb(208,54,69);"/>
        <path d="M673.09,570.498C673.082,571.773 674.222,588.801 669.706,585.254C668.652,584.426 668.287,584.139 668.819,568.519C668.83,568.204 668.907,565.96 671.511,565.639C673.586,565.383 673.056,569.872 673.09,570.498Z" style="fill:rgb(61,153,84);"/>
        <path d="M608.668,606.5C608.637,606.846 608.123,612.697 605.008,608.834C604.788,608.56 603.345,591.428 605.741,589.874C609.832,587.221 608.687,599.011 608.668,606.5Z" style="fill:rgb(189,67,94);"/>
        <path d="M401.494,626.276C400.338,626.245 393.74,628.029 397.777,621.736C398.637,620.396 399.095,620.602 417.469,624.578C428.433,626.95 401.643,626.275 401.494,626.276Z" style="fill:rgb(62,174,112);"/>
        <path d="M451.901,602.504C451.785,608.014 453.381,612.043 448.35,609.628C447.529,609.234 446.372,594.963 450.362,596.828C452.577,597.863 451.888,601.9 451.901,602.504Z" style="fill:rgb(238,225,82);"/>
        <path d="M258.051,515.46C256.02,522.07 253.845,516.388 253.815,515.478C253.5,505.877 254.698,505.616 255.412,505.918C255.82,506.09 257.147,507.344 257.334,507.605C258.199,508.814 257.819,508.9 258.051,515.46Z" style="fill:rgb(220,52,55);"/>
        <path d="M576.036,603.494C575.72,608.017 576.734,611.34 572.756,609.115C571.458,608.389 570.569,596.75 574.574,597.127C576.423,597.301 575.601,598.193 576.036,603.494Z" style="fill:rgb(55,77,125);"/>
        <path d="M737.778,534.496C737.762,535.102 737.536,543.791 734.591,541.375C732.01,539.257 733.948,526.861 737.4,529.603C737.708,529.847 737.428,529.957 737.778,534.496Z" style="fill:rgb(33,76,161);"/>
        <path d="M536.048,604.475C538.639,596.534 541.993,608.677 538.494,609.482C534.897,610.31 536.2,608.092 536.048,604.475Z" style="fill:rgb(126,76,82);"/>
        <path d="M488.038,604.511C488.007,604.952 487.533,611.623 484.93,609.068C482.652,606.833 486.163,596.692 488.038,604.511Z" style="fill:rgb(96,109,149);"/>
    </g>
</svg>
