<?xml version="1.0" encoding="UTF-8" standalone="no"?>
<!DOCTYPE svg PUBLIC "-//W3C//DTD SVG 1.1//EN" "http://www.w3.org/Graphics/SVG/1.1/DTD/svg11.dtd">
<svg width="100%" height="100%" viewBox="0 0 1024 1024" version="1.1" xmlns="http://www.w3.org/2000/svg" xmlns:xlink="http://www.w3.org/1999/xlink" xml:space="preserve" xmlns:serif="http://www.serif.com/" style="fill-rule:evenodd;clip-rule:evenodd;stroke-linejoin:round;stroke-miterlimit:2;">
    <g>
        <path d="M434.077,287.479C436.25,259.747 435.363,241.901 450.528,240.75C463.927,239.733 463.897,240.436 618.5,240.565C620.115,240.567 632.848,240.577 633.079,254.518C633.525,281.404 632.61,282.396 614.949,304.847C557.53,377.84 553.557,393.533 528.439,384.676C461.487,361.067 458.494,359.889 452.49,357.525C427.238,347.584 430.255,335.026 434.077,287.479Z" style="fill:rgb(7,155,82);"/>
        <path d="M647.834,251.576C651.036,242.908 652.486,240.581 664.498,240.664C677.046,240.751 839.87,240.499 843.497,240.62C874.745,241.662 868.9,283.075 855.207,296.192C854.665,296.711 827.244,320.836 825.881,321.944C805.704,338.34 768.286,376.063 756.499,379.496C734.218,385.984 726.421,371.321 693.922,333.116C651.378,283.104 644.388,281.5 647.834,251.576Z" style="fill:rgb(247,211,45);"/>
        <path d="M450.531,373.083C452.084,373.318 530.733,399.441 537.365,404.675C552.098,416.304 548.149,429.207 543.263,483.486C541.003,508.597 541.643,513.109 523.35,523.234C474.296,550.386 472.238,553.918 454.38,544.739C422.404,528.302 421.311,528.668 416.233,518.634C408.036,502.437 405.781,501.663 413.312,470.454C414.682,464.777 424.824,422.75 430.144,399.421C433.626,384.152 434.91,373.333 450.531,373.083Z" style="fill:rgb(10,161,222);"/>
        <path d="M159.13,279.595C155.111,257.938 159.587,247.379 170.441,242.362C175.071,240.222 175.334,240.67 304.5,240.664C321.297,240.663 325.425,241.146 329.887,263.418C338.101,304.428 341.128,309.664 334.201,319.291C331.993,322.36 331.471,323.085 292.656,341.833C269.536,353 249.973,366.736 235.833,355.12C216.18,338.973 201.306,325.312 198.385,322.629C173.548,299.817 165.851,299.175 159.13,279.595Z" style="fill:rgb(9,154,82);"/>
        <path d="M349.566,331.968C353.426,331.653 353.654,329.531 393.537,337.328C432.005,344.849 424.315,359.261 413.166,407.423C412.033,412.318 412.011,412.268 398.738,468.556C398.323,470.317 393.222,491.949 378.767,479.173C342.015,446.688 313.11,422.813 302.582,413.409C272.598,386.627 263.115,383.24 269.75,371.642C271.735,368.173 271.861,367.954 313.608,347.727C338.55,335.644 338.143,334.644 349.566,331.968Z" style="fill:rgb(48,78,156);"/>
        <path d="M610.447,409.132C628.669,406.149 628.571,406.2 652.461,402.26C711.475,392.528 719.664,388.723 726.38,396.602C734.223,405.805 721.246,413.079 713.764,419.8C708.143,424.848 633.646,489.619 622.561,499.568C601.209,518.733 603.967,540.771 600.296,545.343C594.774,552.223 588.48,543.266 569.883,528.038C549.993,511.752 556.903,507.117 561.166,443.47C563.028,415.67 570.935,415.172 610.447,409.132Z" style="fill:rgb(231,40,46);"/>
        <path d="M593.932,588.564C581.536,666.296 582.286,666.828 578.265,672.334C570.362,683.159 550.278,682.171 538.817,671.166C483.43,617.98 482.811,618.303 479.914,612.304C475.22,602.584 475.081,575.832 480.9,566.743C486.001,558.774 490.324,558.52 514.216,545.003C539.86,530.495 545.134,526.19 562.652,541.326C591.154,565.953 597.555,565.543 593.932,588.564Z" style="fill:rgb(112,63,140);"/>
        <path d="M456.418,631.329C457.618,630.87 465.486,627.861 472.468,630.597C475.737,631.879 478.343,632.901 505.668,659.323C527.442,680.377 533.791,683.751 531.168,695.419C530.415,698.769 530.126,700.056 506.987,730.878C485.537,759.45 473.612,782.806 460.995,760.231C457.498,753.974 457.564,753.862 441.975,662.422C438.702,643.228 439.173,640.461 456.418,631.329Z" style="fill:rgb(9,153,78);"/>
        <path d="M692.538,380.871C616.092,392.27 583.304,401.132 576.627,398.196C564.756,392.976 574.067,381.041 574.972,379.881C629.362,310.158 628.134,308.83 634.688,304.842C645.378,298.336 653.967,308.593 655.044,309.879C700.525,364.193 704.004,363.325 703.035,371.467C702.018,380.016 695.346,380.369 692.538,380.871Z" style="fill:rgb(229,40,46);"/>
        <path d="M419.096,289.466C416.967,314.095 419.015,327.85 398.46,323.694C364.354,316.798 357.946,316.11 353.482,303.506C353.39,303.246 342.658,256.418 342.895,251.543C343.419,240.736 353.226,240.645 354.501,240.633C412.725,240.097 413.123,239.97 417.256,242.824C424.189,247.612 421.913,254.292 419.096,289.466Z" style="fill:rgb(49,78,155);"/>
        <path d="M547.656,701.697C548.525,701.068 554.786,696.538 559.459,695.345C579.17,690.317 574.022,706.257 573.386,710.482C567.375,750.432 567.829,778.66 522.523,782.754C496.583,785.098 494.043,779.788 495.786,772.566C496.6,769.197 540.628,708.477 547.656,701.697Z" style="fill:rgb(10,160,223);"/>
        <path d="M434.116,612.566C430.511,592.74 425.7,563.681 424.995,559.426C424.001,553.423 428.168,547.142 437.237,551.998C448.915,558.251 461.939,563.011 462.291,578.508C462.942,607.153 460.112,612.626 450.342,618.233C436.853,625.974 435.364,618.047 434.116,612.566Z" style="fill:rgb(249,211,39);"/>
    </g>
</svg>
