<?xml version="1.0" encoding="UTF-8" standalone="no"?>
<!DOCTYPE svg PUBLIC "-//W3C//DTD SVG 1.1//EN" "http://www.w3.org/Graphics/SVG/1.1/DTD/svg11.dtd">
<svg width="100%" height="100%" viewBox="0 0 1024 1024" version="1.1" xmlns="http://www.w3.org/2000/svg" xmlns:xlink="http://www.w3.org/1999/xlink" xml:space="preserve" xmlns:serif="http://www.serif.com/" style="fill-rule:evenodd;clip-rule:evenodd;stroke-linejoin:round;stroke-miterlimit:2;">
    <g>
        <path d="M372.693,442.58C379.885,425.951 382.906,420.504 385.087,410.415C387.607,398.759 384.81,384.52 386.361,375.477C388.486,363.089 392.811,360.508 402.636,368.312C466.017,418.655 491.107,393.503 495.204,409.586C495.916,412.381 495.558,446.273 495.341,448.482C492.308,479.325 410.454,534.737 378.785,512.094C350.733,492.038 367.122,457.348 372.693,442.58Z" style="fill:rgb(55,163,88);"/>
        <path d="M544.534,366.565C559.413,360.326 559.886,362.014 575.485,355.464C596.061,346.823 597.771,335.961 615.242,349.857C642.852,371.818 638.232,399.448 638.277,400.508C639.063,419.026 644.724,420.21 640.047,427.193C636.345,432.72 608.742,439.394 575.466,442C532.048,445.401 531.686,443.605 529.753,441.29C527.989,439.178 528.047,427.691 528.053,426.5C528.232,391.18 525.016,378.4 544.534,366.565Z" style="fill:rgb(55,163,89);"/>
        <path d="M462.298,621.401C463.769,618.739 467.543,610.249 472.622,607.809C478.844,604.82 503.108,637.497 547.701,608.797C547.952,608.636 553.535,601.755 563.001,623.701C575.194,651.968 556.767,653.466 555.717,653.941C522.46,668.977 528.591,710.922 513.446,712.179C490.631,714.072 511.814,672.988 463.479,651.55C451.727,646.337 458.063,631.767 462.298,621.401Z" style="fill:rgb(46,100,175);"/>
        <path d="M553.515,455.911C611.509,452.624 614.055,449.921 641.604,441.925C648.566,439.904 653.548,441.198 659.658,467.462C668.459,505.3 639.682,546.237 559.844,489.025C534.93,471.172 536.901,457.121 553.515,455.911Z" style="fill:rgb(49,103,177);"/>
        <path d="M175.257,725.621C210.108,787.564 264.985,759.364 271.349,772.572C273.157,776.324 272.987,786.703 266.501,786.714C259.757,786.726 177.508,797.994 152.296,722.563C146.666,705.717 147.866,705.332 147.767,579.498C147.762,573.581 165.875,578.844 166.129,586.509C168.343,653.316 159.073,690.042 175.257,725.621Z" style="fill:rgb(61,159,91);"/>
        <path d="M834.5,771.501C807.37,788.124 800.336,786.916 730.498,786.75C729.529,786.748 723.68,786.734 725.815,775.579C727.174,768.478 733.6,768.43 734.5,768.423C775.799,768.112 817.633,775.65 846.003,730.206C866.566,697.268 852.373,656.032 859.621,649.625C864.941,644.922 876.05,644.162 876.103,648.507C876.91,714.084 877.529,738.997 834.5,771.501Z" style="fill:rgb(224,41,52);"/>
        <path d="M434.499,253.23C533.455,253.31 533.446,253.088 536.573,253.174C541.483,253.31 529.426,268.683 524.302,271.027C519.938,273.023 315.643,271.731 297.499,271.616C289.841,271.567 287.696,262.387 291.279,255.374C292.59,252.807 293.673,253.305 434.499,253.23Z" style="fill:rgb(58,163,90);"/>
        <path d="M289.625,770.657C292.861,768.856 292.953,768.359 379.5,768.409C426.306,768.436 498.323,768.393 499.513,768.426C502.456,768.507 502.54,786.833 490.497,786.8C336.14,786.385 285.977,787.844 285.194,785.62C282.681,778.479 288.796,771.591 289.625,770.657Z" style="fill:rgb(60,162,93);"/>
        <path d="M427.577,677.043C423.479,675.856 391.953,666.726 395.427,634.493C400.736,585.24 470.775,583.711 457.831,604.702C430.216,649.487 451.156,665.094 450.134,676.45C449.612,682.25 430.937,677.495 427.577,677.043Z" style="fill:rgb(249,202,51);"/>
        <path d="M580.511,591.95C627.425,595.137 646.364,643.852 609.327,674.268C603.581,678.986 580.949,656.288 580.262,644.519C578.235,609.783 564.168,607.543 565.279,599.486C566.379,591.51 576.313,592.251 580.511,591.95Z" style="fill:rgb(56,163,90);"/>
        <path d="M581.55,726.585C558.815,737.231 553.379,731.184 528.685,721.016C525.363,719.647 536.569,705.174 536.866,704.937C547.296,696.595 558.943,705.31 575.868,670.675C577.491,667.354 578.359,670.646 592.303,681.756C601.727,689.263 599.388,699.788 599.027,701.41C595.064,719.242 583.368,725.172 581.55,726.585Z" style="fill:rgb(227,41,50);"/>
        <path d="M876.076,514.502C876.232,578.325 876.018,626.715 875.922,628.548C875.642,633.879 857.748,635.675 857.627,628.49C857.573,625.245 857.734,529.778 857.601,510.498C857.593,509.485 857.533,500.825 866.501,501.481C876.139,502.187 875.805,504.763 876.076,514.502Z" style="fill:rgb(138,80,134);"/>
        <path d="M553.505,255.504C556.855,252.427 557.447,253.169 598.502,253.155C663.601,253.133 663.436,253.101 667.499,253.159C678.204,253.311 681.765,270.361 681.707,270.592C681.137,272.869 557.319,271.586 546.503,271.474C541.594,271.424 553.385,255.678 553.505,255.504Z" style="fill:rgb(249,199,52);"/>
        <path d="M876.056,367.501C876.25,485.318 876.022,485.821 874.24,487.164C866.596,492.928 857.809,486.937 857.74,484.46C857.688,482.601 857.424,368.515 857.715,366.551C858.372,362.118 874.067,354.996 876.056,367.501Z" style="fill:rgb(52,102,175);"/>
        <path d="M147.757,556.501C147.537,500.635 147.746,448.232 147.77,447.529C147.966,441.929 165.893,434.86 166.167,446.507C166.381,455.622 167.543,505.113 166.186,560.476C166.032,566.747 150.131,568.562 147.757,556.501Z" style="fill:rgb(135,77,130);"/>
        <path d="M178.323,277.293C208.128,252.274 225.539,253.222 261.504,253.199C271.533,253.193 275.487,249.631 277.147,259.568C282.092,289.183 231.897,248.26 186.457,298.459C185.333,299.701 181.461,303.978 165.646,296.204C160.393,293.622 174.68,281.015 178.323,277.293Z" style="fill:rgb(49,100,174);"/>
        <path d="M147.838,355.501C147.859,351.871 148.012,326.494 154.921,310.679C158.076,303.457 175.092,313.334 173.617,317.529C165.248,341.32 166.148,341.722 166.194,398.5C166.21,418.372 171.035,425.268 151.538,428.686C145.764,429.699 147.709,425.381 147.838,355.501Z" style="fill:rgb(61,160,91);"/>
        <path d="M859.6,293.433C863.914,300.719 875.868,316.409 875.878,345.529C875.88,349.716 858.146,348.744 856.824,341.432C845.608,279.381 808.67,287.161 804.5,271.5C802.829,265.225 806.137,256.525 808.444,256.996C835.709,262.556 856.525,289.459 859.6,293.433Z" style="fill:rgb(50,101,176);"/>
        <path d="M433.363,718.617C432.417,717.231 426.078,707.939 424.886,699.433C423.567,690.022 424.738,689.79 425.501,689.872C440.994,691.537 440.867,691.413 456.516,692.225C466.999,692.769 468.226,697.486 478.582,701.273C488.714,704.977 488.155,706.055 493.992,715.19C495.649,717.785 498.806,719.491 493.455,721.362C481.014,725.713 460.104,745.245 433.363,718.617Z" style="fill:rgb(250,203,50);"/>
        <path d="M502.464,363.907C488.797,360.558 490.427,356.298 490.684,326.503C490.795,313.639 504.455,315.639 522.493,315.896C534.395,316.065 534.224,323.216 533.445,351.498C533.006,367.427 511.883,363.982 502.464,363.907Z" style="fill:rgb(227,40,54);"/>
        <path d="M421.743,367.167C420.441,366.138 419.046,365.229 417.744,364.2C405.132,354.224 418.6,338.359 426.662,343.215C451.726,358.312 456.932,358.845 474.545,364.372C493.127,370.202 500.175,390.928 487.522,391.176C458.967,391.735 426.418,370.253 421.743,367.167Z" style="fill:rgb(47,103,177);"/>
        <path d="M712.881,777.507C711.147,790.036 704.488,786.78 685.499,786.773C613.978,786.748 613.432,786.946 611.962,785.084C606.839,778.597 610.146,768.74 615.503,768.534C615.552,768.532 704.757,768.272 707.477,768.623C711.377,769.125 712.734,776.688 712.881,777.507Z" style="fill:rgb(61,163,93);"/>
        <path d="M697.543,268.468C696.819,267.368 688.899,255.33 689.982,253.854C690.812,252.724 789.338,253.402 790.506,253.442C794.988,253.596 791.319,263.393 790.177,265.281C785.443,273.103 783.465,271.667 742.5,271.631C702.617,271.596 702.011,272.373 697.543,268.468Z" style="fill:rgb(49,102,177);"/>
        <path d="M644.648,365.418C642.367,360.805 642.126,360.881 642.187,360.441C642.902,355.302 649.986,361.395 662.927,341.776C685.81,307.085 716.863,373.518 680.511,372.226C653.474,371.265 655.141,394.109 651.504,394.511C646.778,395.032 656.301,388.671 644.648,365.418Z" style="fill:rgb(249,200,51);"/>
        <path d="M347.52,332.054C365.358,335.273 358.082,345.844 373.757,355.007C378.438,357.743 378.581,358.565 376.723,363.584C369.809,382.263 377.804,403.818 370.241,388.643C356.114,360.297 331.091,381.953 326.741,360.454C326.017,356.873 327.386,333.806 347.52,332.054Z" style="fill:rgb(247,202,54);"/>
        <path d="M520.338,769.141C525.534,767.485 525.61,767.707 588.5,768.387C599.041,768.501 598.374,785.935 592.525,786.658C590.718,786.881 514.265,786.828 513.426,786.794C512.281,786.748 509.534,776.268 520.338,769.141Z" style="fill:rgb(142,76,133);"/>
        <path d="M534.072,570.543C534.075,578.427 537.672,593.638 522.508,593.887C505.658,594.165 490.629,596.256 490.41,584.503C490.267,576.87 487.537,561.879 500.502,561.84C525.739,561.763 531.319,559.762 534.072,570.543Z" style="fill:rgb(57,164,90);"/>
        <path d="M531.624,520.395C535.403,526.211 537.44,548.599 525.47,549.071C497.811,550.16 485.951,551.757 490.464,524.494C491.363,519.061 492.334,516.11 524.515,517.09C528.645,517.216 528.353,517.917 531.624,520.395Z" style="fill:rgb(55,164,90);"/>
        <path d="M531.424,478.563C536.676,487.441 535.007,503.928 524.481,504.183C501.901,504.731 490.75,505.941 490.545,494.499C490.467,490.146 487.652,480.032 500.668,473.864C504.717,471.944 521.471,472.714 521.48,472.714C527.492,473.206 526.932,474.565 531.424,478.563Z" style="fill:rgb(224,40,51);"/>
        <path d="M403.343,329.817C405.909,331.34 410.422,331.159 406.117,338.267C400.684,347.236 398.979,351.067 397.509,350.462C372.826,340.306 372.067,337.86 371.354,335.559C371.065,334.626 368.912,327.681 374.732,323.82C381.558,319.29 393.263,325.411 403.343,329.817Z" style="fill:rgb(136,75,133);"/>
        <path d="M628.41,344.609C617.316,335.36 617.359,335.421 616.64,334.402C615.639,332.986 615.154,330.33 635.634,323.943C657.817,317.025 657.674,337.043 646.293,342.05C637.096,346.097 636.541,350.283 628.41,344.609Z" style="fill:rgb(225,39,53);"/>
    </g>
</svg>
