<?xml version="1.0" encoding="UTF-8"?>
<!DOCTYPE svg PUBLIC "-//W3C//DTD SVG 1.1//EN" "http://www.w3.org/Graphics/SVG/1.1/DTD/svg11.dtd">
<svg xmlns="http://www.w3.org/2000/svg" version="1.1" width="592px" height="610px" style="shape-rendering:geometricPrecision; text-rendering:geometricPrecision; image-rendering:optimizeQuality; fill-rule:evenodd; clip-rule:evenodd" xmlns:xlink="http://www.w3.org/1999/xlink">
<g><path style="opacity:0.992" fill="#f9f9f9" d="M 137.5,-0.5 C 243.167,-0.5 348.833,-0.5 454.5,-0.5C 517.068,9.37546 560.235,43.7088 584,102.5C 587.154,111.793 589.654,121.127 591.5,130.5C 591.5,246.833 591.5,363.167 591.5,479.5C 575.833,550.5 532.5,593.833 461.5,609.5C 351.167,609.5 240.833,609.5 130.5,609.5C 65.7123,596.219 23.5456,557.885 4,494.5C 2.37498,487.053 0.874978,479.72 -0.5,472.5C -0.5,360.833 -0.5,249.167 -0.5,137.5C 9.37546,74.9318 43.7088,31.7651 102.5,8C 114.037,4.06479 125.704,1.23146 137.5,-0.5 Z"/></g>
<g><path style="opacity:1" fill="#0f9dd7" d="M 147.5,4.5 C 157.783,4.5567 168.45,4.72337 179.5,5C 188.072,8.20069 195.572,13.034 202,19.5C 209.251,29.4222 217.251,38.7556 226,47.5C 226.706,49.9712 226.373,52.3046 225,54.5C 207.062,65.5552 188.562,75.7219 169.5,85C 165.452,86.7932 161.452,86.7932 157.5,85C 152.692,63.2706 146.858,41.7706 140,20.5C 139.333,17.5 139.333,14.5 140,11.5C 142.37,8.96144 144.87,6.6281 147.5,4.5 Z"/></g>
<g><path style="opacity:1" fill="#48a859" d="M 117.5,8.5 C 120.999,8.63308 124.666,8.79974 128.5,9C 130.049,10.214 131.215,11.714 132,13.5C 136.97,36.7486 142.97,59.7486 150,82.5C 152.105,89.7225 150.272,95.5559 144.5,100C 122.418,113.745 102.418,130.078 84.5,149C 80.3164,150.165 77.4831,148.665 76,144.5C 75.4888,142.122 74.8221,139.788 74,137.5C 73.2966,115.819 73.6299,94.152 75,72.5C 75.4081,51.0904 82.5748,32.4237 96.5,16.5C 98.7326,16.1355 100.566,15.1355 102,13.5C 103.016,14.6341 103.683,14.3008 104,12.5C 104.414,12.9574 104.914,13.2907 105.5,13.5C 108.986,11.7567 112.652,10.59 116.5,10C 117.056,9.61742 117.389,9.11742 117.5,8.5 Z"/></g>
<g><path style="opacity:1" fill="#47a75a" d="M 479.5,53.5 C 471.489,53.1724 464.489,55.6724 458.5,61C 448.111,70.6403 439.277,81.4737 432,93.5C 423.408,109.688 414.575,125.688 405.5,141.5C 400.24,141.1 396.406,138.433 394,133.5C 390.395,120.634 391.061,107.967 396,95.5C 404.691,74.443 415.691,54.7763 429,36.5C 437.234,26.136 447.4,18.3026 459.5,13C 475.917,9.34993 490.917,12.3499 504.5,22C 516.728,30.5526 525.561,41.7192 531,55.5C 532.368,58.7383 532.701,62.0717 532,65.5C 530.274,66.5762 528.441,66.7429 526.5,66C 518.276,61.3671 509.609,57.7004 500.5,55C 493.547,53.8367 486.547,53.3367 479.5,53.5 Z"/></g>
<g><path style="opacity:1" fill="#274fa0" d="M 208.5,15.5 C 222.565,15.4156 236.565,16.2489 250.5,18C 259.195,23.0231 267.028,29.1897 274,36.5C 274.667,38.8333 274.667,41.1667 274,43.5C 273.25,44.1258 272.416,44.6258 271.5,45C 262.167,45.6667 252.833,45.6667 243.5,45C 235.654,43.4117 228.987,39.7451 223.5,34C 219.333,29.8333 215.167,25.6667 211,21.5C 209.441,19.7834 208.608,17.7834 208.5,15.5 Z"/></g>
<g><path style="opacity:1" fill="#0f9cd6" d="M 402.5,4.5 C 418.929,4.77217 435.096,4.77217 451,4.5C 452.757,5.11895 453.924,6.28562 454.5,8C 440.953,14.5412 429.453,23.7079 420,35.5C 413.211,44.2962 407.211,53.6295 402,63.5C 396.005,75.9859 390.172,88.4859 384.5,101C 379.836,103.071 375.503,102.404 371.5,99C 352.076,86.8687 332.243,75.3687 312,64.5C 309.311,58.182 310.477,52.682 315.5,48C 329.833,38.4982 344.499,29.4982 359.5,21C 373.524,14.386 387.858,8.88597 402.5,4.5 Z"/></g>
<g><path style="opacity:1" fill="#dd332d" d="M 264.5,15.5 C 291.255,16.0037 317.922,17.5037 344.5,20C 345.059,20.7247 345.392,21.5581 345.5,22.5C 344.455,24.2049 343.122,25.7049 341.5,27C 332.802,31.3489 324.136,35.6822 315.5,40C 306.198,44.0197 296.531,45.3531 286.5,44C 278.637,35.8023 270.47,27.969 262,20.5C 261.294,18.0448 262.127,16.3781 264.5,15.5 Z"/></g>
<g><path style="opacity:1" fill="#655273" d="M 245.5,49.5 C 262.209,49.4391 278.876,50.2724 295.5,52C 303.095,54.6398 304.595,59.4731 300,66.5C 280.833,84.3333 261.667,102.167 242.5,120C 236.207,123.952 229.54,124.619 222.5,122C 207.167,116.667 191.833,111.333 176.5,106C 163.984,101.749 163.317,96.0822 174.5,89C 198.353,75.9366 222.02,62.7699 245.5,49.5 Z"/></g>
<g><path style="opacity:1" fill="#46a858" d="M 305.5,74.5 C 321.36,75.1799 334.86,81.1799 346,92.5C 347.545,94.2088 348.378,96.2088 348.5,98.5C 347.554,101.726 346.054,104.726 344,107.5C 331.909,120.921 320.575,134.921 310,149.5C 307.607,153.257 304.273,155.257 300,155.5C 280.815,152.076 264.482,143.409 251,129.5C 248.817,125.075 249.484,121.075 253,117.5C 266.537,104.961 280.37,92.7945 294.5,81C 298.096,78.5394 301.763,76.3727 305.5,74.5 Z"/></g>
<g><path style="opacity:1" fill="#f8c120" d="M 460.5,78.5 C 463.044,78.1043 465.211,78.771 467,80.5C 469.861,84.8878 472.194,89.5545 474,94.5C 475.277,111.781 475.944,129.114 476,146.5C 477.262,152.285 478.928,157.952 481,163.5C 486.667,175.5 492.333,187.5 498,199.5C 499.548,203.678 499.715,207.844 498.5,212C 471.245,210.089 451.412,196.922 439,172.5C 426.539,143.392 429.539,116.059 448,90.5C 452.062,86.2688 456.229,82.2688 460.5,78.5 Z"/></g>
<g><path style="opacity:1" fill="#dd322d" d="M 471.5,69.5 C 496.54,73.7624 516.04,86.429 530,107.5C 541.2,128.51 543.534,150.51 537,173.5C 532.939,186.287 527.272,198.287 520,209.5C 518.786,211.049 517.286,212.215 515.5,213C 511.245,213.796 507.079,213.629 503,212.5C 502.515,206.742 501.515,201.075 500,195.5C 495.61,183.721 490.943,172.054 486,160.5C 484.285,154.926 482.952,149.26 482,143.5C 481.667,131.167 481.333,118.833 481,106.5C 478.711,94.7604 473.878,84.2604 466.5,75C 467.679,72.6571 469.346,70.8238 471.5,69.5 Z"/></g>
<g><path style="opacity:1" fill="#254fa0" d="M 153.5,103.5 C 160.184,102.849 166.517,104.015 172.5,107C 184.15,112.491 195.483,118.491 206.5,125C 207.718,126.438 208.385,128.105 208.5,130C 202.722,147.885 196.389,165.551 189.5,183C 169.772,185.788 150.105,189.121 130.5,193C 122.508,195.014 118.674,191.848 119,183.5C 117.442,167.154 116.109,150.82 115,134.5C 116.4,131.098 118.567,128.264 121.5,126C 131.793,117.859 142.459,110.359 153.5,103.5 Z"/></g>
<g><path style="opacity:1" fill="#655173" d="M 357.5,104.5 C 359.527,104.338 361.527,104.505 363.5,105C 370.782,109.559 377.615,114.726 384,120.5C 392.35,145.902 398.183,171.902 401.5,198.5C 402.783,206.789 399.45,211.956 391.5,214C 383.01,216.7 374.343,217.7 365.5,217C 348.667,200.833 331.833,184.667 315,168.5C 312.755,165.119 312.088,161.452 313,157.5C 325.847,138.154 340.68,120.487 357.5,104.5 Z"/></g>
<g><path style="opacity:1" fill="#f9c324" d="M 68.5,77.5 C 69.5,77.5 70.5,77.5 71.5,77.5C 71.4309,99.6623 69.5976,121.662 66,143.5C 62.3247,160.184 54.9913,174.851 44,187.5C 42.1183,186.907 41.1183,185.573 41,183.5C 35.1836,144.093 44.3503,108.759 68.5,77.5 Z"/></g>
<g><path style="opacity:1" fill="#df362e" d="M 65.5,63.5 C 67.5,63.5 69.5,63.5 71.5,63.5C 71.6602,65.1992 71.4935,66.8659 71,68.5C 50.164,88.2933 38.4974,112.627 36,141.5C 35.0409,156.394 35.5409,171.227 37.5,186C 37.1667,186.833 36.8333,187.667 36.5,188.5C 29.0427,181.261 23.8761,172.594 21,162.5C 10.3792,117.76 25.2125,84.7604 65.5,63.5 Z"/></g>
<g><path style="opacity:1" fill="#f9c124" d="M 485.5,63.5 C 530.909,62.2691 559.076,83.6024 570,127.5C 572.248,153.092 564.748,175.259 547.5,194C 541.687,199.075 535.354,203.408 528.5,207C 527.167,207.667 525.833,207.667 524.5,207C 544.177,181.118 550.343,152.285 543,120.5C 535.581,99.0802 521.748,83.2469 501.5,73C 495.954,70.0602 490.287,67.3935 484.5,65C 485.056,64.6174 485.389,64.1174 485.5,63.5 Z"/></g>
<g><path style="opacity:1" fill="#46a858" d="M 216.5,127.5 C 220.605,127.234 224.605,127.734 228.5,129C 245.207,136.056 261.207,144.389 276.5,154C 280.333,156.5 283.5,159.667 286,163.5C 286.714,168.419 285.381,172.753 282,176.5C 271.167,186.667 260.333,196.833 249.5,207C 239.561,215.533 228.228,217.866 215.5,214C 210.106,212.535 204.772,210.869 199.5,209C 196.898,208.117 194.731,206.617 193,204.5C 191.965,197.22 192.965,190.22 196,183.5C 201.531,167.24 206.864,150.906 212,134.5C 213.012,131.798 214.512,129.465 216.5,127.5 Z"/></g>
<g><path style="opacity:1" fill="#119ed7" d="M 299.5,169.5 C 302.425,169.46 305.091,170.293 307.5,172C 312.378,177.209 316.878,182.709 321,188.5C 321.667,191.167 321.667,193.833 321,196.5C 318.537,199.965 315.704,203.131 312.5,206C 299.871,216.293 287.538,226.96 275.5,238C 273.5,238.667 271.5,238.667 269.5,238C 262.154,234.323 255.654,229.489 250,223.5C 248.578,220.97 248.245,218.303 249,215.5C 263.167,202 277.333,188.5 291.5,175C 294.07,172.913 296.737,171.08 299.5,169.5 Z"/></g>
<g><path style="opacity:1" fill="#264e9d" d="M 479.5,53.5 C 474.849,58.3511 469.516,62.5178 463.5,66C 441.856,85.6196 429.19,109.953 425.5,139C 427.271,166.873 438.604,189.873 459.5,208C 478.179,222.135 498.512,225.135 520.5,217C 526.5,214.333 532.5,211.667 538.5,209C 544.343,208.478 548.51,210.978 551,216.5C 551.667,219.167 551.667,221.833 551,224.5C 545.797,238.362 536.964,249.196 524.5,257C 520.167,257.667 515.833,257.667 511.5,257C 481.967,247.233 453.967,234.233 427.5,218C 416.833,211.322 410,201.822 407,189.5C 401.839,173.604 401.339,157.604 405.5,141.5C 414.575,125.688 423.408,109.688 432,93.5C 439.277,81.4737 448.111,70.6403 458.5,61C 464.489,55.6724 471.489,53.1724 479.5,53.5 Z"/></g>
<g><path style="opacity:1" fill="#df342e" d="M 75.5,156.5 C 78.5468,155.855 80.7135,156.855 82,159.5C 82.8982,186.479 76.2316,211.479 62,234.5C 59.7162,236.984 57.2162,237.151 54.5,235C 46.6165,227.075 42.7831,217.575 43,206.5C 52.0887,188.645 62.922,171.978 75.5,156.5 Z"/></g>
<g><path style="opacity:1" fill="#179cd6" d="M 564.5,177.5 C 568.273,176.822 571.106,178.156 573,181.5C 580.302,196.347 583.636,212.014 583,228.5C 582.21,234.124 579.043,235.957 573.5,234C 563.427,228.918 557.594,220.751 556,209.5C 553.016,197.116 555.85,186.449 564.5,177.5 Z"/></g>
<g><path style="opacity:1" fill="#0d9dd6" d="M 254.5,350.5 C 228.905,353.24 203.238,354.073 177.5,353C 160.109,351.227 143.109,348.061 126.5,343.5C 122.709,331.622 119.209,319.622 116,307.5C 115.333,303.167 115.333,298.833 116,294.5C 116.833,293.667 117.667,292.833 118.5,292C 131.757,289.487 138.091,281.487 137.5,268C 138.113,254.942 132.113,246.608 119.5,243C 118.299,242.097 117.465,240.931 117,239.5C 115.933,228.634 116.933,217.968 120,207.5C 122.222,203.612 125.388,200.779 129.5,199C 147.48,191.272 165.98,189.106 185,192.5C 185.167,193.667 185.333,194.833 185.5,196C 184.343,200.627 183.343,205.294 182.5,210C 182.559,211.436 182.892,212.769 183.5,214C 201.422,215.513 219.089,218.513 236.5,223C 247.292,227.475 255.792,234.642 262,244.5C 262.896,247.025 262.396,249.192 260.5,251C 237.657,250.172 227.823,261.006 231,283.5C 236.115,295.484 245.282,300.984 258.5,300C 259.416,300.374 260.25,300.874 261,301.5C 261.667,304.5 261.667,307.5 261,310.5C 259.152,323.902 256.986,337.235 254.5,350.5 Z"/></g>
<g><path style="opacity:1" fill="#2952a2" d="M 31.5,190.5 C 37.7681,189.937 41.1014,192.771 41.5,199C 41.2458,206.999 40.0791,214.832 38,222.5C 35.4107,227.119 31.5773,228.953 26.5,228C 22.5242,223.236 20.8575,217.736 21.5,211.5C 21.0215,202.565 24.3549,195.565 31.5,190.5 Z"/></g>
<g><path style="opacity:1" fill="#dd322e" d="M 403.5,214.5 C 410.217,214.017 416.217,215.85 421.5,220C 430.614,226.114 439.448,232.614 448,239.5C 449.373,241.695 449.706,244.029 449,246.5C 437.718,257.551 424.884,266.218 410.5,272.5C 407.37,272.352 404.87,271.018 403,268.5C 395.716,258.215 388.05,248.215 380,238.5C 375.876,232.058 377.043,226.892 383.5,223C 390.226,220.044 396.893,217.211 403.5,214.5 Z"/></g>
<g><path style="opacity:1" fill="#dd322e" d="M 557.5,233.5 C 568.564,233.724 576.731,238.724 582,248.5C 581.299,264.374 578.966,280.041 575,295.5C 573.551,300.218 570.385,301.718 565.5,300C 555.337,293.084 545.003,286.417 534.5,280C 527.041,273.76 526.541,266.927 533,259.5C 538.044,254.124 542.711,248.458 547,242.5C 550.103,238.886 553.603,235.886 557.5,233.5 Z"/></g>
<g><path style="opacity:1" fill="#47a858" d="M 115.5,340.5 C 103.139,338.325 91.1385,334.825 79.5,330C 60.9423,322.054 42.9423,313.054 25.5,303C 24.2068,302.51 22.8734,302.343 21.5,302.5C 16.8767,293.607 14.8767,284.107 15.5,274C 15.5278,260.525 18.3612,247.692 24,235.5C 28.4887,230.796 33.9887,228.963 40.5,230C 43.196,230.69 45.3626,232.19 47,234.5C 49.7734,239.604 52.9401,244.437 56.5,249C 58.9034,249.63 60.7367,248.797 62,246.5C 68.3133,233.891 73.6466,220.891 78,207.5C 81.352,190.093 85.0187,172.76 89,155.5C 91.3535,150.142 94.8535,145.642 99.5,142C 104.098,140.909 106.931,142.743 108,147.5C 111.09,175.088 112.423,202.755 112,230.5C 111.66,234.558 110.993,238.558 110,242.5C 105.279,248.221 100.946,254.221 97,260.5C 96.1608,265.921 96.4941,271.254 98,276.5C 100.615,280.783 103.615,284.783 107,288.5C 108.608,291.382 109.941,294.382 111,297.5C 112.666,311.823 114.166,326.156 115.5,340.5 Z"/></g>
<g><path style="opacity:1" fill="#222323" d="M 114.5,253.5 C 122.001,251.833 127.168,254.5 130,261.5C 131.266,267.595 130.266,273.262 127,278.5C 118.67,283.674 112.67,281.674 109,272.5C 106.967,264.858 108.8,258.525 114.5,253.5 Z"/></g>
<g><path style="opacity:1" fill="#048274" d="M 494.5,325.5 C 493.981,322.225 491.981,320.892 488.5,321.5C 464.303,325.82 439.97,329.153 415.5,331.5C 415.143,314.828 414.976,298.162 415,281.5C 416.378,276.792 419.212,273.292 423.5,271C 433.045,266.061 442.711,261.394 452.5,257C 458.375,254.143 464.542,252.31 471,251.5C 485.512,253.92 499.346,258.42 512.5,265C 515.792,267.412 516.959,270.579 516,274.5C 511.228,282.941 506.894,291.608 503,300.5C 500.608,309.11 497.774,317.444 494.5,325.5 Z"/></g>
<g><path style="opacity:1" fill="#252525" d="M 247.5,261.5 C 263.291,261.425 268.457,268.758 263,283.5C 256.186,290.864 249.186,291.198 242,284.5C 237.193,275.037 239.026,267.37 247.5,261.5 Z"/></g>
<g><path style="opacity:1" fill="#45a858" d="M 406.5,333.5 C 358.833,338.833 311.166,344.167 263.5,349.5C 263.602,332.131 264.435,314.798 266,297.5C 271.081,291.003 274.248,283.67 275.5,275.5C 275.406,273.077 274.906,270.744 274,268.5C 271.894,265.392 270.228,262.059 269,258.5C 268.333,256.833 268.333,255.167 269,253.5C 271.463,250.035 274.296,246.869 277.5,244C 294.542,229.289 311.875,214.956 329.5,201C 336.214,198.027 341.714,199.527 346,205.5C 353.333,216.167 360.667,226.833 368,237.5C 380.667,252.167 393.333,266.833 406,281.5C 409.563,287.523 411.063,294.023 410.5,301C 409.621,311.892 408.288,322.725 406.5,333.5 Z"/></g>
<g><path style="opacity:1" fill="#0f9cd5" d="M 516.5,282.5 C 518.857,282.337 521.19,282.503 523.5,283C 537.821,290.159 551.821,297.825 565.5,306C 569.952,310.825 570.786,316.325 568,322.5C 564.808,335.39 558.642,346.556 549.5,356C 547.833,356.667 546.167,356.667 544.5,356C 540.464,348.94 535.464,342.606 529.5,337C 521.587,331.458 513.42,326.292 505,321.5C 504.555,310.059 506.555,299.059 511,288.5C 512.36,285.977 514.193,283.977 516.5,282.5 Z"/></g>
<g><path style="opacity:1" fill="#119cd7" d="M 23.5,311.5 C 39.5999,321.55 56.2665,330.55 73.5,338.5C 79.0671,358.539 86.4004,377.872 95.5,396.5C 94.7155,399.894 92.5489,401.227 89,400.5C 68.4877,394.672 52.4877,382.672 41,364.5C 34.5853,353.002 29.252,341.002 25,328.5C 23.7111,322.912 23.2111,317.245 23.5,311.5 Z"/></g>
<g><path style="opacity:1" fill="#1f1e1e" d="M 21.5,302.5 C 22.8734,302.343 24.2068,302.51 25.5,303C 42.9423,313.054 60.9423,322.054 79.5,330C 91.1385,334.825 103.139,338.325 115.5,340.5C 118.763,342.568 122.43,343.568 126.5,343.5C 143.109,348.061 160.109,351.227 177.5,353C 203.238,354.073 228.905,353.24 254.5,350.5C 257.482,350.037 260.482,349.704 263.5,349.5C 311.166,344.167 358.833,338.833 406.5,333.5C 409.689,333.142 412.689,332.475 415.5,331.5C 439.97,329.153 464.303,325.82 488.5,321.5C 491.981,320.892 493.981,322.225 494.5,325.5C 493.5,326.833 492.5,328.167 491.5,329.5C 463.536,335.68 435.536,341.013 407.5,345.5C 403.766,345.323 400.099,345.656 396.5,346.5C 316.143,356.643 235.476,361.81 154.5,362C 130.446,358.037 107.112,351.537 84.5,342.5C 80.9795,340.771 77.3128,339.438 73.5,338.5C 56.2665,330.55 39.5999,321.55 23.5,311.5C 22.0712,308.692 21.4045,305.692 21.5,302.5 Z"/></g>
<g><path style="opacity:1" fill="#0d9dd5" d="M 84.5,342.5 C 107.112,351.537 130.446,358.037 154.5,362C 235.476,361.81 316.143,356.643 396.5,346.5C 396.422,363.388 398.255,380.055 402,396.5C 405.477,402.086 407.144,408.086 407,414.5C 404.886,418.948 401.719,422.448 397.5,425C 387.02,431.454 375.687,434.12 363.5,433C 350.176,428.252 336.509,424.919 322.5,423C 259.867,428.358 198.201,423.025 137.5,407C 125.276,403.704 113.609,399.037 102.5,393C 98.5783,389.749 95.4117,385.916 93,381.5C 87.79,368.996 84.9566,355.996 84.5,342.5 Z"/></g>
<g><path style="opacity:1" fill="#49a75a" d="M 561.5,357.5 C 563.144,357.286 564.644,357.62 566,358.5C 566.167,360.5 566.333,362.5 566.5,364.5C 563.841,380.136 561.341,395.803 559,411.5C 557.647,424.772 558.98,437.772 563,450.5C 566.029,458.058 569.195,465.558 572.5,473C 567.281,481.262 561.448,489.095 555,496.5C 553.503,498.677 551.503,500.01 549,500.5C 536.353,495.845 528.686,486.845 526,473.5C 524.964,465.206 524.464,456.872 524.5,448.5C 524.908,434.477 525.741,420.477 527,406.5C 528.672,399.83 531.672,393.83 536,388.5C 544.334,378.002 552.834,367.669 561.5,357.5 Z"/></g>
<g><path style="opacity:1" fill="#46a859" d="M 491.5,329.5 C 510.243,330.443 525.076,338.443 536,353.5C 539.527,362.104 538.861,370.437 534,378.5C 501.911,426.544 457.244,446.544 400,438.5C 399.333,437.167 399.333,435.833 400,434.5C 405.623,430.545 410.957,426.212 416,421.5C 416.808,419.577 417.308,417.577 417.5,415.5C 412.488,405.634 407.654,395.634 403,385.5C 401.292,371.504 403.792,358.337 410.5,346C 409.552,345.517 408.552,345.351 407.5,345.5C 435.536,341.013 463.536,335.68 491.5,329.5 Z"/></g>
<g><path style="opacity:1" fill="#254e9f" d="M 95.5,405.5 C 131.856,413.528 168.523,420.028 205.5,425C 238.104,428.2 270.77,430.534 303.5,432C 318.522,433.469 333.522,435.136 348.5,437C 366.41,441.31 384.41,445.31 402.5,449C 421.235,450.657 439.568,448.657 457.5,443C 468.688,440.855 473.188,445.355 471,456.5C 464.109,487.604 451.776,516.27 434,542.5C 422.199,554.628 411.533,567.628 402,581.5C 399.635,586.267 397.469,591.1 395.5,596C 384.35,599.43 373.017,602.097 361.5,604C 343.158,604.833 324.824,604.666 306.5,603.5C 322.982,578.53 322.482,553.863 305,529.5C 293.32,512.921 278.82,499.421 261.5,489C 227.527,469.337 191.86,453.337 154.5,441C 133.709,432.691 114.209,422.191 96,409.5C 95.51,408.207 95.3433,406.873 95.5,405.5 Z"/></g>
<g><path style="opacity:1" fill="#df322b" d="M 508.5,416.5 C 515.451,416 518.618,419.334 518,426.5C 518.25,441.512 518.75,456.512 519.5,471.5C 518.918,477.08 517.418,482.413 515,487.5C 504.833,501 494.667,514.5 484.5,528C 476.939,529.598 469.272,529.931 461.5,529C 459.333,528.167 457.833,526.667 457,524.5C 456.333,521.5 456.333,518.5 457,515.5C 466.923,490.732 476.256,465.732 485,440.5C 486.271,437.567 487.938,434.901 490,432.5C 496.064,426.928 502.231,421.595 508.5,416.5 Z"/></g>
<g><path style="opacity:1" fill="#665475" d="M 163.5,467.5 C 168.358,467.854 171.192,470.521 172,475.5C 172.9,488.637 171.9,501.637 169,514.5C 163.626,527.703 160.959,541.37 161,555.5C 162.49,561.777 163.157,568.111 163,574.5C 162.439,575.022 161.772,575.355 161,575.5C 149.363,570.184 138.363,563.851 128,556.5C 127.793,550.545 129.127,544.878 132,539.5C 132.667,533.167 132.667,526.833 132,520.5C 129.04,510.674 127.373,500.674 127,490.5C 128.167,489.333 129.333,488.167 130.5,487C 136.579,484.863 142.579,482.529 148.5,480C 153.982,476.346 158.982,472.179 163.5,467.5 Z"/></g>
<g><path style="opacity:1" fill="#4aa95b" d="M 109.5,488.5 C 113.192,487.971 116.358,488.971 119,491.5C 122.39,498.336 125.39,505.336 128,512.5C 128.667,519.167 128.667,525.833 128,532.5C 125.924,538.895 123.758,545.228 121.5,551.5C 102.639,540.157 85.9723,525.99 71.5,509C 83.7539,501.374 96.4205,494.54 109.5,488.5 Z"/></g>
<g><path style="opacity:1" fill="#d63230" d="M 179.5,481.5 C 180.496,481.414 181.329,481.748 182,482.5C 186.631,489.429 190.464,496.762 193.5,504.5C 190.975,508.692 187.141,511.026 182,511.5C 178.447,511.107 176.947,509.107 177.5,505.5C 178.564,497.529 179.231,489.529 179.5,481.5 Z"/></g>
<g><path style="opacity:1" fill="#df332d" d="M 182.5,518.5 C 183.873,518.343 185.207,518.51 186.5,519C 193.693,527.226 200.527,535.726 207,544.5C 210.336,552.51 211.336,560.843 210,569.5C 208.819,577.569 207.319,585.569 205.5,593.5C 194.107,590.424 183.107,586.257 172.5,581C 165.164,570.161 162.331,558.327 164,545.5C 168.72,535.354 174.887,526.354 182.5,518.5 Z"/></g>
<g><path style="opacity:1" fill="#df332c" d="M 518.5,493.5 C 528.01,494.172 535.843,498.172 542,505.5C 542.667,507.167 542.667,508.833 542,510.5C 528.225,525.114 513.058,537.948 496.5,549C 490.673,550.003 488.339,547.503 489.5,541.5C 489.537,536.556 490.703,531.889 493,527.5C 497.604,519.234 502.604,511.234 508,503.5C 510.738,499.26 514.238,495.926 518.5,493.5 Z"/></g>
<g><path style="opacity:1" fill="#0e9cd6" d="M 179.5,457.5 C 221.764,468.209 258.264,488.876 289,519.5C 299.339,531.518 306.672,545.185 311,560.5C 311.98,576.08 308.48,590.58 300.5,604C 282.833,604.667 265.167,604.667 247.5,604C 235.683,602.337 224.183,599.504 213,595.5C 213.455,577.512 213.455,559.512 213,541.5C 211.407,525.055 206.407,509.722 198,495.5C 191.268,485.094 184.935,474.428 179,463.5C 178.51,461.455 178.677,459.455 179.5,457.5 Z"/></g>
<g><path style="opacity:1" fill="#665577" d="M 457.5,534.5 C 470.57,532.62 480.403,537.287 487,548.5C 487.667,550.833 487.667,553.167 487,555.5C 464.929,569.785 441.429,581.285 416.5,590C 413.833,590.667 411.167,590.667 408.5,590C 407.409,587.936 407.242,585.769 408,583.5C 410.753,578.992 413.753,574.659 417,570.5C 429.802,557.521 443.302,545.521 457.5,534.5 Z"/></g>
</svg>
